<svg width="24" height="24" viewBox="0 0 24 24" fill="none" xmlns="http://www.w3.org/2000/svg">
<path d="M9.725 12.4883L17.075 19.8383C17.325 20.0883 17.446 20.38 17.438 20.7133C17.43 21.0466 17.3007 21.3383 17.05 21.5883C16.7993 21.8383 16.5077 21.9633 16.175 21.9633C15.8423 21.9633 15.5507 21.8383 15.3 21.5883L7.6 13.9133C7.4 13.7133 7.25 13.4883 7.15 13.2383C7.05 12.9883 7 12.7383 7 12.4883C7 12.2383 7.05 11.9883 7.15 11.7383C7.25 11.4883 7.4 11.2633 7.6 11.0633L15.3 3.36331C15.55 3.11331 15.846 2.99231 16.188 3.00031C16.53 3.00831 16.8257 3.13764 17.075 3.38831C17.3243 3.63898 17.4493 3.93064 17.45 4.26331C17.4507 4.59598 17.3257 4.88764 17.075 5.13831L9.725 12.4883Z" fill="url(#paint0_linear_320_448)"/>
<defs>
<linearGradient id="paint0_linear_320_448" x1="12.225" y1="2.99994" x2="12.225" y2="21.9633" gradientUnits="userSpaceOnUse">
<stop stop-color="#5856D6"/>
<stop offset="1" stop-color="#2E2D70"/>
</linearGradient>
</defs>
</svg>
