<svg width="24" height="24" viewBox="0 0 24 24" fill="none" xmlns="http://www.w3.org/2000/svg">
<path d="M11.9999 2.40002C13.4496 2.40086 14.8804 2.73003 16.1847 3.36283C17.489 3.99563 18.6331 4.91562 19.5311 6.05377C20.429 7.19192 21.0576 8.51866 21.3695 9.93444C21.6814 11.3502 21.6687 12.8183 21.3321 14.2284C20.9956 15.6385 20.3441 16.9541 19.4265 18.0765C18.5089 19.1988 17.3489 20.0988 16.0338 20.7088C14.7187 21.3188 13.2824 21.623 11.8329 21.5987C10.3834 21.5743 8.95819 21.2219 7.6643 20.568L7.5191 20.49L3.1451 21.582C3.06092 21.6032 2.97315 21.6058 2.88785 21.5898C2.80255 21.5737 2.72174 21.5394 2.65101 21.4891C2.58028 21.4388 2.52131 21.3737 2.47816 21.2984C2.43502 21.2231 2.40872 21.1393 2.4011 21.0528V20.9544L2.4179 20.8548L3.5099 16.482L3.4343 16.338C2.88653 15.2565 2.54857 14.081 2.4383 12.8736L2.4083 12.4152L2.3999 12C2.3999 9.45395 3.41133 7.01215 5.21168 5.2118C7.01203 3.41145 9.45382 2.40002 11.9999 2.40002Z" fill="url(#paint0_linear_221_8965)"/>
<path d="M12.6 13.2H9.00003L8.89202 13.2096C8.75369 13.2346 8.62854 13.3075 8.53841 13.4154C8.44829 13.5233 8.39893 13.6594 8.39893 13.8C8.39893 13.9406 8.44829 14.0767 8.53841 14.1846C8.62854 14.2925 8.75369 14.3653 8.89202 14.3904L9.00003 14.4H12.6L12.708 14.3904C12.8464 14.3653 12.9715 14.2925 13.0616 14.1846C13.1518 14.0767 13.2011 13.9406 13.2011 13.8C13.2011 13.6594 13.1518 13.5233 13.0616 13.4154C12.9715 13.3075 12.8464 13.2346 12.708 13.2096L12.6 13.2ZM15 9.59998H9.00003L8.89202 9.60958C8.75369 9.63462 8.62854 9.70746 8.53841 9.81536C8.44829 9.92326 8.39893 10.0594 8.39893 10.2C8.39893 10.3406 8.44829 10.4767 8.53841 10.5846C8.62854 10.6925 8.75369 10.7653 8.89202 10.7904L9.00003 10.8H15L15.108 10.7904C15.2464 10.7653 15.3715 10.6925 15.4616 10.5846C15.5518 10.4767 15.6011 10.3406 15.6011 10.2C15.6011 10.0594 15.5518 9.92326 15.4616 9.81536C15.3715 9.70746 15.2464 9.63462 15.108 9.60958L15 9.59998Z" fill="url(#paint1_linear_221_8965)"/>
<defs>
<linearGradient id="paint0_linear_221_8965" x1="11.9971" y1="2.40002" x2="11.9971" y2="21.6001" gradientUnits="userSpaceOnUse">
<stop stop-color="#5856D6"/>
<stop offset="1" stop-color="#2E2D70"/>
</linearGradient>
<linearGradient id="paint1_linear_221_8965" x1="9.03002" y1="9.68398" x2="9.56882" y2="14.8968" gradientUnits="userSpaceOnUse">
<stop stop-color="#FDFDFD"/>
<stop offset="1" stop-color="#CCEAFF"/>
</linearGradient>
</defs>
</svg>
