<svg width="84" height="76" viewBox="0 0 84 76" fill="none" xmlns="http://www.w3.org/2000/svg">
<path fill-rule="evenodd" clip-rule="evenodd" d="M33.2511 34.9443L17.6903 35.184L15.0102 42.5861L13.814 44.1651L13.9776 54.1371L33.3678 54.0312L33.2511 34.9443Z" fill="#FFB63F"/>
<mask id="mask0_411_587" style="mask-type:luminance" maskUnits="userSpaceOnUse" x="15" y="36" width="19" height="2">
<path d="M15.9702 36.5927H33.3714V37.1556H15.9702V36.5927Z" fill="white"/>
</mask>
<g mask="url(#mask0_411_587)">
<mask id="mask1_411_587" style="mask-type:luminance" maskUnits="userSpaceOnUse" x="13" y="34" width="21" height="21">
<path fill-rule="evenodd" clip-rule="evenodd" d="M33.2511 34.9445L17.6903 35.1842L15.0102 42.5862L13.814 44.1652L13.9776 54.1372L33.3678 54.0313L33.2511 34.9445Z" fill="white"/>
</mask>
<g mask="url(#mask1_411_587)">
<path fill-rule="evenodd" clip-rule="evenodd" d="M16.1159 37.1557L33.4474 36.8188C33.4879 36.8181 33.5203 36.7877 33.5195 36.7507C33.5187 36.7137 33.4846 36.6843 33.4441 36.6851L16.1126 37.0223C16.0721 37.023 16.0397 37.0534 16.0405 37.0904C16.0414 37.1275 16.075 37.1568 16.1159 37.1557Z" fill="#F29828"/>
</g>
</g>
<mask id="mask2_411_587" style="mask-type:luminance" maskUnits="userSpaceOnUse" x="26" y="36" width="2" height="17">
<path d="M26.5483 36.9679H27.2743V52.8247H26.5483V36.9679Z" fill="white"/>
</mask>
<g mask="url(#mask2_411_587)">
<mask id="mask3_411_587" style="mask-type:luminance" maskUnits="userSpaceOnUse" x="13" y="34" width="21" height="21">
<path fill-rule="evenodd" clip-rule="evenodd" d="M33.2516 34.9443L17.6908 35.184L15.0107 42.5861L13.8145 44.1651L13.9781 54.1371L33.3683 54.0312L33.2516 34.9443Z" fill="white"/>
</mask>
<g mask="url(#mask3_411_587)">
<path fill-rule="evenodd" clip-rule="evenodd" d="M26.6123 37.0401L27.0409 52.7147C27.0417 52.7518 27.0757 52.7811 27.1167 52.78C27.1576 52.7792 27.1896 52.7485 27.1888 52.7114L26.7602 37.0368C26.7594 37.0002 26.7253 36.9708 26.6844 36.9716C26.6435 36.9727 26.6115 37.0031 26.6123 37.0401Z" fill="#F29828"/>
</g>
</g>
<mask id="mask4_411_587" style="mask-type:luminance" maskUnits="userSpaceOnUse" x="16" y="42" width="2" height="13">
<path d="M16.3853 42.879H17.1112V54.1383H16.3853V42.879Z" fill="white"/>
</mask>
<g mask="url(#mask4_411_587)">
<mask id="mask5_411_587" style="mask-type:luminance" maskUnits="userSpaceOnUse" x="13" y="34" width="21" height="21">
<path fill-rule="evenodd" clip-rule="evenodd" d="M33.2511 34.9445L17.6903 35.1842L15.0102 42.5862L13.814 44.1652L13.9776 54.1372L33.3678 54.0313L33.2511 34.9445Z" fill="white"/>
</mask>
<g mask="url(#mask5_411_587)">
<path fill-rule="evenodd" clip-rule="evenodd" d="M16.4566 43.0078L16.8851 58.6824C16.8864 58.7191 16.92 58.7484 16.9609 58.7473C17.0018 58.7465 17.0338 58.7158 17.033 58.6791L16.6044 43.0045C16.6036 42.9675 16.5696 42.9381 16.5287 42.9392C16.4882 42.94 16.4557 42.9708 16.4566 43.0078Z" fill="#F29828"/>
</g>
</g>
<mask id="mask6_411_587" style="mask-type:luminance" maskUnits="userSpaceOnUse" x="15" y="49" width="7" height="2">
<path d="M15.9702 49.2593H21.7776V50.1037H15.9702V49.2593Z" fill="white"/>
</mask>
<g mask="url(#mask6_411_587)">
<mask id="mask7_411_587" style="mask-type:luminance" maskUnits="userSpaceOnUse" x="13" y="34" width="21" height="21">
<path fill-rule="evenodd" clip-rule="evenodd" d="M33.2511 34.9445L17.6903 35.1842L15.0102 42.5862L13.814 44.1652L13.9776 54.1372L33.3678 54.0313L33.2511 34.9445Z" fill="white"/>
</mask>
<g mask="url(#mask7_411_587)">
<path fill-rule="evenodd" clip-rule="evenodd" d="M16.0127 49.3319H21.7123V50.0679H16.0127V49.3319Z" fill="#F29828"/>
</g>
</g>
<mask id="mask8_411_587" style="mask-type:luminance" maskUnits="userSpaceOnUse" x="15" y="49" width="2" height="4">
<path d="M15.9702 49.6345H16.5924V52.2617H15.9702V49.6345Z" fill="white"/>
</mask>
<g mask="url(#mask8_411_587)">
<mask id="mask9_411_587" style="mask-type:luminance" maskUnits="userSpaceOnUse" x="13" y="34" width="21" height="21">
<path fill-rule="evenodd" clip-rule="evenodd" d="M33.2511 34.9443L17.6903 35.184L15.0102 42.5861L13.814 44.1651L13.9776 54.1371L33.3678 54.0312L33.2511 34.9443Z" fill="white"/>
</mask>
<g mask="url(#mask9_411_587)">
<path fill-rule="evenodd" clip-rule="evenodd" d="M16.0127 49.6993H16.5101V52.2015H16.0127V49.6993Z" fill="#F29828"/>
</g>
</g>
<mask id="mask10_411_587" style="mask-type:luminance" maskUnits="userSpaceOnUse" x="15" y="50" width="7" height="2">
<path d="M15.9702 50.5729H21.5702V51.3235H15.9702V50.5729Z" fill="white"/>
</mask>
<g mask="url(#mask10_411_587)">
<mask id="mask11_411_587" style="mask-type:luminance" maskUnits="userSpaceOnUse" x="13" y="34" width="21" height="21">
<path fill-rule="evenodd" clip-rule="evenodd" d="M33.2511 34.9445L17.6903 35.1842L15.0102 42.5862L13.814 44.1652L13.9776 54.1372L33.3678 54.0313L33.2511 34.9445Z" fill="white"/>
</mask>
<g mask="url(#mask11_411_587)">
<path fill-rule="evenodd" clip-rule="evenodd" d="M16.0127 50.5828H21.5317V51.3187H16.0127V50.5828Z" fill="#F29828"/>
</g>
</g>
<mask id="mask12_411_587" style="mask-type:luminance" maskUnits="userSpaceOnUse" x="15" y="51" width="6" height="2">
<path d="M15.9702 51.7926H20.7406V52.637H15.9702V51.7926Z" fill="white"/>
</mask>
<g mask="url(#mask12_411_587)">
<mask id="mask13_411_587" style="mask-type:luminance" maskUnits="userSpaceOnUse" x="13" y="34" width="21" height="21">
<path fill-rule="evenodd" clip-rule="evenodd" d="M33.2511 34.9443L17.6903 35.184L15.0102 42.5861L13.814 44.1651L13.9776 54.1371L33.3678 54.0312L33.2511 34.9443Z" fill="white"/>
</mask>
<g mask="url(#mask13_411_587)">
<path fill-rule="evenodd" clip-rule="evenodd" d="M16.0127 51.834H20.7008V52.5699H16.0127V51.834Z" fill="#F29828"/>
</g>
</g>
<mask id="mask14_411_587" style="mask-type:luminance" maskUnits="userSpaceOnUse" x="16" y="37" width="10" height="7">
<path d="M16.3853 37.6248H25.8223V43.1606H16.3853V37.6248Z" fill="white"/>
</mask>
<g mask="url(#mask14_411_587)">
<mask id="mask15_411_587" style="mask-type:luminance" maskUnits="userSpaceOnUse" x="13" y="34" width="21" height="21">
<path fill-rule="evenodd" clip-rule="evenodd" d="M33.2511 34.9445L17.6903 35.1842L15.0102 42.5862L13.814 44.1652L13.9776 54.1372L33.3678 54.0313L33.2511 34.9445Z" fill="white"/>
</mask>
<g mask="url(#mask15_411_587)">
<path fill-rule="evenodd" clip-rule="evenodd" d="M25.6004 37.6606L17.8243 37.8219L16.4287 43.1349L25.7734 42.9721L25.6004 37.6606Z" fill="#EEF9FF"/>
</g>
</g>
<path fill-rule="evenodd" clip-rule="evenodd" d="M34.4644 52.2013V33.9607L27.1387 34.0182L27.1196 34.9811L33.2394 34.9899V52.2013H34.4644Z" fill="#414141"/>
<path fill-rule="evenodd" clip-rule="evenodd" d="M43.25 30.1167L44.2554 29.5006L55.8123 44.9275L54.8069 45.5436L43.25 30.1167Z" fill="#55524F"/>
<path fill-rule="evenodd" clip-rule="evenodd" d="M48.1245 37.5074L50.1982 36.2367L56.4269 44.5507L54.3532 45.8217L48.1245 37.5074Z" fill="#F29828"/>
<path fill-rule="evenodd" clip-rule="evenodd" d="M6.69879 17.9543L6.56592 18.422L18.4538 22.2264L18.5174 21.6873L6.69879 17.9543Z" fill="#55524F"/>
<path fill-rule="evenodd" clip-rule="evenodd" d="M7.06264 17.2107L6.93018 17.678L18.8176 21.4824L18.8812 20.9433L7.06264 17.2107Z" fill="#55524F"/>
<path fill-rule="evenodd" clip-rule="evenodd" d="M7.48389 16.0364L7.73018 16.3006L72.366 37.1977L72.3477 36.947L7.48389 16.0364Z" fill="#55524F"/>
<path d="M72.714 37.4961C72.714 37.5514 72.7079 37.6064 72.6949 37.6606C72.6824 37.7152 72.6637 37.768 72.6386 37.819C72.6139 37.8703 72.5835 37.919 72.5471 37.9652C72.511 38.0114 72.4701 38.0539 72.4239 38.0931C72.3782 38.1323 72.3283 38.1671 72.274 38.1983C72.2202 38.2291 72.1631 38.2551 72.1031 38.276C72.0427 38.2973 71.9808 38.3134 71.9172 38.3244C71.8536 38.335 71.7892 38.3405 71.7239 38.3405C71.6591 38.3405 71.5947 38.335 71.5307 38.3244C71.4671 38.3134 71.4051 38.2973 71.3452 38.276C71.2852 38.2551 71.2281 38.2291 71.1738 38.1983C71.1199 38.1671 71.0701 38.1323 71.0239 38.0931C70.9782 38.0539 70.9368 38.0114 70.9008 37.9652C70.8647 37.919 70.8343 37.8703 70.8092 37.819C70.7845 37.768 70.7655 37.7152 70.7529 37.6606C70.7404 37.6064 70.7339 37.5514 70.7339 37.4961C70.7339 37.4403 70.7404 37.3854 70.7529 37.3311C70.7655 37.2769 70.7845 37.2241 70.8092 37.1728C70.8343 37.1215 70.8647 37.0727 70.9008 37.0266C70.9368 36.9807 70.9782 36.9379 71.0239 36.8986C71.0701 36.8594 71.1199 36.8246 71.1738 36.7938C71.2281 36.763 71.2852 36.737 71.3452 36.7158C71.4051 36.6945 71.4671 36.6784 71.5307 36.6677C71.5947 36.6567 71.6591 36.6512 71.7239 36.6512C71.7892 36.6512 71.8536 36.6567 71.9172 36.6677C71.9808 36.6784 72.0427 36.6945 72.1031 36.7158C72.1631 36.737 72.2202 36.763 72.274 36.7938C72.3283 36.8246 72.3782 36.8594 72.4239 36.8986C72.4701 36.9379 72.511 36.9807 72.5471 37.0266C72.5835 37.0727 72.6139 37.1215 72.6386 37.1728C72.6637 37.2241 72.6824 37.2769 72.6949 37.3311C72.7079 37.3854 72.714 37.4403 72.714 37.4961Z" fill="#414141"/>
<path fill-rule="evenodd" clip-rule="evenodd" d="M5.87842 18.9696H6.10689V25.8875H5.87842V18.9696Z" fill="#55524F"/>
<path fill-rule="evenodd" clip-rule="evenodd" d="M7.08057 19.007H7.30904V25.9249H7.08057V19.007Z" fill="#55524F"/>
<mask id="mask16_411_587" style="mask-type:luminance" maskUnits="userSpaceOnUse" x="5" y="15" width="5" height="5">
<path d="M5.80762 15.7655H9.02243V19.4222H5.80762V15.7655Z" fill="white"/>
</mask>
<g mask="url(#mask16_411_587)">
<path fill-rule="evenodd" clip-rule="evenodd" d="M8.92959 16.3805L7.0451 15.8109L5.84521 18.9911L7.10465 19.3833L7.92739 18.8097L8.92959 16.3805Z" fill="#FFB63F"/>
</g>
<path fill-rule="evenodd" clip-rule="evenodd" d="M7.02896 28.6628C7.02896 28.6628 5.96113 29.3661 6.52867 30.0599C6.84707 30.4488 7.54504 30.4484 7.90071 30.175C8.22641 29.9243 8.46663 29.3815 8.43949 29.2965C8.43949 29.2965 8.5918 29.9166 8.33416 30.3828C8.08746 30.8296 7.48306 31.1096 7.06703 31.1096C6.21593 31.1096 5.34499 30.6434 5.51512 29.5248C5.65043 28.6349 6.54122 28.3633 6.54122 28.3633L6.54325 27.1018L6.99938 27.1414L7.02896 28.6628Z" fill="#55524F"/>
<path fill-rule="evenodd" clip-rule="evenodd" d="M7.41412 25.2007L5.73096 25.2359C5.73096 25.2359 5.92135 25.9869 5.92945 26.335C5.93755 26.6774 5.62199 27.0754 5.77916 27.3261C6.06516 27.7828 7.42424 27.734 7.64097 27.233C7.77181 26.9314 7.37523 26.5894 7.33755 26.2507C7.29988 25.9121 7.41412 25.2007 7.41412 25.2007Z" fill="#FFB63F"/>
<path fill-rule="evenodd" clip-rule="evenodd" d="M17.021 19.8994L16.1816 21.9449L40.9559 29.5959L43.0701 31.3339L74.7597 41.6101L76.327 41.5464L72.1768 37.606L17.021 19.8994Z" fill="#FFB63F"/>
<mask id="mask17_411_587" style="mask-type:luminance" maskUnits="userSpaceOnUse" x="56" y="36" width="9" height="4">
<path d="M56.9331 36.0297H64.0887V39.9704H56.9331V36.0297Z" fill="white"/>
</mask>
<g mask="url(#mask17_411_587)">
<mask id="mask18_411_587" style="mask-type:luminance" maskUnits="userSpaceOnUse" x="15" y="19" width="63" height="24">
<path d="M15.9399 22.5497L17.0608 19.7224L77.2422 39.2374L76.1213 42.065L15.9399 22.5497Z" fill="white"/>
</mask>
<g mask="url(#mask18_411_587)">
<mask id="mask19_411_587" style="mask-type:luminance" maskUnits="userSpaceOnUse" x="16" y="19" width="61" height="23">
<path fill-rule="evenodd" clip-rule="evenodd" d="M17.0205 19.8994L16.1812 21.9449L40.9554 29.5959L43.0696 31.3339L74.7592 41.6101L76.3265 41.5464L72.1763 37.606L17.0205 19.8994Z" fill="white"/>
</mask>
<g mask="url(#mask19_411_587)">
<path fill-rule="evenodd" clip-rule="evenodd" d="M57.0155 36.1198C56.9182 36.0784 57.44 36.6454 57.4761 36.6341C57.9132 36.4977 57.6936 36.3746 58.1534 36.2932C59.3682 36.0784 63.8745 36.1657 63.8745 36.1657C63.8745 36.1657 64.1325 38.618 63.9016 39.877L57.0155 36.1198Z" fill="#F29828"/>
</g>
</g>
</g>
<mask id="mask20_411_587" style="mask-type:luminance" maskUnits="userSpaceOnUse" x="64" y="39" width="11" height="3">
<path d="M64.5039 39.2197H74.8743V41.6592H64.5039V39.2197Z" fill="white"/>
</mask>
<g mask="url(#mask20_411_587)">
<mask id="mask21_411_587" style="mask-type:luminance" maskUnits="userSpaceOnUse" x="15" y="19" width="63" height="24">
<path d="M15.9404 22.5497L17.0613 19.7224L77.2427 39.2374L76.1218 42.065L15.9404 22.5497Z" fill="white"/>
</mask>
<g mask="url(#mask21_411_587)">
<mask id="mask22_411_587" style="mask-type:luminance" maskUnits="userSpaceOnUse" x="16" y="19" width="61" height="23">
<path fill-rule="evenodd" clip-rule="evenodd" d="M17.021 19.8994L16.1816 21.9449L40.9559 29.5959L43.0701 31.3339L74.7597 41.6101L76.327 41.5464L72.1768 37.606L17.021 19.8994Z" fill="white"/>
</mask>
<g mask="url(#mask22_411_587)">
<path fill-rule="evenodd" clip-rule="evenodd" d="M66.4152 40.7429C66.3175 40.7015 64.5254 41.4752 64.5416 41.4459C64.7113 41.1369 66.3544 39.2563 66.3544 39.2563L74.8123 39.459C74.8123 39.459 73.9381 41.4646 73.7072 42.7236L66.4152 40.7429Z" fill="#F29828"/>
</g>
</g>
</g>
<path fill-rule="evenodd" clip-rule="evenodd" d="M57.9863 46.9568H72.2715V50.2613H57.9863V46.9568Z" fill="#414141"/>
<path fill-rule="evenodd" clip-rule="evenodd" d="M76.9374 41.9942L74.4084 39.5356H62.1021V47.7976H76.9374V41.9942Z" fill="#FFB63F"/>
<path fill-rule="evenodd" clip-rule="evenodd" d="M64.3095 47.7976L64.2256 39.5356H62.1025V47.7976H64.3095Z" fill="#F29828"/>
<path fill-rule="evenodd" clip-rule="evenodd" d="M73.2718 44.7702H68.625V45.1976H73.2718V44.7702ZM73.2718 43.8693H68.625V44.2967H73.2718V43.8693ZM73.2718 43.0366H68.625V43.464H73.2718V43.0366ZM73.2718 42.1357H68.625V42.5631H73.2718V42.1357Z" fill="#414141"/>
<path fill-rule="evenodd" clip-rule="evenodd" d="M63.7699 36.1909L55.7041 36.3368L54.315 40.8383L53.6948 41.7986L53.7799 47.8632L63.8302 47.7987L63.7699 36.1909Z" fill="#FFB63F"/>
<mask id="mask23_411_587" style="mask-type:luminance" maskUnits="userSpaceOnUse" x="54" y="37" width="10" height="1">
<path d="M54.7554 37.2494H63.8323V37.6247H54.7554V37.2494Z" fill="white"/>
</mask>
<g mask="url(#mask23_411_587)">
<mask id="mask24_411_587" style="mask-type:luminance" maskUnits="userSpaceOnUse" x="53" y="36" width="11" height="12">
<path fill-rule="evenodd" clip-rule="evenodd" d="M63.7699 36.1909L55.7041 36.3368L54.315 40.8383L53.6948 41.7986L53.7799 47.8632L63.8302 47.7987L63.7699 36.1909Z" fill="white"/>
</mask>
<g mask="url(#mask24_411_587)">
<path fill-rule="evenodd" clip-rule="evenodd" d="M54.8884 37.5356L63.8718 37.3308C63.8932 37.3304 63.9098 37.3117 63.9094 37.2893C63.909 37.2666 63.8912 37.249 63.8701 37.2494L54.8868 37.4543C54.8657 37.4546 54.8487 37.4733 54.8491 37.4957C54.8499 37.5184 54.8674 37.536 54.8884 37.5356Z" fill="#F29828"/>
</g>
</g>
<mask id="mask25_411_587" style="mask-type:luminance" maskUnits="userSpaceOnUse" x="60" y="37" width="1" height="11">
<path d="M60.252 37.3433H60.6668V47.8662H60.252V37.3433Z" fill="white"/>
</mask>
<g mask="url(#mask25_411_587)">
<mask id="mask26_411_587" style="mask-type:luminance" maskUnits="userSpaceOnUse" x="53" y="36" width="11" height="12">
<path fill-rule="evenodd" clip-rule="evenodd" d="M63.7704 36.1909L55.7046 36.3368L54.3155 40.8383L53.6953 41.7986L53.7804 47.8632L63.8307 47.7987L63.7704 36.1909Z" fill="white"/>
</mask>
<g mask="url(#mask26_411_587)">
<path fill-rule="evenodd" clip-rule="evenodd" d="M60.3111 37.4697L60.5489 47.9999C60.5497 48.0245 60.5683 48.0443 60.591 48.0435C60.6137 48.0432 60.6315 48.0223 60.6307 47.9977L60.3929 37.4675C60.3921 37.4429 60.3734 37.4231 60.3508 37.4238C60.3281 37.4246 60.3103 37.4451 60.3111 37.4697Z" fill="#F29828"/>
</g>
</g>
<mask id="mask27_411_587" style="mask-type:luminance" maskUnits="userSpaceOnUse" x="54" y="41" width="2" height="7">
<path d="M54.9629 41.0024H55.3777V47.8661H54.9629V41.0024Z" fill="white"/>
</mask>
<g mask="url(#mask27_411_587)">
<mask id="mask28_411_587" style="mask-type:luminance" maskUnits="userSpaceOnUse" x="53" y="36" width="11" height="12">
<path fill-rule="evenodd" clip-rule="evenodd" d="M63.7699 36.1909L55.7041 36.3368L54.315 40.8383L53.6948 41.7986L53.7799 47.8632L63.8302 47.7987L63.7699 36.1909Z" fill="white"/>
</mask>
<g mask="url(#mask28_411_587)">
<path fill-rule="evenodd" clip-rule="evenodd" d="M55.0649 41.0945L55.2869 50.6271C55.2877 50.6495 55.3052 50.6675 55.3262 50.6667C55.3473 50.6664 55.3643 50.6477 55.3635 50.6253L55.1415 41.0923C55.1411 41.07 55.1233 41.0524 55.1022 41.0527C55.0812 41.0535 55.0645 41.0722 55.0649 41.0945Z" fill="#F29828"/>
</g>
</g>
<mask id="mask29_411_587" style="mask-type:luminance" maskUnits="userSpaceOnUse" x="54" y="37" width="6" height="5">
<path d="M54.9629 37.8124H59.9407V41.1902H54.9629V37.8124Z" fill="white"/>
</mask>
<g mask="url(#mask29_411_587)">
<mask id="mask30_411_587" style="mask-type:luminance" maskUnits="userSpaceOnUse" x="53" y="36" width="11" height="12">
<path fill-rule="evenodd" clip-rule="evenodd" d="M63.7699 36.1909L55.7041 36.3368L54.315 40.8383L53.6948 41.7986L53.7799 47.8632L63.8302 47.7987L63.7699 36.1909Z" fill="white"/>
</mask>
<g mask="url(#mask30_411_587)">
<path fill-rule="evenodd" clip-rule="evenodd" d="M59.8045 37.8428L55.7738 37.9406L55.0503 41.1718L59.894 41.0728L59.8045 37.8428Z" fill="#EEF9FF"/>
</g>
</g>
<path fill-rule="evenodd" clip-rule="evenodd" d="M28.3907 53.4617L26.4795 50.0355H22.8863L20.6862 53.3884L13.9155 53.4617V55.833H28.3907V53.4617Z" fill="#414141"/>
<path fill-rule="evenodd" clip-rule="evenodd" d="M24.4863 49.6984H76.7506V54.7027H24.4863V49.6984Z" fill="#414141"/>
<path d="M30.5762 55.8619C30.5762 55.9935 30.5693 56.1247 30.5551 56.2556C30.5409 56.3864 30.5198 56.5165 30.4919 56.6455C30.4635 56.7746 30.4287 56.9021 30.387 57.0278C30.3453 57.1539 30.2966 57.2774 30.2415 57.3991C30.1865 57.5208 30.1253 57.6395 30.0572 57.7553C29.9892 57.8715 29.9154 57.9841 29.8356 58.0936C29.7554 58.2029 29.67 58.3084 29.5784 58.4103C29.4873 58.5118 29.3904 58.6093 29.2888 58.7021C29.1871 58.7951 29.0806 58.8835 28.9692 58.967C28.8582 59.0502 28.7423 59.1287 28.6228 59.2016C28.5033 59.2749 28.3797 59.3423 28.2529 59.4043C28.1257 59.4666 27.9957 59.5227 27.8628 59.5729C27.73 59.6235 27.5947 59.6674 27.4569 59.7056C27.3192 59.744 27.1795 59.7759 27.0385 59.8016C26.8971 59.8272 26.7549 59.8463 26.6115 59.8595C26.4685 59.8723 26.3247 59.8786 26.1809 59.8786C26.0371 59.8786 25.8933 59.8723 25.7499 59.8595C25.6069 59.8463 25.4647 59.8272 25.3233 59.8016C25.1823 59.7759 25.0426 59.744 24.9049 59.7056C24.7671 59.6674 24.6318 59.6235 24.499 59.5729C24.3657 59.5227 24.236 59.4666 24.1089 59.4043C23.9821 59.3423 23.8585 59.2749 23.739 59.2016C23.6191 59.1287 23.5036 59.0502 23.3926 58.967C23.2812 58.8835 23.1747 58.7951 23.073 58.7021C22.9709 58.6093 22.8745 58.5118 22.7834 58.4103C22.6918 58.3084 22.6064 58.2029 22.5262 58.0936C22.4464 57.9841 22.3722 57.8715 22.3046 57.7553C22.2365 57.6395 22.1753 57.5208 22.1203 57.3991C22.0652 57.2774 22.0165 57.1539 21.9748 57.0278C21.9331 56.9021 21.8983 56.7746 21.8699 56.6455C21.842 56.5165 21.8209 56.3864 21.8067 56.2556C21.7925 56.1247 21.7856 55.9935 21.7856 55.8619C21.7856 55.7304 21.7925 55.5992 21.8067 55.4683C21.8209 55.3371 21.842 55.2074 21.8699 55.0783C21.8983 54.9493 21.9331 54.8218 21.9748 54.6961C22.0165 54.57 22.0652 54.4465 22.1203 54.3248C22.1753 54.2031 22.2365 54.0844 22.3046 53.9685C22.3722 53.8524 22.4464 53.7398 22.5262 53.6303C22.6064 53.521 22.6918 53.4155 22.7834 53.3136C22.8745 53.2121 22.9709 53.1146 23.073 53.0215C23.1747 52.9287 23.2812 52.8404 23.3926 52.7569C23.5036 52.6733 23.6191 52.5952 23.739 52.5219C23.8585 52.449 23.9821 52.3815 24.1089 52.3196C24.236 52.2573 24.3657 52.2012 24.499 52.151C24.6318 52.1004 24.7671 52.0564 24.9049 52.018C25.0426 51.9798 25.1823 51.948 25.3233 51.9223C25.4647 51.8966 25.6069 51.8772 25.7499 51.8644C25.8933 51.8516 26.0371 51.845 26.1809 51.845C26.3247 51.845 26.4685 51.8516 26.6115 51.8644C26.7549 51.8772 26.8971 51.8966 27.0385 51.9223C27.1795 51.948 27.3192 51.9798 27.4569 52.018C27.5947 52.0564 27.73 52.1004 27.8628 52.151C27.9957 52.2012 28.1257 52.2573 28.2529 52.3196C28.3797 52.3815 28.5033 52.449 28.6228 52.5219C28.7423 52.5952 28.8582 52.6733 28.9692 52.7569C29.0806 52.8404 29.1871 52.9287 29.2888 53.0215C29.3904 53.1146 29.4873 53.2121 29.5784 53.3136C29.67 53.4155 29.7554 53.521 29.8356 53.6303C29.9154 53.7398 29.9892 53.8524 30.0572 53.9685C30.1249 54.0844 30.1865 54.2031 30.2415 54.3248C30.2966 54.4465 30.3453 54.57 30.387 54.6961C30.4287 54.8218 30.4635 54.9493 30.4919 55.0783C30.5198 55.2074 30.5409 55.3371 30.5551 55.4683C30.5693 55.5992 30.5762 55.7304 30.5762 55.8619Z" fill="#55524F"/>
<path fill-rule="evenodd" clip-rule="evenodd" d="M26.8404 58.9887H26.1376V60.2312H26.8404V58.9887ZM25.5372 58.9803L24.8936 58.7362L24.3633 59.8797L25.007 60.1238L25.5372 58.9803ZM27.5007 59.9676L28.1485 59.7338L27.6409 58.5819L26.9927 58.8157L27.5007 59.9676ZM24.0858 58.48L23.6054 58.0185L22.5979 58.8685L23.0783 59.3299L24.0858 58.48ZM29.0891 59.213L29.5902 58.7699L28.6224 57.8833L28.1213 58.3264L29.0891 59.213ZM23.2319 57.5556L22.9888 56.9641L21.7034 57.3962L21.9465 57.9877L23.2319 57.5556ZM30.402 57.8122L30.6564 57.2247L29.38 56.7724L29.1251 57.3599L30.402 57.8122ZM22.7717 56.2772L22.7551 55.645L21.3745 55.6743L21.3911 56.3066L22.7717 56.2772ZM30.8557 56.2043L30.8391 55.5721L29.4589 55.6014L29.4751 56.2336L30.8557 56.2043ZM30.8436 54.6763L30.6001 54.0848L29.3151 54.5169L29.5582 55.1084L30.8436 54.6763ZM22.9681 55.0718L23.2225 54.4843L21.9461 54.032L21.6913 54.6195L22.9681 55.0718ZM29.9155 53.1516L29.435 52.6902L28.4272 53.5401L28.908 54.0016L29.9155 53.1516ZM23.5017 53.9543L24.0032 53.5112L23.0354 52.6246L22.5343 53.0677L23.5017 53.9543ZM24.6278 53.1875L25.276 52.9541L24.7684 51.8017L24.1202 52.0356L24.6278 53.1875ZM28.4191 51.9879L27.7758 51.7438L27.2455 52.8877L27.8888 53.1318L28.4191 51.9879ZM26.5066 51.517H25.8038V52.7598H26.5066V51.517Z" fill="#55524F"/>
<path d="M28.1585 55.8286C28.1585 55.8865 28.1552 55.9444 28.1492 56.002C28.1431 56.0599 28.1338 56.117 28.1212 56.1739C28.1091 56.2307 28.0937 56.2867 28.0754 56.3421C28.0572 56.3974 28.0357 56.452 28.0114 56.5056C27.9875 56.5591 27.9604 56.6115 27.9308 56.6624C27.9008 56.7137 27.8684 56.7632 27.8332 56.8116C27.7984 56.8596 27.7607 56.9061 27.7206 56.9509C27.6805 56.9956 27.6379 57.0385 27.5934 57.0795C27.5488 57.1206 27.5022 57.1594 27.4532 57.1961C27.4042 57.2327 27.3536 57.2672 27.3013 57.2994C27.2486 57.3317 27.1944 57.3614 27.1389 57.3888C27.083 57.416 27.0258 57.4409 26.9675 57.4629C26.9092 57.4852 26.85 57.5047 26.7893 57.5215C26.7289 57.5384 26.6677 57.5523 26.6058 57.5637C26.5438 57.575 26.4814 57.5835 26.4186 57.589C26.3558 57.5948 26.2926 57.5978 26.2294 57.5978C26.1662 57.5978 26.1034 57.5948 26.0407 57.589C25.9775 57.5835 25.9151 57.575 25.8531 57.5637C25.7911 57.5523 25.7299 57.5384 25.6696 57.5215C25.6092 57.5047 25.5497 57.4852 25.4913 57.4629C25.433 57.4409 25.3759 57.416 25.3204 57.3888C25.2645 57.3614 25.2106 57.3317 25.158 57.2994C25.1053 57.2672 25.0547 57.2327 25.006 57.1961C24.957 57.1594 24.9104 57.1206 24.8655 57.0795C24.8209 57.0385 24.7784 56.9956 24.7387 56.9509C24.6986 56.9061 24.6609 56.8596 24.6257 56.8116C24.5908 56.7632 24.558 56.7137 24.5284 56.6624C24.4985 56.6115 24.4717 56.5591 24.4474 56.5056C24.4231 56.452 24.4021 56.3974 24.3838 56.3421C24.3652 56.2867 24.3502 56.2307 24.3376 56.1739C24.3255 56.117 24.3162 56.0599 24.3101 56.002C24.3036 55.9444 24.3008 55.8865 24.3008 55.8286C24.3008 55.7707 24.3036 55.7128 24.3101 55.6552C24.3162 55.5977 24.3255 55.5405 24.3376 55.4837C24.3502 55.4269 24.3652 55.3705 24.3838 55.3151C24.4021 55.2598 24.4231 55.2052 24.4474 55.1517C24.4717 55.0981 24.4985 55.0457 24.5284 54.9948C24.558 54.9438 24.5908 54.894 24.6257 54.846C24.6609 54.7976 24.6986 54.7514 24.7387 54.7063C24.7784 54.6616 24.8209 54.6187 24.8655 54.5777C24.9104 54.537 24.957 54.4982 25.006 54.4611C25.0547 54.4245 25.1053 54.39 25.158 54.3578C25.2106 54.3255 25.2645 54.2958 25.3204 54.2687C25.3759 54.2412 25.433 54.2167 25.4913 54.1943C25.5497 54.1723 25.6092 54.1525 25.6696 54.136C25.7299 54.1192 25.7911 54.1049 25.8531 54.0939C25.9151 54.0825 25.9775 54.0741 26.0407 54.0682C26.1034 54.0627 26.1662 54.0598 26.2294 54.0598C26.2926 54.0598 26.3558 54.0627 26.4186 54.0682C26.4814 54.0741 26.5438 54.0825 26.6058 54.0939C26.6677 54.1049 26.7289 54.1192 26.7893 54.136C26.85 54.1525 26.9092 54.1723 26.9675 54.1943C27.0258 54.2167 27.083 54.2412 27.1389 54.2687C27.1944 54.2958 27.2486 54.3255 27.3013 54.3578C27.3536 54.39 27.4042 54.4245 27.4532 54.4611C27.5022 54.4982 27.5488 54.537 27.5934 54.5777C27.6379 54.6187 27.6805 54.6616 27.7206 54.7063C27.7607 54.7514 27.7984 54.7976 27.8332 54.846C27.8684 54.894 27.9008 54.9438 27.9308 54.9948C27.9604 55.0457 27.9875 55.0981 28.0114 55.1517C28.0357 55.2052 28.0572 55.2598 28.0754 55.3151C28.0937 55.3705 28.1091 55.4269 28.1212 55.4837C28.1338 55.5405 28.1431 55.5977 28.1492 55.6552C28.1552 55.7128 28.1585 55.7707 28.1585 55.8286Z" fill="#FFB63F"/>
<path fill-rule="evenodd" clip-rule="evenodd" d="M26.9325 56.7021C27.9368 56.0064 27.2846 54.275 27.6366 54.6196C27.9599 54.9359 28.1583 55.3614 28.1583 55.8287C28.1583 56.8051 27.2939 57.5978 26.2293 57.5978C25.684 57.5978 25.191 57.3897 24.8398 57.0554C24.506 56.7373 26.1159 57.2676 26.9325 56.7021Z" fill="#F29828"/>
<path fill-rule="evenodd" clip-rule="evenodd" d="M26.2435 53.1479C24.6223 53.1479 23.3062 54.3395 23.3062 55.807C23.3062 57.2745 24.6223 58.466 26.2435 58.466C27.8647 58.466 29.1812 57.2745 29.1812 55.807C29.1812 54.3395 27.8647 53.1479 26.2435 53.1479ZM26.2435 53.2377C27.81 53.2377 29.082 54.389 29.082 55.807C29.082 57.225 27.81 58.3762 26.2435 58.3762C24.677 58.3762 23.4054 57.225 23.4054 55.807C23.4054 54.389 24.677 53.2377 26.2435 53.2377Z" fill="#414141"/>
<path d="M41.6474 55.8619C41.6474 55.9935 41.6406 56.1247 41.6264 56.2556C41.6122 56.3864 41.5911 56.5165 41.5632 56.6455C41.5348 56.7746 41.5 56.9021 41.4583 57.0278C41.4165 57.1539 41.3679 57.2774 41.3128 57.3991C41.2577 57.5208 41.1962 57.6395 41.1285 57.7553C41.0605 57.8715 40.9867 57.9841 40.9065 58.0936C40.8267 58.2029 40.7413 58.3084 40.6497 58.4103C40.5586 58.5118 40.4617 58.6093 40.3601 58.7021C40.2584 58.7951 40.1518 58.8835 40.0404 58.967C39.929 59.0502 39.8136 59.1287 39.6941 59.2016C39.5742 59.2749 39.451 59.3423 39.3242 59.4043C39.197 59.4666 39.067 59.5227 38.9341 59.5729C38.8013 59.6235 38.6656 59.6674 38.5278 59.7056C38.3901 59.744 38.2507 59.7759 38.1098 59.8016C37.9684 59.8272 37.8262 59.8463 37.6828 59.8595C37.5398 59.8723 37.396 59.8786 37.2522 59.8786C37.108 59.8786 36.9646 59.8723 36.8212 59.8595C36.6782 59.8463 36.536 59.8272 36.3946 59.8016C36.2536 59.7759 36.1139 59.744 35.9761 59.7056C35.8384 59.6674 35.7031 59.6235 35.5702 59.5729C35.437 59.5227 35.3069 59.4666 35.1801 59.4043C35.0533 59.3423 34.9298 59.2749 34.8103 59.2016C34.6904 59.1287 34.5749 59.0502 34.4639 58.967C34.3525 58.8835 34.246 58.7951 34.1443 58.7021C34.0422 58.6093 33.9458 58.5118 33.8543 58.4103C33.7631 58.3084 33.6777 58.2029 33.5974 58.0936C33.5176 57.9841 33.4435 57.8715 33.3759 57.7553C33.3078 57.6395 33.2466 57.5208 33.1915 57.3991C33.1364 57.2774 33.0878 57.1539 33.0461 57.0278C33.0044 56.9021 32.9691 56.7746 32.9412 56.6455C32.9132 56.5165 32.8922 56.3864 32.878 56.2556C32.8638 56.1247 32.8569 55.9935 32.8569 55.8619C32.8569 55.7304 32.8638 55.5992 32.878 55.4683C32.8922 55.3371 32.9132 55.2074 32.9412 55.0783C32.9691 54.9493 33.0044 54.8218 33.0461 54.6961C33.0878 54.57 33.1364 54.4465 33.1915 54.3248C33.2466 54.2031 33.3078 54.0844 33.3759 53.9685C33.4435 53.8524 33.5176 53.7398 33.5974 53.6303C33.6777 53.521 33.7631 53.4155 33.8547 53.3136C33.9458 53.2121 34.0422 53.1146 34.1443 53.0215C34.246 52.9287 34.3525 52.8404 34.4639 52.7569C34.5749 52.6733 34.6904 52.5952 34.8103 52.5219C34.9298 52.449 35.0533 52.3815 35.1801 52.3196C35.3069 52.2573 35.437 52.2012 35.5702 52.151C35.7031 52.1004 35.8384 52.0564 35.9761 52.018C36.1139 51.9798 36.2536 51.948 36.3946 51.9223C36.536 51.8966 36.6782 51.8772 36.8212 51.8644C36.9646 51.8516 37.108 51.845 37.2522 51.845C37.396 51.845 37.5398 51.8516 37.6828 51.8644C37.8262 51.8772 37.9684 51.8966 38.1098 51.9223C38.2507 51.948 38.3901 51.9798 38.5278 52.018C38.6656 52.0564 38.8013 52.1004 38.9341 52.151C39.067 52.2012 39.197 52.2573 39.3242 52.3196C39.451 52.3815 39.5742 52.449 39.6941 52.5219C39.8136 52.5952 39.929 52.6733 40.0404 52.7569C40.1518 52.8404 40.2584 52.9287 40.3601 53.0215C40.4617 53.1146 40.5586 53.2121 40.6497 53.3136C40.7413 53.4155 40.8267 53.521 40.9065 53.6303C40.9867 53.7398 41.0605 53.8524 41.1285 53.9685C41.1962 54.0844 41.2577 54.2031 41.3128 54.3248C41.3679 54.4465 41.4165 54.57 41.4583 54.6961C41.5 54.8218 41.5348 54.9493 41.5628 55.0783C41.5911 55.2074 41.6122 55.3371 41.6264 55.4683C41.6406 55.5992 41.6474 55.7304 41.6474 55.8619Z" fill="#55524F"/>
<path fill-rule="evenodd" clip-rule="evenodd" d="M37.9108 58.9887H37.2084V60.2312H37.9108V58.9887ZM36.6076 58.9803L35.9644 58.7362L35.4341 59.8797L36.0778 60.1238L36.6076 58.9803ZM38.5711 59.9676L39.2193 59.7338L38.7113 58.5819L38.0635 58.8157L38.5711 59.9676ZM35.1566 58.48L34.6762 58.0185L33.6687 58.8685L34.1491 59.3299L35.1566 58.48ZM40.1599 59.213L40.661 58.7699L39.6932 57.8833L39.1921 58.3264L40.1599 59.213ZM34.3027 57.5556L34.0596 56.9641L32.7742 57.3962L33.0173 57.9877L34.3027 57.5556ZM41.4728 57.8122L41.7272 57.2247L40.4508 56.7724L40.1959 57.3599L41.4728 57.8122ZM33.8425 56.2772L33.8259 55.645L32.4453 55.6743L32.4619 56.3066L33.8425 56.2772ZM41.9265 56.2043L41.9099 55.5721L40.5293 55.6014L40.5459 56.2336L41.9265 56.2043ZM41.9139 54.6763L41.6709 54.0848L40.3859 54.5169L40.629 55.1084L41.9139 54.6763ZM34.0389 55.0718L34.2933 54.4843L33.0169 54.032L32.7621 54.6195L34.0389 55.0718ZM40.9863 53.1516L40.5058 52.6902L39.498 53.5401L39.9784 54.0016L40.9863 53.1516ZM34.5725 53.9543L35.074 53.5112L34.1062 52.6246L33.6047 53.0677L34.5725 53.9543ZM35.6986 53.1875L36.3468 52.9541L35.8388 51.8017L35.191 52.0356L35.6986 53.1875ZM39.4899 51.9879L38.8466 51.7438L38.3163 52.8877L38.9596 53.1318L39.4899 51.9879ZM37.577 51.517H36.8746V52.7598H37.577V51.517Z" fill="#55524F"/>
<path d="M39.2298 55.8286C39.2298 55.8865 39.2265 55.9444 39.2205 56.002C39.214 56.0599 39.2051 56.117 39.1925 56.1739C39.1803 56.2307 39.165 56.2867 39.1467 56.3421C39.1281 56.3974 39.107 56.452 39.0827 56.5056C39.0588 56.5591 39.0317 56.6115 39.0017 56.6624C38.9721 56.7137 38.9397 56.7632 38.9045 56.8116C38.8696 56.8596 38.832 56.9061 38.7919 56.9509C38.7518 56.9956 38.7092 57.0385 38.6647 57.0795C38.6201 57.1206 38.5731 57.1594 38.5245 57.1961C38.4755 57.2327 38.4248 57.2672 38.3722 57.2994C38.3199 57.3317 38.2656 57.3614 38.2101 57.3888C38.1542 57.416 38.0971 57.4409 38.0388 57.4629C37.9805 57.4852 37.9213 57.5047 37.8606 57.5215C37.8002 57.5384 37.739 57.5523 37.677 57.5637C37.6151 57.575 37.5527 57.5835 37.4899 57.589C37.4271 57.5948 37.3639 57.5978 37.3007 57.5978C37.2375 57.5978 37.1747 57.5948 37.1115 57.589C37.0487 57.5835 36.9864 57.575 36.9244 57.5637C36.8624 57.5523 36.8012 57.5384 36.7409 57.5215C36.6805 57.5047 36.621 57.4852 36.5626 57.4629C36.5043 57.4409 36.4472 57.416 36.3913 57.3888C36.3358 57.3614 36.2815 57.3317 36.2292 57.2994C36.1766 57.2672 36.1259 57.2327 36.0769 57.1961C36.0283 57.1594 35.9813 57.1206 35.9368 57.0795C35.8922 57.0385 35.8497 56.9956 35.8096 56.9509C35.7695 56.9061 35.7322 56.8596 35.697 56.8116C35.6617 56.7632 35.6293 56.7137 35.5997 56.6624C35.5698 56.6115 35.543 56.5591 35.5187 56.5056C35.4944 56.452 35.4733 56.3974 35.4551 56.3421C35.4365 56.2867 35.4211 56.2307 35.4089 56.1739C35.3968 56.117 35.3875 56.0599 35.381 56.002C35.3749 55.9444 35.3721 55.8865 35.3721 55.8286C35.3721 55.7707 35.3749 55.7128 35.381 55.6552C35.3875 55.5977 35.3968 55.5405 35.4089 55.4837C35.4211 55.4269 35.4365 55.3705 35.4551 55.3151C35.4733 55.2598 35.4944 55.2052 35.5187 55.1517C35.543 55.0981 35.5698 55.0457 35.5997 54.9948C35.6293 54.9438 35.6617 54.894 35.697 54.846C35.7322 54.7976 35.7695 54.7514 35.8096 54.7063C35.8497 54.6616 35.8922 54.6187 35.9368 54.5777C35.9813 54.537 36.0283 54.4982 36.0769 54.4611C36.1259 54.4245 36.1766 54.39 36.2292 54.3578C36.2815 54.3255 36.3358 54.2958 36.3913 54.2687C36.4472 54.2412 36.5043 54.2167 36.5626 54.1943C36.621 54.1723 36.6805 54.1525 36.7409 54.136C36.8012 54.1192 36.8624 54.1049 36.9244 54.0939C36.9864 54.0825 37.0487 54.0741 37.1115 54.0682C37.1747 54.0627 37.2375 54.0598 37.3007 54.0598C37.3639 54.0598 37.4271 54.0627 37.4899 54.0682C37.5527 54.0741 37.6151 54.0825 37.677 54.0939C37.739 54.1049 37.8002 54.1192 37.8606 54.136C37.9213 54.1525 37.9805 54.1723 38.0388 54.1943C38.0971 54.2167 38.1542 54.2412 38.2101 54.2687C38.2656 54.2958 38.3199 54.3255 38.3722 54.3578C38.4248 54.39 38.4755 54.4245 38.5245 54.4611C38.5731 54.4982 38.6201 54.537 38.6647 54.5777C38.7092 54.6187 38.7518 54.6616 38.7919 54.7063C38.832 54.7514 38.8696 54.7976 38.9045 54.846C38.9397 54.894 38.9721 54.9438 39.0017 54.9948C39.0317 55.0457 39.0588 55.0981 39.0827 55.1517C39.107 55.2052 39.1281 55.2598 39.1467 55.3151C39.165 55.3705 39.1803 55.4269 39.1925 55.4837C39.2051 55.5405 39.214 55.5977 39.2205 55.6552C39.2265 55.7128 39.2298 55.7707 39.2298 55.8286Z" fill="#FFB63F"/>
<path fill-rule="evenodd" clip-rule="evenodd" d="M38.0034 56.7021C39.0081 56.0064 38.3559 54.275 38.7079 54.6196C39.0311 54.9359 39.2296 55.3614 39.2296 55.8287C39.2296 56.8051 38.3652 57.5978 37.3006 57.5978C36.7549 57.5978 36.2623 57.3897 35.9111 57.0554C35.5773 56.7373 37.1872 57.2676 38.0034 56.7021Z" fill="#F29828"/>
<path fill-rule="evenodd" clip-rule="evenodd" d="M37.3147 53.1479C35.6935 53.1479 34.377 54.3395 34.377 55.807C34.377 57.2745 35.6935 58.466 37.3147 58.466C38.9359 58.466 40.2524 57.2745 40.2524 55.807C40.2524 54.3395 38.9359 53.1479 37.3147 53.1479ZM37.3147 53.2377C38.8812 53.2377 40.1532 54.389 40.1532 55.807C40.1532 57.225 38.8812 58.3762 37.3147 58.3762C35.7482 58.3762 34.4766 57.225 34.4766 55.807C34.4766 54.389 35.7482 53.2377 37.3147 53.2377Z" fill="#414141"/>
<path fill-rule="evenodd" clip-rule="evenodd" d="M20.4927 54.7027C20.4927 54.7027 21.3685 51.6544 23.6885 50.685C26.7113 49.422 29.5242 51.661 29.5242 51.661C30.3162 51.1087 30.6702 50.2877 29.5935 49.5715C29.5935 49.5715 26.6144 47.342 22.8495 48.8187C19.7258 50.044 18.7974 53.5005 18.7974 53.5005C19.023 54.5143 19.6541 54.7958 20.4927 54.7027Z" fill="#55524F"/>
<path fill-rule="evenodd" clip-rule="evenodd" d="M56.0099 52.0495L58.0139 50.199L74.3128 50.3877L76.4825 52.4992C77.5001 52.2089 77.9351 51.9414 77.6289 51.0442C77.3858 50.3324 75.1931 48.7722 75.1931 48.7722L57.0238 48.5431L54.6216 50.3954C54.524 51.4305 55.096 51.8875 56.0099 52.0495Z" fill="#55524F"/>
<path d="M64.7099 55.7733C64.7099 55.9049 64.7031 56.0361 64.6889 56.167C64.6747 56.2982 64.6536 56.4279 64.6257 56.5569C64.5973 56.6859 64.5625 56.8135 64.5208 56.9396C64.479 57.0653 64.4304 57.1892 64.3753 57.3105C64.3202 57.4322 64.2587 57.5509 64.191 57.6667C64.123 57.7829 64.0492 57.8958 63.969 58.005C63.8892 58.1142 63.8038 58.2198 63.7122 58.3217C63.6211 58.4232 63.5242 58.5207 63.4226 58.6138C63.3209 58.7069 63.2143 58.7949 63.1029 58.8784C62.9915 58.962 62.8761 59.04 62.7566 59.1133C62.6367 59.1863 62.5135 59.2537 62.3867 59.316C62.2595 59.378 62.1295 59.434 61.9966 59.4843C61.8638 59.5348 61.7285 59.5792 61.5903 59.6173C61.4526 59.6554 61.3132 59.6873 61.1723 59.713C61.0309 59.7386 60.8887 59.758 60.7453 59.7709C60.6023 59.7837 60.4585 59.7903 60.3147 59.7903C60.1705 59.7903 60.0271 59.7837 59.8837 59.7709C59.7407 59.758 59.5985 59.7386 59.4571 59.713C59.3161 59.6873 59.1764 59.6554 59.0386 59.6173C58.9009 59.5792 58.7656 59.5348 58.6327 59.4843C58.4995 59.434 58.3694 59.378 58.2426 59.316C58.1158 59.2537 57.9923 59.1863 57.8728 59.1133C57.7529 59.04 57.6374 58.962 57.5264 58.8784C57.415 58.7949 57.3085 58.7069 57.2068 58.6138C57.1047 58.5207 57.0083 58.4232 56.9172 58.3217C56.8256 58.2198 56.7402 58.1142 56.6599 58.005C56.5801 57.8958 56.506 57.7829 56.4384 57.6667C56.3703 57.5509 56.3091 57.4322 56.254 57.3105C56.1989 57.1892 56.1503 57.0653 56.1086 56.9396C56.0669 56.8135 56.0316 56.6859 56.0037 56.5569C55.9757 56.4279 55.9547 56.2982 55.9405 56.167C55.9263 56.0361 55.9194 55.9049 55.9194 55.7733C55.9194 55.6417 55.9263 55.5105 55.9405 55.3797C55.9547 55.2488 55.9757 55.1187 56.0037 54.9897C56.0316 54.8607 56.0669 54.7332 56.1086 54.6074C56.1503 54.4814 56.1989 54.3579 56.254 54.2362C56.3091 54.1149 56.3703 53.9957 56.4384 53.8799C56.506 53.7637 56.5801 53.6512 56.6599 53.5416C56.7402 53.4324 56.8256 53.3269 56.9172 53.2253C57.0083 53.1234 57.1047 53.0259 57.2068 52.9332C57.3085 52.8401 57.415 52.7518 57.5264 52.6682C57.6374 52.585 57.7529 52.5066 57.8728 52.4337C57.9923 52.3604 58.1158 52.2929 58.2426 52.231C58.3694 52.169 58.4995 52.1126 58.6327 52.0624C58.7656 52.0122 58.9009 51.9678 59.0386 51.9297C59.1764 51.8912 59.3161 51.8593 59.4571 51.8337C59.5985 51.808 59.7407 51.789 59.8837 51.7758C60.0271 51.7629 60.1705 51.7567 60.3147 51.7567C60.4585 51.7567 60.6023 51.7629 60.7453 51.7758C60.8887 51.789 61.0309 51.808 61.1723 51.8337C61.3132 51.8593 61.4526 51.8912 61.5903 51.9297C61.7285 51.9678 61.8638 52.0122 61.9966 52.0624C62.1295 52.1126 62.2595 52.169 62.3867 52.231C62.5135 52.2929 62.6367 52.3604 62.7566 52.4337C62.8761 52.5066 62.9915 52.585 63.1029 52.6682C63.2143 52.7518 63.3209 52.8401 63.4226 52.9332C63.5242 53.0259 63.6211 53.1234 63.7122 53.2253C63.8038 53.3269 63.8892 53.4324 63.969 53.5416C64.0492 53.6512 64.123 53.7637 64.191 53.8799C64.2587 53.9957 64.3202 54.1149 64.3753 54.2362C64.4304 54.3579 64.479 54.4814 64.5208 54.6074C64.5625 54.7332 64.5973 54.8607 64.6257 54.9897C64.6536 55.1187 64.6747 55.2488 64.6889 55.3797C64.7031 55.5105 64.7099 55.6417 64.7099 55.7733Z" fill="#55524F"/>
<path fill-rule="evenodd" clip-rule="evenodd" d="M60.9737 58.8999H60.2709V60.1428H60.9737V58.8999ZM59.6701 58.8915L59.0269 58.6474L58.4966 59.7909L59.1403 60.035L59.6701 58.8915ZM61.6336 59.8789L62.2818 59.6451L61.7738 58.4931L61.126 58.727L61.6336 59.8789ZM58.2191 58.3912L57.7387 57.9298L56.7312 58.7797L57.2116 59.2412L58.2191 58.3912ZM63.2224 59.1242L63.7235 58.6811L62.7557 57.7945L62.2546 58.2377L63.2224 59.1242ZM57.3652 57.4669L57.1221 56.8753L55.8367 57.3074L56.0798 57.899L57.3652 57.4669ZM64.5353 57.7238L64.7897 57.1363L63.5133 56.6836L63.2584 57.2712L64.5353 57.7238ZM56.905 56.1889L56.8884 55.5566L55.5078 55.5856L55.5244 56.2178L56.905 56.1889ZM64.989 56.1155L64.9724 55.4837L63.5918 55.5126L63.6084 56.1449L64.989 56.1155ZM64.9764 54.5876L64.7334 53.996L63.4484 54.4281L63.6915 55.0197L64.9764 54.5876ZM57.1014 54.9834L57.3558 54.3959L56.0794 53.9432L55.8246 54.5308L57.1014 54.9834ZM64.0488 53.0629L63.5683 52.6014L62.5605 53.4514L63.0409 53.9128L64.0488 53.0629ZM57.635 53.8655L58.1365 53.4224L57.1687 52.5358L56.6672 52.9789L57.635 53.8655ZM58.7611 53.0992L59.4093 52.8653L58.9013 51.7134L58.2535 51.9468L58.7611 53.0992ZM62.5524 51.8992L61.9091 51.6555L61.3788 52.799L62.0221 53.0431L62.5524 51.8992ZM60.6395 51.4282H59.9371V52.6711H60.6395V51.4282Z" fill="#55524F"/>
<path d="M62.2917 55.74C62.2917 55.7979 62.2885 55.8558 62.2824 55.9133C62.2759 55.9712 62.267 56.0284 62.2544 56.0852C62.2423 56.142 62.2269 56.1981 62.2087 56.2535C62.19 56.3092 62.169 56.3634 62.1446 56.4169C62.1203 56.4704 62.0936 56.5229 62.0636 56.5742C62.0341 56.6251 62.0016 56.6746 61.9664 56.723C61.9316 56.771 61.8939 56.8175 61.8538 56.8622C61.8137 56.907 61.7712 56.9498 61.7266 56.9909C61.682 57.0319 61.635 57.0708 61.5864 57.1074C61.5374 57.1445 61.4868 57.1789 61.4341 57.2108C61.3819 57.243 61.3276 57.2727 61.2721 57.3002C61.2162 57.3273 61.1591 57.3523 61.1007 57.3743C61.0424 57.3966 60.9828 57.416 60.9225 57.4329C60.8621 57.4498 60.801 57.4637 60.739 57.475C60.677 57.4864 60.6146 57.4948 60.5518 57.5007C60.489 57.5062 60.4258 57.5091 60.3626 57.5091C60.2995 57.5091 60.2367 57.5062 60.1735 57.5007C60.1107 57.4948 60.0483 57.4864 59.9863 57.475C59.9243 57.4637 59.8632 57.4498 59.8028 57.4329C59.7424 57.416 59.6829 57.3966 59.6246 57.3743C59.5662 57.3523 59.5091 57.3273 59.4532 57.3002C59.3977 57.2727 59.3434 57.243 59.2912 57.2108C59.2385 57.1789 59.1879 57.1445 59.1389 57.1074C59.0902 57.0708 59.0433 57.0319 58.9987 56.9909C58.9541 56.9498 58.9116 56.907 58.8715 56.8622C58.8314 56.8175 58.7941 56.771 58.7589 56.723C58.7236 56.6746 58.6912 56.6251 58.6617 56.5742C58.6317 56.5229 58.6049 56.4704 58.5806 56.4169C58.5563 56.3634 58.5353 56.3092 58.517 56.2535C58.4984 56.1981 58.483 56.142 58.4709 56.0852C58.4587 56.0284 58.4494 55.9712 58.4429 55.9133C58.4368 55.8558 58.4336 55.7979 58.4336 55.74C58.4336 55.6821 58.4368 55.6245 58.4429 55.5666C58.4494 55.5091 58.4587 55.4519 58.4709 55.3951C58.483 55.3383 58.4984 55.2822 58.517 55.2265C58.5353 55.1712 58.5563 55.1165 58.5806 55.063C58.6049 55.0095 58.6317 54.9575 58.6617 54.9062C58.6912 54.8552 58.7236 54.8054 58.7589 54.7574C58.7941 54.7093 58.8314 54.6628 58.8715 54.6181C58.9116 54.573 58.9541 54.5301 58.9987 54.4894C59.0433 54.4484 59.0902 54.4095 59.1389 54.3729C59.1879 54.3359 59.2385 54.3014 59.2912 54.2692C59.3434 54.2373 59.3977 54.2072 59.4532 54.1801C59.5091 54.1526 59.5662 54.1281 59.6246 54.1057C59.6829 54.0837 59.7424 54.0643 59.8028 54.0474C59.8632 54.0306 59.9243 54.0166 59.9863 54.0053C60.0483 53.9939 60.1107 53.9855 60.1735 53.9796C60.2367 53.9741 60.2995 53.9712 60.3626 53.9712C60.4258 53.9712 60.489 53.9741 60.5518 53.9796C60.6146 53.9855 60.677 53.9939 60.739 54.0053C60.801 54.0166 60.8621 54.0306 60.9225 54.0474C60.9828 54.0643 61.0424 54.0837 61.1007 54.1057C61.1591 54.1281 61.2162 54.1526 61.2721 54.1801C61.3276 54.2072 61.3819 54.2373 61.4341 54.2692C61.4868 54.3014 61.5374 54.3359 61.5864 54.3729C61.635 54.4095 61.682 54.4484 61.7266 54.4894C61.7712 54.5301 61.8137 54.573 61.8538 54.6181C61.8939 54.6628 61.9316 54.7093 61.9664 54.7574C62.0016 54.8054 62.0341 54.8552 62.0636 54.9062C62.0936 54.9575 62.1203 55.0095 62.1446 55.063C62.169 55.1165 62.19 55.1712 62.2087 55.2265C62.2269 55.2822 62.2423 55.3383 62.2544 55.3951C62.267 55.4519 62.2759 55.5091 62.2824 55.5666C62.2885 55.6245 62.2917 55.6821 62.2917 55.74Z" fill="#FFB63F"/>
<path fill-rule="evenodd" clip-rule="evenodd" d="M61.0659 56.6137C62.0706 55.9181 61.4184 54.1863 61.7704 54.5308C62.0936 54.8471 62.2921 55.2726 62.2921 55.7399C62.2921 56.7163 61.4277 57.5091 60.3631 57.5091C59.8174 57.5091 59.3248 57.3009 58.9736 56.9666C58.6398 56.6485 60.2497 57.1789 61.0659 56.6137Z" fill="#F29828"/>
<path fill-rule="evenodd" clip-rule="evenodd" d="M60.3773 53.0592C58.7561 53.0592 57.4399 54.2507 57.4399 55.7183C57.4399 57.1858 58.7561 58.3773 60.3773 58.3773C61.9984 58.3773 63.315 57.1858 63.315 55.7183C63.315 54.2507 61.9984 53.0592 60.3773 53.0592ZM60.3773 53.149C61.9438 53.149 63.2158 54.3002 63.2158 55.7183C63.2158 57.1363 61.9438 58.2875 60.3773 58.2875C58.8108 58.2875 57.5392 57.1363 57.5392 55.7183C57.5392 54.3002 58.8108 53.149 60.3773 53.149Z" fill="#414141"/>
<path d="M75.2817 55.7733C75.2817 55.9049 75.2748 56.0361 75.2607 56.167C75.2465 56.2982 75.2254 56.4279 75.1975 56.5569C75.1695 56.6859 75.1343 56.8135 75.0925 56.9396C75.0508 57.0653 75.0022 57.1892 74.9471 57.3105C74.892 57.4322 74.8309 57.5509 74.7628 57.6667C74.6951 57.7829 74.621 57.8958 74.5412 58.005C74.461 58.1142 74.3755 58.2198 74.284 58.3217C74.1928 58.4232 74.0964 58.5207 73.9943 58.6138C73.8927 58.7069 73.7861 58.7949 73.6747 58.8784C73.5637 58.962 73.4483 59.04 73.3284 59.1133C73.2089 59.1863 73.0853 59.2537 72.9585 59.316C72.8313 59.378 72.7017 59.434 72.5684 59.4843C72.4355 59.5348 72.3002 59.5792 72.1625 59.6173C72.0248 59.6554 71.885 59.6873 71.744 59.713C71.6027 59.7386 71.4605 59.758 71.3175 59.7709C71.1741 59.7837 71.0307 59.7903 70.8865 59.7903C70.7427 59.7903 70.5989 59.7837 70.4559 59.7709C70.3124 59.758 70.1703 59.7386 70.0289 59.713C69.8879 59.6873 69.7486 59.6554 69.6108 59.6173C69.4727 59.5792 69.3374 59.5348 69.2045 59.4843C69.0717 59.434 68.9416 59.378 68.8144 59.316C68.6876 59.2537 68.5645 59.1863 68.4446 59.1133C68.3251 59.04 68.2096 58.962 68.0982 58.8784C67.9868 58.7949 67.8803 58.7069 67.7786 58.6138C67.6769 58.5207 67.5801 58.4232 67.489 58.3217C67.3974 58.2198 67.3119 58.1142 67.2321 58.005C67.1519 57.8958 67.0782 57.7829 67.0101 57.6667C66.9425 57.5509 66.8809 57.4322 66.8258 57.3105C66.7707 57.1892 66.7221 57.0653 66.6804 56.9396C66.6387 56.8135 66.6038 56.6859 66.5755 56.5569C66.5475 56.4279 66.5265 56.2982 66.5123 56.167C66.4981 56.0361 66.4912 55.9049 66.4912 55.7733C66.4912 55.6417 66.4981 55.5105 66.5123 55.3797C66.5265 55.2488 66.5475 55.1187 66.5755 54.9897C66.6038 54.8607 66.6387 54.7332 66.6804 54.6074C66.7221 54.4814 66.7707 54.3579 66.8258 54.2362C66.8809 54.1149 66.9425 53.9957 67.0101 53.8799C67.0782 53.7637 67.1519 53.6512 67.2321 53.5416C67.3119 53.4324 67.3974 53.3269 67.489 53.2253C67.5801 53.1234 67.6769 53.0259 67.7786 52.9332C67.8803 52.8401 67.9868 52.7518 68.0982 52.6682C68.2096 52.585 68.3251 52.5066 68.4446 52.4337C68.5645 52.3604 68.6876 52.2929 68.8144 52.231C68.9416 52.169 69.0717 52.1126 69.2045 52.0624C69.3374 52.0122 69.4727 51.9678 69.6108 51.9297C69.7486 51.8912 69.8879 51.8593 70.0289 51.8337C70.1703 51.808 70.3124 51.789 70.4559 51.7758C70.5989 51.7629 70.7427 51.7567 70.8865 51.7567C71.0307 51.7567 71.1741 51.7629 71.3175 51.7758C71.4605 51.789 71.6027 51.808 71.744 51.8337C71.885 51.8593 72.0248 51.8912 72.1625 51.9297C72.3002 51.9678 72.4355 52.0122 72.5684 52.0624C72.7017 52.1126 72.8313 52.169 72.9585 52.231C73.0853 52.2929 73.2089 52.3604 73.3284 52.4337C73.4483 52.5066 73.5637 52.585 73.6747 52.6682C73.7861 52.7518 73.8927 52.8401 73.9943 52.9332C74.0964 53.0259 74.1928 53.1234 74.284 53.2253C74.3755 53.3269 74.461 53.4324 74.5412 53.5416C74.621 53.6512 74.6951 53.7637 74.7628 53.8799C74.8309 53.9957 74.892 54.1149 74.9471 54.2362C75.0022 54.3579 75.0508 54.4814 75.0925 54.6074C75.1343 54.7332 75.1695 54.8607 75.1975 54.9897C75.2254 55.1187 75.2465 55.2488 75.2607 55.3797C75.2748 55.5105 75.2817 55.6417 75.2817 55.7733Z" fill="#55524F"/>
<path fill-rule="evenodd" clip-rule="evenodd" d="M71.5455 58.8999H70.8427V60.1428H71.5455V58.8999ZM70.2423 58.8915L69.5986 58.6474L69.0684 59.7909L69.7121 60.035L70.2423 58.8915ZM72.2058 59.8789L72.854 59.6451L72.346 58.4931L71.6978 58.727L72.2058 59.8789ZM68.7909 58.3912L68.3104 57.9298L67.303 58.7797L67.7834 59.2412L68.7909 58.3912ZM73.7942 59.1242L74.2957 58.6811L73.3279 57.7945L72.8264 58.2377L73.7942 59.1242ZM67.9369 57.4669L67.6939 56.8753L66.4085 57.3074L66.652 57.899L67.9369 57.4669ZM75.1071 57.7238L75.3619 57.1363L74.085 56.6836L73.8306 57.2712L75.1071 57.7238ZM67.4768 56.1889L67.4601 55.5566L66.0796 55.5856L66.0962 56.2178L67.4768 56.1889ZM75.5608 56.1155L75.5446 55.4837L74.164 55.5126L74.1802 56.1449L75.5608 56.1155ZM75.5486 54.5876L75.3056 53.996L74.0202 54.4281L74.2633 55.0197L75.5486 54.5876ZM67.6732 54.9834L67.928 54.3959L66.6512 53.9432L66.3968 54.5308L67.6732 54.9834ZM74.6206 53.0629L74.1401 52.6014L73.1327 53.4514L73.6131 53.9128L74.6206 53.0629ZM68.2071 53.8655L68.7082 53.4224L67.7405 52.5358L67.2394 52.9789L68.2071 53.8655ZM69.3333 53.0992L69.981 52.8653L69.4735 51.7134L68.8253 51.9468L69.3333 53.0992ZM73.1242 51.8992L72.4809 51.6555L71.9506 52.799L72.5943 53.0431L73.1242 51.8992ZM71.2117 51.4282H70.5089V52.6711H71.2117V51.4282Z" fill="#55524F"/>
<path d="M72.8636 55.74C72.8636 55.7979 72.8603 55.8558 72.8542 55.9133C72.8482 55.9712 72.8388 56.0284 72.8263 56.0852C72.8141 56.142 72.7987 56.1981 72.7805 56.2535C72.7623 56.3092 72.7408 56.3634 72.7169 56.4169C72.6926 56.4704 72.6655 56.5229 72.6359 56.5742C72.6059 56.6251 72.5735 56.6746 72.5387 56.723C72.5034 56.771 72.4658 56.8175 72.4257 56.8622C72.3855 56.907 72.3434 56.9498 72.2985 56.9909C72.2539 57.0319 72.2073 57.0708 72.1583 57.1074C72.1097 57.1445 72.0586 57.1789 72.0064 57.2108C71.9537 57.243 71.8998 57.2727 71.8439 57.3002C71.788 57.3273 71.7313 57.3523 71.673 57.3743C71.6147 57.3966 71.5551 57.416 71.4947 57.4329C71.434 57.4498 71.3728 57.4637 71.3108 57.475C71.2489 57.4864 71.1865 57.4948 71.1237 57.5007C71.0609 57.5062 70.9977 57.5091 70.9345 57.5091C70.8713 57.5091 70.8085 57.5062 70.7457 57.5007C70.6829 57.4948 70.6202 57.4864 70.5582 57.475C70.4966 57.4637 70.435 57.4498 70.3747 57.4329C70.3143 57.416 70.2548 57.3966 70.1964 57.3743C70.1381 57.3523 70.081 57.3273 70.0255 57.3002C69.9696 57.2727 69.9157 57.243 69.863 57.2108C69.8104 57.1789 69.7597 57.1445 69.7111 57.1074C69.6621 57.0708 69.6155 57.0319 69.5706 56.9909C69.526 56.9498 69.4839 56.907 69.4438 56.8622C69.4037 56.8175 69.366 56.771 69.3307 56.723C69.2959 56.6746 69.2635 56.6251 69.2335 56.5742C69.2039 56.5229 69.1768 56.4704 69.1525 56.4169C69.1286 56.3634 69.1071 56.3092 69.0889 56.2535C69.0707 56.1981 69.0553 56.142 69.0427 56.0852C69.0306 56.0284 69.0213 55.9712 69.0152 55.9133C69.0087 55.8558 69.0059 55.7979 69.0059 55.74C69.0059 55.6821 69.0087 55.6245 69.0152 55.5666C69.0213 55.5091 69.0306 55.4519 69.0427 55.3951C69.0553 55.3383 69.0707 55.2822 69.0889 55.2265C69.1071 55.1712 69.1286 55.1165 69.1525 55.063C69.1768 55.0095 69.2039 54.9575 69.2335 54.9062C69.2635 54.8552 69.2959 54.8054 69.3307 54.7574C69.366 54.7093 69.4037 54.6628 69.4438 54.6181C69.4839 54.573 69.526 54.5301 69.5706 54.4894C69.6155 54.4484 69.6621 54.4095 69.7111 54.3729C69.7597 54.3359 69.8104 54.3014 69.863 54.2692C69.9157 54.2373 69.9696 54.2072 70.0255 54.1801C70.081 54.1526 70.1381 54.1281 70.1964 54.1057C70.2548 54.0837 70.3143 54.0643 70.3747 54.0474C70.435 54.0306 70.4966 54.0166 70.5582 54.0053C70.6202 53.9939 70.6829 53.9855 70.7457 53.9796C70.8085 53.9741 70.8713 53.9712 70.9345 53.9712C70.9977 53.9712 71.0609 53.9741 71.1237 53.9796C71.1865 53.9855 71.2489 53.9939 71.3108 54.0053C71.3728 54.0166 71.434 54.0306 71.4947 54.0474C71.5551 54.0643 71.6147 54.0837 71.673 54.1057C71.7313 54.1281 71.788 54.1526 71.8439 54.1801C71.8998 54.2072 71.9537 54.2373 72.0064 54.2692C72.0586 54.3014 72.1097 54.3359 72.1583 54.3729C72.2073 54.4095 72.2539 54.4484 72.2985 54.4894C72.3434 54.5301 72.3855 54.573 72.4257 54.6181C72.4658 54.6628 72.5034 54.7093 72.5387 54.7574C72.5735 54.8054 72.6059 54.8552 72.6359 54.9062C72.6655 54.9575 72.6926 55.0095 72.7169 55.063C72.7408 55.1165 72.7623 55.1712 72.7805 55.2265C72.7987 55.2822 72.8141 55.3383 72.8263 55.3951C72.8388 55.4519 72.8482 55.5091 72.8542 55.5666C72.8603 55.6245 72.8636 55.6821 72.8636 55.74Z" fill="#FFB63F"/>
<path fill-rule="evenodd" clip-rule="evenodd" d="M71.6378 56.6137C72.642 55.9181 71.9898 54.1863 72.3419 54.5308C72.6655 54.8471 72.8636 55.2726 72.8636 55.7399C72.8636 56.7163 71.9991 57.5091 70.9346 57.5091C70.3893 57.5091 69.8963 57.3009 69.5455 56.9666C69.2113 56.6485 70.8211 57.1789 71.6378 56.6137Z" fill="#F29828"/>
<path fill-rule="evenodd" clip-rule="evenodd" d="M70.9486 53.0592C69.3274 53.0592 68.0112 54.2507 68.0112 55.7183C68.0112 57.1858 69.3274 58.3773 70.9486 58.3773C72.5701 58.3773 73.8863 57.1858 73.8863 55.7183C73.8863 54.2507 72.5701 53.0592 70.9486 53.0592ZM70.9486 53.149C72.515 53.149 73.787 54.3002 73.787 55.7183C73.787 57.1363 72.515 58.2875 70.9486 58.2875C69.3825 58.2875 68.1105 57.1363 68.1105 55.7183C68.1105 54.3002 69.3825 53.149 70.9486 53.149Z" fill="#414141"/>
<path fill-rule="evenodd" clip-rule="evenodd" d="M43.2622 50.5365H53.1951V55.8733H43.2622V50.5365Z" fill="#55524F"/>
<path fill-rule="evenodd" clip-rule="evenodd" d="M45.8481 50.5365H46.6794V55.8733H45.8481V50.5365Z" fill="#414141"/>
<path fill-rule="evenodd" clip-rule="evenodd" d="M49.4268 50.5365H50.258V55.8733H49.4268V50.5365Z" fill="#414141"/>
</svg>
