<svg width="117" height="117" viewBox="0 0 117 117" fill="none" xmlns="http://www.w3.org/2000/svg">
<path d="M22.8878 43.1211C22.8629 43.1939 22.4414 44.2699 22.4375 45.7415C22.4375 46.3683 22.5171 47.0714 22.7574 47.7902C22.938 48.3285 23.2105 48.8747 23.6021 49.3876C24.1878 50.1583 25.0386 50.8416 26.1744 51.3392C27.3114 51.8386 28.7293 52.163 30.5033 52.2663C31.2012 52.3069 31.8828 52.3255 32.5497 52.3255C36.8882 52.3244 40.6257 51.5316 44.6312 50.7649C48.6401 49.9964 52.9322 49.2425 58.4967 49.2414C64.0606 49.2425 68.3528 49.9958 72.3628 50.7649C76.3678 51.5316 80.1058 52.3244 84.4437 52.3255C85.1112 52.3255 85.7916 52.3069 86.4896 52.2657C88.0672 52.1737 89.3621 51.9074 90.4296 51.4989C91.2297 51.1925 91.9012 50.8043 92.4513 50.3547C93.279 49.6815 93.8224 48.869 94.1378 48.0593C94.4549 47.2485 94.5553 46.4462 94.5559 45.7409C94.552 44.2699 94.1305 43.1939 94.1051 43.1211C93.9793 42.7956 93.7011 42.5541 93.3614 42.4751C93.3439 42.4711 88.764 41.4059 82.123 40.3395C75.4808 39.2736 66.7814 38.2055 58.4967 38.205C50.212 38.2055 41.5126 39.2742 34.8704 40.3395C28.2294 41.4059 23.6495 42.4711 23.632 42.4751C23.2923 42.5541 23.0141 42.7956 22.8883 43.1211H22.8878ZM35.8274 42.3228C42.3155 41.3009 50.6448 40.3129 58.4973 40.3135C66.6025 40.3129 75.2161 41.3658 81.7889 42.4215C85.0762 42.9496 87.8539 43.4772 89.8079 43.8727C90.7851 44.0702 91.5559 44.2349 92.0817 44.3495C92.1545 44.3659 92.2222 44.3805 92.2854 44.3941C92.3655 44.7366 92.4491 45.215 92.4468 45.7409C92.4468 46.1895 92.3887 46.6651 92.2363 47.1199C92.1212 47.4618 91.9553 47.793 91.7144 48.109C91.3522 48.5818 90.8201 49.0332 89.9704 49.409C89.1217 49.7825 87.9515 50.0691 86.3677 50.1611C85.7115 50.1995 85.0722 50.217 84.4442 50.217C80.3716 50.2181 76.796 49.4694 72.76 48.6941C68.7291 47.9205 64.2525 47.1323 58.4973 47.1334C52.7409 47.1323 48.2648 47.9205 44.2339 48.6941C40.1985 49.4694 36.623 50.2181 32.5497 50.217C31.9223 50.217 31.2819 50.1995 30.6263 50.1611C29.2185 50.0793 28.1374 49.844 27.3187 49.5297C26.7048 49.2945 26.2376 49.0168 25.8765 48.7218C25.336 48.2783 25.0206 47.7975 24.8197 47.2897C24.6205 46.7842 24.5466 46.2459 24.5472 45.7415C24.5466 45.2184 24.6267 44.7371 24.7074 44.3952C26.1981 44.0662 30.3605 43.1838 35.8274 42.3233V42.3228Z" fill="#2B2A63"/>
<path d="M30.5825 88.5259C30.1542 88.3809 29.682 88.5242 29.4066 88.883C24.2552 95.6048 21.3302 103.097 19.9512 107.279C19.8457 107.6 19.9004 107.953 20.0984 108.227C20.297 108.501 20.6147 108.663 20.9527 108.663H30.2434C30.521 108.663 30.793 108.551 30.9893 108.354C31.1857 108.158 31.298 107.887 31.298 107.609V89.5246C31.298 89.0726 31.0108 88.6715 30.5825 88.5264V88.5259ZM29.1894 106.554H22.4276C23.687 102.996 25.8644 97.8155 29.1894 92.8169V106.554Z" fill="#2B2A63"/>
<path d="M75.9122 78.8188C75.2278 78.4774 74.5337 78.2026 73.8657 77.9369C73.5576 77.8144 73.2146 77.8438 72.9313 78.0147C68.7035 80.5701 63.7811 82.0654 58.4987 82.0659C53.2146 82.0654 48.2906 80.5696 44.0627 78.0136C43.7795 77.8426 43.4364 77.8138 43.1289 77.9357C42.4603 78.2009 41.7663 78.4757 41.0824 78.8171C40.7242 78.9959 40.499 79.3604 40.499 79.7605V90.4426C40.499 90.7202 40.6113 90.9916 40.8077 91.1879C41.004 91.3843 41.276 91.4971 41.5536 91.4971H75.4405C75.7186 91.4971 75.99 91.3843 76.1864 91.1879C76.3827 90.9916 76.495 90.7202 76.495 90.4426V79.7622C76.495 79.3621 76.2699 78.9982 75.9122 78.8188ZM42.6081 80.4319C42.8739 80.3145 43.1475 80.2 43.4302 80.086C47.8634 82.6646 53.0036 84.175 58.4987 84.1745C63.9916 84.175 69.1306 82.6651 73.5633 80.0872C73.8459 80.2006 74.1196 80.3157 74.3859 80.4336V89.388H42.6076V80.4319H42.6081Z" fill="#2B2A63"/>
<mask id="mask0_175_574" style="mask-type:luminance" maskUnits="userSpaceOnUse" x="13" y="55" width="91" height="59">
<path d="M13.7559 55.1777H103.239V113.898H13.7559V55.1777Z" fill="white"/>
</mask>
<g mask="url(#mask0_175_574)">
<path d="M103.088 109.381C102.993 108.979 101.925 104.541 99.3676 98.7565C96.8082 92.9737 92.7632 85.8367 86.6616 80.0617C86.6379 80.0391 86.6176 80.0216 86.5967 80.0047C84.5643 78.0874 82.3424 76.4365 79.9895 75.0919C84.7878 70.1915 87.9215 63.6656 88.492 56.423C88.5162 56.111 88.4039 55.8091 88.1816 55.5897C87.9588 55.3702 87.6552 55.2618 87.3437 55.2906C87.1931 55.3047 87.0656 55.3222 86.9572 55.3363C86.8483 55.3504 86.7592 55.3606 86.6717 55.3657C85.9123 55.4097 85.172 55.43 84.4453 55.43C83.7304 55.43 83.0268 55.3843 82.2893 55.3431C81.724 55.312 81.2365 55.7296 81.1817 56.2933C80.6186 62.0535 77.9035 67.192 73.8483 70.8946C69.7921 74.5954 64.4092 76.8523 58.5 76.8529C52.5885 76.8523 47.2051 74.5954 43.1483 70.8946C39.0925 67.192 36.3774 62.0535 35.8143 56.2933C35.7596 55.7296 35.2721 55.3115 34.7067 55.3431C33.9693 55.3843 33.2668 55.43 32.5508 55.43C31.824 55.43 31.0832 55.4091 30.3243 55.3651C30.2374 55.36 30.1483 55.3504 30.0394 55.3363C29.9305 55.3222 29.8024 55.3042 29.6517 55.29C29.3403 55.2618 29.0367 55.3702 28.8138 55.5897C28.5915 55.8091 28.4793 56.111 28.5035 56.423C29.074 63.665 32.2072 70.1904 37.0054 75.0908C34.6322 76.445 32.3905 78.1173 30.3339 80.06L30.3333 80.0606C24.2322 85.8361 20.1872 92.9737 17.6279 98.7565C15.0702 104.541 14.0021 108.979 13.9079 109.381V109.382C13.8435 109.656 13.8125 109.935 13.8125 110.212C13.8125 111.03 14.0862 111.833 14.6024 112.488L14.6041 112.489C15.2998 113.366 16.3572 113.876 17.4733 113.876H99.5211C100.638 113.876 101.695 113.366 102.391 112.489L102.392 112.488C102.909 111.833 103.182 111.03 103.182 110.212C103.182 109.935 103.151 109.656 103.087 109.382V109.381H103.088ZM100.738 111.179C100.443 111.551 99.9934 111.767 99.5217 111.767H17.4738C17.0027 111.767 16.5524 111.551 16.2573 111.179C16.0384 110.902 15.9216 110.559 15.9216 110.211C15.9216 110.094 15.9352 109.976 15.9622 109.86V109.861C16.0333 109.552 17.0721 105.227 19.557 99.6085C22.0396 93.9893 25.9735 87.0847 31.7829 81.5919C33.7605 79.7237 35.9119 78.1258 38.179 76.8467C38.179 76.8467 38.1824 76.845 38.1835 76.8439C38.4476 76.6915 38.8358 76.5454 39.2838 76.327C39.5936 76.1741 39.8114 75.8745 39.8605 75.5326C39.9101 75.1907 39.786 74.842 39.5321 74.6072C34.7806 70.2192 31.5645 64.2264 30.7334 57.4928C31.349 57.5205 31.9561 57.538 32.5508 57.538C32.9965 57.538 33.4225 57.5222 33.8378 57.5019C34.6559 63.3902 37.5369 68.628 41.7264 72.4507C46.1511 76.4912 52.0457 78.9614 58.4994 78.9609C64.952 78.9614 70.8455 76.4907 75.2702 72.4507C79.4585 68.628 82.3395 63.3897 83.1582 57.5013C83.5735 57.5216 84.0001 57.5374 84.4447 57.538C85.0394 57.538 85.6471 57.5205 86.2621 57.4928C85.4304 64.227 82.2143 70.2197 77.4623 74.6084C77.2084 74.8425 77.0848 75.1912 77.1339 75.5331C77.1835 75.8751 77.4008 76.1747 77.7105 76.3282C78.1591 76.5465 78.5467 76.6926 78.8114 76.8461H78.8119C81.083 78.1286 83.2338 79.7226 85.1991 81.5846C85.2132 81.5976 85.2245 81.6071 85.2363 81.6173C91.0322 87.1056 94.9587 93.9978 97.4379 99.6091C99.9228 105.226 100.962 109.552 101.033 109.861V109.86C101.06 109.976 101.073 110.093 101.073 110.211C101.073 110.559 100.957 110.902 100.738 111.179L100.738 111.179Z" fill="#2B2A63"/>
</g>
<path d="M87.5876 88.8836C87.3128 88.5242 86.8406 88.3809 86.4123 88.5259C85.9835 88.6714 85.6963 89.0726 85.6963 89.5246V107.609C85.6963 107.887 85.8086 108.158 86.0049 108.354C86.2013 108.551 86.4732 108.663 86.7508 108.663H96.0416C96.3801 108.663 96.6972 108.501 96.8958 108.227C97.0939 107.953 97.1486 107.6 97.0431 107.279C95.6641 103.096 92.7357 95.6065 87.5876 88.8836ZM87.8048 92.8191C91.1282 97.8183 93.3067 102.997 94.5661 106.554H87.8048V92.8191Z" fill="#2B2A63"/>
<path d="M60.0012 25.7872H59.9985L59.9971 25.7879L60.0012 25.7872Z" fill="#2B2A63"/>
<path d="M59.9982 25.7873C61.5876 25.4414 62.9751 24.5618 63.9648 23.3481C64.9556 22.1344 65.5525 20.5766 65.552 18.8895C65.5525 16.9435 64.7598 15.1718 63.4829 13.8977C62.2083 12.622 60.436 11.8304 58.49 11.8309C56.5439 11.8304 54.7722 12.6226 53.4976 13.8983C52.2219 15.1723 51.4291 16.944 51.4297 18.8901C51.4291 20.8356 52.2213 22.6073 53.4976 23.8819C54.7717 25.1576 56.5434 25.9504 58.49 25.9498C59.0051 25.9498 59.5095 25.8956 59.9982 25.7879V25.7873ZM53.5388 18.8895C53.5394 17.519 54.0912 16.2878 54.9889 15.389C55.8883 14.4919 57.1194 13.94 58.49 13.9395C59.8605 13.94 61.0922 14.4919 61.9922 15.3896C62.8905 16.2884 63.4428 17.5196 63.4434 18.8895C63.4428 20.0784 63.027 21.16 62.3307 22.0154C61.6339 22.8696 60.6595 23.4864 59.5496 23.7273L59.5468 23.7279C59.2094 23.8023 58.8584 23.8407 58.4905 23.8407C57.12 23.8401 55.8888 23.2883 54.9895 22.3906C54.0918 21.4912 53.5394 20.2601 53.5394 18.8895H53.5388Z" fill="#2B2A63"/>
<mask id="mask1_175_574" style="mask-type:luminance" maskUnits="userSpaceOnUse" x="25" y="3" width="67" height="36">
<path d="M25.4219 3.07336H91.5774V38.7111H25.4219V3.07336Z" fill="white"/>
</mask>
<g mask="url(#mask1_175_574)">
<path d="M26.7187 38.6473C33.0234 37.3857 46.1893 35.0988 58.497 35.1005C70.8047 35.0988 83.9706 37.3851 90.2754 38.6467C90.5857 38.7088 90.9062 38.6292 91.1505 38.4284C91.3954 38.2281 91.5364 37.9296 91.5364 37.613V23.5715C91.537 17.9122 89.2394 12.7793 85.5296 9.07172C81.8208 5.36243 76.6869 3.06487 71.0264 3.06543H45.967C40.3066 3.06487 35.1726 5.36243 31.4645 9.07172C27.7546 12.7793 25.4565 17.9122 25.457 23.5715V37.613C25.457 37.9296 25.5987 38.2281 25.843 38.4284C26.0878 38.6292 26.4083 38.7088 26.7187 38.6473ZM55.4078 28.6942C55.0066 28.5695 54.5671 28.6953 54.294 29.0141L53.5915 29.8328L53.7371 28.7506C53.7924 28.3347 53.5938 27.9217 53.2332 27.7062C52.6797 27.3744 52.1629 26.9975 51.6867 26.5755C51.3701 26.295 50.9193 26.2307 50.5368 26.4113L49.5494 26.8779L50.1215 25.9514C50.3421 25.5942 50.3286 25.1367 50.0876 24.7925C49.7203 24.2683 49.4021 23.7131 49.1363 23.1263C48.9614 22.7415 48.5772 22.4988 48.154 22.5073L47.0667 22.5299L47.9627 21.9211C48.3131 21.6835 48.4863 21.2626 48.4056 20.8479C48.2843 20.2255 48.2183 19.5891 48.2144 18.9334C48.2115 18.5103 47.9599 18.1328 47.57 17.9686L46.5724 17.5471L47.6473 17.3558C48.0637 17.2819 48.3938 16.9682 48.4897 16.5557C48.6364 15.9244 48.8384 15.3161 49.094 14.7378C49.265 14.3507 49.1894 13.9021 48.901 13.5924L48.1619 12.7991L49.2215 13.0643C49.6323 13.1669 50.06 13.0163 50.3161 12.6794C50.7032 12.1711 51.1388 11.6994 51.6133 11.2711C51.927 10.9879 52.0416 10.5478 51.9045 10.1477L51.5507 9.11235L52.3993 9.77758C52.7294 10.0371 53.1847 10.0749 53.5537 9.87463C54.1129 9.57051 54.7065 9.31547 55.3232 9.11686C55.726 8.98652 56.011 8.63049 56.0494 8.20957L56.1481 7.12962L56.657 8.09616C56.8528 8.46743 57.254 8.68861 57.6732 8.65588C57.9661 8.63275 58.2358 8.61469 58.4897 8.61469C58.8592 8.61469 59.2283 8.6367 59.5956 8.67563C60.0137 8.71964 60.4194 8.51031 60.6259 8.14468L61.1562 7.20297L61.2262 8.29138C61.2533 8.71343 61.5286 9.0768 61.9276 9.2173C62.5358 9.43227 63.1142 9.69972 63.6603 10.0208C64.0254 10.2352 64.4824 10.2109 64.8227 9.9587L65.6967 9.31152L65.3169 10.3311C65.1702 10.7244 65.2729 11.1707 65.5759 11.4607C66.0392 11.9036 66.4589 12.3866 66.8342 12.9091C67.079 13.2499 67.5073 13.4135 67.9175 13.3232L68.9839 13.088L68.2239 13.8598C67.9271 14.1617 67.8391 14.6069 67.9993 14.9985C68.2425 15.5937 68.4332 16.2037 68.559 16.835C68.642 17.2498 68.9653 17.5753 69.38 17.6611L70.4374 17.88L69.4223 18.2755C69.0279 18.429 68.7644 18.8014 68.7514 19.2246C68.7306 19.878 68.6499 20.5105 68.5122 21.1272C68.4202 21.5396 68.5822 21.964 68.9252 22.2117L69.806 22.8459L68.7232 22.7945C68.304 22.7748 67.9102 23.0078 67.7257 23.3853C67.4452 23.9597 67.1078 24.5092 66.7247 25.0221C66.4714 25.3607 66.4454 25.8171 66.6576 26.1827L67.2049 27.1233L66.2344 26.6307C65.8575 26.4389 65.4033 26.4908 65.0788 26.7628C64.5902 27.173 64.0621 27.5375 63.5007 27.8512C63.1311 28.0583 62.9223 28.4617 62.9669 28.8826L63.0814 29.9648L62.397 29.1202C62.1307 28.7912 61.694 28.6535 61.2872 28.7703C61.0682 28.833 60.8696 28.8894 60.6879 28.9289C60.3641 28.9988 60.0306 29.0525 59.6915 29.0908C59.2706 29.1382 58.9191 29.4327 58.7983 29.8384L58.4902 30.8794L58.181 29.8379C58.0609 29.4322 57.7138 29.1399 57.2935 29.0903C56.6412 29.0135 56.011 28.8815 55.4084 28.6936L55.4078 28.6942ZM59.7332 5.43184L59.1171 6.52476C58.91 6.51404 58.7013 6.50671 58.4891 6.50671C58.3915 6.50671 58.3007 6.51178 58.207 6.51517L57.6207 5.40137C57.5762 5.31617 57.5186 5.24169 57.456 5.17454H59.9381C59.8585 5.2479 59.7885 5.33366 59.7327 5.43184H59.7332ZM84.0383 10.563C87.3695 13.8954 89.4273 18.4883 89.4279 23.572V36.3317C82.8737 35.0672 71.018 33.1161 59.5589 32.9982C59.8952 32.8994 60.1677 32.6387 60.2715 32.2889L60.6281 31.0848C60.798 31.0561 60.9667 31.0261 61.1342 30.9895L61.1371 30.9889C61.1546 30.985 61.1692 30.9804 61.1867 30.9771L61.9744 31.9498C62.2695 32.3137 62.7666 32.4396 63.1988 32.2601L64.6229 31.6688C65.0551 31.4894 65.3164 31.0498 65.2673 30.5844L65.1341 29.3278C65.3886 29.1659 65.6369 28.9949 65.8783 28.8143L67.0063 29.387C67.4238 29.5992 67.9305 29.5112 68.2515 29.1704L69.3095 28.0481C69.6305 27.7073 69.6886 27.2001 69.4533 26.7955L68.8191 25.7043C68.9856 25.4532 69.143 25.1959 69.2914 24.9324L70.5553 24.9922C71.023 25.0148 71.4474 24.7281 71.6014 24.2858L72.1069 22.8329C72.2593 22.3939 72.1047 21.903 71.7272 21.6311L70.7014 20.8925C70.7494 20.5968 70.7872 20.2978 70.8137 19.9959L71.9941 19.536C72.4303 19.3662 72.7022 18.9284 72.6616 18.4623L72.5279 16.927C72.4878 16.4638 72.1464 16.0801 71.6911 15.9859L70.4645 15.7325C70.386 15.4363 70.2963 15.1457 70.1976 14.8608L71.0795 13.9653C71.4079 13.6319 71.4778 13.1246 71.251 12.715L70.504 11.3665C70.2771 10.9568 69.8116 10.7464 69.3546 10.8474L68.1178 11.1199C67.9288 10.8857 67.7319 10.6589 67.5265 10.4394L67.9688 9.25115C68.1325 8.81217 67.9886 8.32129 67.6139 8.0403L66.3839 7.11664C66.0098 6.83509 65.4986 6.8334 65.1228 7.11213L64.1061 7.86539C63.8381 7.72828 63.565 7.60245 63.2868 7.48566L63.2056 6.2212C63.1751 5.75401 62.8428 5.36469 62.3863 5.26087L62.0032 5.17398H71.0264C76.1113 5.17454 80.7048 7.23175 84.0383 10.5624V10.563ZM32.9557 10.563C36.2892 7.23175 40.8827 5.17511 45.9676 5.17454H54.9135C54.483 5.28457 54.1648 5.6502 54.1242 6.09651L54.0096 7.34855C53.7258 7.45801 53.4471 7.57763 53.174 7.70684L52.1866 6.93214C51.8181 6.64325 51.3069 6.63084 50.925 6.90167L49.6684 7.79373C49.2864 8.06456 49.129 8.5515 49.2808 8.99442L49.6915 10.1946C49.4805 10.4078 49.2774 10.6284 49.0822 10.8564L47.851 10.5489C47.3974 10.4349 46.9257 10.6324 46.6875 11.0353L45.9038 12.3618C45.6657 12.7646 45.7204 13.2742 46.0398 13.6166L46.9008 14.5403C46.7953 14.8224 46.7005 15.1085 46.6159 15.3985L45.3723 15.6197C44.9113 15.7015 44.5615 16.0745 44.509 16.5394L44.3358 18.0724C44.2833 18.5373 44.5418 18.9803 44.9734 19.162L46.1318 19.6511C46.151 19.9553 46.1814 20.2566 46.222 20.5545L45.1799 21.262C44.7928 21.525 44.6253 22.0085 44.7674 22.4543L45.2358 23.9219C45.378 24.3676 45.7938 24.6655 46.2621 24.6554L47.5266 24.63C47.6665 24.8974 47.816 25.1587 47.9746 25.4143L47.3099 26.4908C47.0639 26.8892 47.1085 27.3975 47.4205 27.7468L48.4463 28.8956C48.7583 29.2449 49.2605 29.347 49.6836 29.1472L50.8307 28.605C51.0666 28.7906 51.3086 28.9673 51.5575 29.1354L51.3888 30.3919C51.3267 30.8557 51.5767 31.3038 52.0043 31.4945L53.4127 32.123C53.8404 32.3137 54.338 32.202 54.6427 31.8465L55.4597 30.8941C55.7531 30.9669 56.0494 31.0295 56.3495 31.0809L56.7072 32.2889C56.8111 32.6382 57.0836 32.8988 57.4204 32.9982C45.9653 33.1172 34.1181 35.0678 27.5661 36.3317V23.5715C27.5667 18.4877 29.6245 13.8954 32.9557 10.5624V10.563Z" fill="#2B2A63"/>
</g>
</svg>
