<svg width="149" height="130" viewBox="0 0 149 130" fill="none" xmlns="http://www.w3.org/2000/svg">
<mask id="mask0_169_898" style="mask-type:luminance" maskUnits="userSpaceOnUse" x="13" y="5" width="122" height="122">
<path d="M13 5.20276H134.033V126.236H13V5.20276Z" fill="white"/>
</mask>
<g mask="url(#mask0_169_898)">
<mask id="mask1_169_898" style="mask-type:luminance" maskUnits="userSpaceOnUse" x="13" y="5" width="122" height="122">
<path d="M96.9916 106.774C93.7608 106.774 91.1315 109.403 91.1315 112.633C91.1315 115.864 93.7608 118.493 96.9916 118.493C100.222 118.493 102.851 115.864 102.851 112.633C102.851 109.403 100.222 106.774 96.9916 106.774ZM96.9916 114.587C95.9152 114.587 95.0379 113.71 95.0379 112.633C95.0379 111.557 95.9152 110.68 96.9916 110.68C98.0672 110.68 98.9444 111.557 98.9444 112.633C98.9444 113.71 98.0672 114.587 96.9916 114.587ZM46.2056 106.774C42.9756 106.774 40.3462 109.403 40.3462 112.633C40.3462 115.864 42.9756 118.493 46.2056 118.493C49.4364 118.493 52.0657 115.864 52.0657 112.633C52.0657 109.403 49.4364 106.774 46.2056 106.774ZM46.2056 114.587C45.13 114.587 44.2527 113.71 44.2527 112.633C44.2527 111.557 45.13 110.68 46.2056 110.68C47.282 110.68 48.1592 111.557 48.1592 112.633C48.1592 113.71 47.282 114.587 46.2056 114.587ZM106.757 73.5676C106.757 72.4896 107.633 71.6147 108.711 71.6147C109.789 71.6147 110.665 72.4896 110.665 73.5676C110.665 74.6456 109.789 75.5212 108.711 75.5212C107.633 75.5212 106.757 74.6456 106.757 73.5676ZM77.4583 65.7546C77.4583 64.6766 78.3332 63.801 79.412 63.801C80.4899 63.801 81.3648 64.6766 81.3648 65.7546C81.3648 66.8326 80.4899 67.7082 79.412 67.7082C78.3332 67.7082 77.4583 66.8326 77.4583 65.7546ZM26.6731 44.2685C23.4423 44.2685 20.813 46.8978 20.813 50.1286C20.813 53.3594 23.4423 55.988 26.6731 55.988C29.9039 55.988 32.5333 53.3594 32.5333 50.1286C32.5333 46.8978 29.9039 44.2685 26.6731 44.2685ZM26.6731 52.0815C25.5967 52.0815 24.7195 51.2043 24.7195 50.1286C24.7195 49.0522 25.5967 48.175 26.6731 48.175C27.7495 48.175 28.626 49.0522 28.626 50.1286C28.626 51.2043 27.7495 52.0815 26.6731 52.0815ZM130.197 5.20276H98.9444C96.79 5.20276 95.0379 6.95486 95.0379 9.10925V13.0157C95.0379 15.1701 96.79 16.9222 98.9444 16.9222V17.669L92.3875 20.9459L41.9031 34.537L24.5554 37.0156C17.9673 37.9576 13 43.6865 13 50.3411C13 57.7635 19.0375 63.801 26.4599 63.801H27.3137C29.2243 63.801 31.0858 63.3909 32.791 62.6316L56.3378 69.9915C56.1089 70.4875 55.9722 71.0343 55.9722 71.6147V75.5212H47.2687C44.7511 75.5212 42.3757 76.7437 40.9102 78.7926L33.3144 89.4263L21.3442 92.4189C18.7328 93.0712 16.9065 95.4091 16.9065 98.1048V112.633C16.9065 115.864 19.5358 118.493 22.7666 118.493H33.8706C36.0703 123.105 40.7657 126.306 46.2056 126.306C51.6455 126.306 56.3417 123.105 58.5406 118.493H84.6566C86.8555 123.105 91.5517 126.306 96.9916 126.306C102.431 126.306 107.127 123.105 109.327 118.493H122.384C124.539 118.493 126.291 116.741 126.291 114.587V91.1472C126.291 88.9928 124.539 87.2407 122.384 87.2407V83.3342C122.384 81.1798 120.632 79.4277 118.478 79.4277V69.6611C118.478 66.4303 115.848 63.801 112.618 63.801H107.408C106.222 63.801 105.098 64.1548 104.156 64.7821L78.5957 56.2614C78.0504 56.0801 77.4857 55.988 76.9139 55.988C75.5891 55.988 74.39 56.4941 73.4581 57.2987L71.1178 56.648L61.8714 44.3193L93.0851 36.5156L98.9444 37.9811V38.4084C98.9444 41.6392 101.574 44.2685 104.805 44.2685H124.337C127.568 44.2685 130.197 41.6392 130.197 38.4084V16.9222C132.352 16.9222 134.104 15.1701 134.104 13.0157V9.10925C134.104 6.95486 132.352 5.20276 130.197 5.20276ZM91.1315 32.9763L47.3859 43.9131L44.9284 37.7702L91.1315 25.3312V32.9763ZM26.4599 59.8945C21.1918 59.8945 16.9065 55.6091 16.9065 50.3411C16.9065 45.6183 20.4326 41.5517 25.1085 40.8838L41.0547 38.606L43.9457 45.837L34.5002 56.6324C32.6871 58.7056 30.0656 59.8945 27.3121 59.8945H26.4599ZM59.8787 71.6147H63.7852V75.5212H59.8787V71.6147ZM20.813 102.867H24.7195V106.774H20.813V102.867ZM22.7666 114.587C21.6902 114.587 20.813 113.71 20.813 112.633V110.68H24.7195C26.8739 110.68 28.626 108.928 28.626 106.774V102.867C28.626 100.712 26.8739 98.9602 24.7195 98.9602H20.813V98.1048C20.813 97.2065 21.4223 96.4269 22.294 96.2106L35.6578 92.8704L44.0887 81.0666C44.8214 80.0394 46.0087 79.4277 47.2687 79.4277H67.6917C69.8469 79.4277 71.599 81.1798 71.599 83.3342V114.587H67.6917V87.2407C67.6917 85.0863 65.9396 83.3342 63.7852 83.3342H49.2645C47.9015 83.3342 46.618 84.0607 45.915 85.2308L41.2602 92.9891C40.4868 94.2765 40.5259 95.9169 41.3602 97.1651L42.8459 99.3961C36.9295 100.898 32.5333 106.256 32.5333 112.633C32.5333 113.297 32.5973 113.946 32.6895 114.587H22.7666ZM75.5055 91.1472H122.384V93.1008H75.5055V91.1472ZM106.757 97.0073V103.081C104.273 100.543 100.816 98.9602 96.9916 98.9602C93.1671 98.9602 89.7098 100.543 87.225 103.081V97.0073H106.757ZM63.7852 93.1008H45.7486L49.2645 87.2407H63.7852V93.1008ZM46.2056 122.4C40.8204 122.4 36.4397 118.019 36.4397 112.633C36.4397 107.248 40.8204 102.867 46.2056 102.867C51.5908 102.867 55.9722 107.248 55.9722 112.633C55.9722 118.019 51.5908 122.4 46.2056 122.4ZM47.2883 99.0149L45.9478 97.0073H63.7852V114.587H59.7225C59.8147 113.946 59.8787 113.297 59.8787 112.633C59.8787 105.459 54.3217 99.5695 47.2883 99.0149ZM75.5055 114.587V97.0073H83.3185V112.633C83.3185 113.297 83.3825 113.946 83.4747 114.587H75.5055ZM96.9916 122.4C91.6064 122.4 87.225 118.019 87.225 112.633C87.225 107.248 91.6064 102.867 96.9916 102.867C102.377 102.867 106.757 107.248 106.757 112.633C106.757 118.019 102.377 122.4 96.9916 122.4ZM110.508 114.587C110.6 113.946 110.665 113.297 110.665 112.633V97.0073H122.384V114.587H110.508ZM109.918 87.2407L111.872 83.3342H118.478V87.2407H109.918ZM107.408 67.7082H112.618C113.694 67.7082 114.571 68.5847 114.571 69.6611V79.4277H111.872C110.381 79.4277 109.043 80.2557 108.377 81.586L105.551 87.2407H97.968L105.608 68.9089C105.91 68.1808 106.619 67.7082 107.408 67.7082ZM93.8522 86.9611L87.6819 78.7341L96.0362 81.7188L93.8522 86.9611ZM75.5055 61.3029C75.5055 60.3749 76.478 59.6757 77.3591 59.9671L101.718 68.0871L97.5423 78.1068L76.4405 70.5711C75.8804 70.3719 75.5055 69.8392 75.5055 69.2447V61.3029ZM81.0133 76.3531L89.1778 87.2407H75.5055V83.3342C75.5055 79.0254 72.0013 75.5212 67.6917 75.5212V71.6147C67.6917 69.4603 65.9396 67.7082 63.7852 67.7082H62.1307L36.8538 59.8085C37.0506 59.6093 37.256 59.418 37.4412 59.2055L42.9717 52.8845L71.6435 60.8482C71.6318 61.0006 71.599 61.1466 71.599 61.3029V69.2447C71.599 71.4858 73.0168 73.4973 75.1266 74.2511L81.0133 76.3531ZM64.9499 54.935L45.8252 49.6224L47.2726 47.968L57.7579 45.3465L64.9499 54.935ZM95.0379 32.9763V23.9892L98.9444 22.0364V33.9535L95.0379 32.9763ZM126.291 38.4084C126.291 39.4848 125.413 40.362 124.337 40.362H104.805C103.728 40.362 102.851 39.4848 102.851 38.4084V16.9222H126.291V38.4084ZM98.9444 13.0157V9.10925H130.197L130.199 13.0157H98.9444Z" fill="white"/>
</mask>
<g mask="url(#mask1_169_898)">
<path d="M13 5.20276V126.236H134.033V5.20276H13Z" fill="#2E2D70"/>
</g>
</g>
</svg>
