<svg width="136" height="130" viewBox="0 0 136 130" fill="none" xmlns="http://www.w3.org/2000/svg">
<mask id="mask0_169_584" style="mask-type:luminance" maskUnits="userSpaceOnUse" x="9" y="93" width="27" height="28">
<path d="M35.7627 93.9012H9.4022V120.164H35.7627V93.9012Z" fill="white"/>
</mask>
<g mask="url(#mask0_169_584)">
<path fill-rule="evenodd" clip-rule="evenodd" d="M22.5629 120.159C29.761 120.159 35.6094 114.237 35.6094 107.041C35.6094 99.7693 29.761 93.9216 22.5629 93.9216C15.2894 93.9216 9.44105 99.7693 9.44105 107.041C9.44105 114.237 15.2894 120.159 22.5629 120.159ZM22.5629 96.8454C28.1115 96.8454 32.6849 101.418 32.6849 107.041C32.6849 112.663 28.1115 117.236 22.5629 117.236C16.9395 117.236 12.3655 112.663 12.3655 107.041C12.3655 101.418 16.9395 96.8454 22.5629 96.8454Z" fill="#2B2A63"/>
</g>
<path fill-rule="evenodd" clip-rule="evenodd" d="M22.5634 114.087C26.3871 114.087 29.6113 110.939 29.6113 107.041C29.6113 103.142 26.3871 99.9936 22.5634 99.9936C18.6643 99.9936 15.4401 103.142 15.4401 107.041C15.4401 110.939 18.6643 114.087 22.5634 114.087ZM22.5634 102.917C24.813 102.917 26.6875 104.716 26.6875 107.041C26.6875 109.29 24.813 111.164 22.5634 111.164C20.239 111.164 18.4393 109.29 18.4393 107.041C18.4393 104.716 20.239 102.917 22.5634 102.917Z" fill="#2B2A63"/>
<path fill-rule="evenodd" clip-rule="evenodd" d="M43.0326 108.764H66.9514C67.3265 108.764 67.701 108.615 68.0014 108.315C68.3011 108.015 68.4513 107.64 68.3759 107.265C68.3759 107.19 68.3759 107.116 68.3759 107.041C68.3759 101.418 72.9499 96.8454 78.5733 96.8454C84.1967 96.8454 88.7706 101.418 88.7706 107.041C88.7706 107.116 88.7706 107.19 88.7706 107.265C88.7706 107.64 88.9208 108.015 89.2206 108.315C89.4455 108.615 89.8207 108.764 90.2706 108.764H96.4187C96.8686 108.764 97.2438 108.615 97.4687 108.315C97.7684 108.015 97.9186 107.64 97.9186 107.265C97.9186 107.19 97.9186 107.116 97.9186 107.041C97.9186 101.418 102.492 96.8454 108.116 96.8454C113.739 96.8454 118.313 101.418 118.313 107.041C118.313 107.116 118.313 107.19 118.313 107.265C118.238 107.64 118.388 108.015 118.688 108.315C118.988 108.615 119.363 108.764 119.738 108.764H130.46C130.985 108.764 131.435 108.465 131.66 108.09C131.959 107.715 132.035 107.19 131.81 106.74L124.461 88.7488C124.237 88.2241 123.712 87.8496 123.112 87.8496H43.0326C42.2082 87.8496 41.5333 88.5245 41.5333 89.2741V107.265C41.5333 108.09 42.2082 108.764 43.0326 108.764ZM65.5268 105.841H44.4572V90.7735H122.062L128.286 105.841H121.162C120.562 99.1692 114.939 93.9216 108.116 93.9216C101.292 93.9216 95.669 99.1692 95.0689 105.841H91.6197C91.0203 99.1692 85.3969 93.9216 78.5733 93.9216C71.7503 93.9216 66.1269 99.1692 65.5268 105.841Z" fill="#2B2A63"/>
<mask id="mask1_169_584" style="mask-type:luminance" maskUnits="userSpaceOnUse" x="94" y="93" width="28" height="28">
<path d="M121.393 93.9012H94.8642V120.164H121.393V93.9012Z" fill="white"/>
</mask>
<g mask="url(#mask1_169_584)">
<path fill-rule="evenodd" clip-rule="evenodd" d="M108.116 120.159C115.314 120.159 121.237 114.237 121.237 107.041C121.237 99.7693 115.314 93.9216 108.116 93.9216C100.843 93.9216 94.9942 99.7693 94.9942 107.041C94.9942 114.237 100.843 120.159 108.116 120.159ZM108.116 96.8454C113.739 96.8454 118.313 101.418 118.313 107.041C118.313 112.663 113.739 117.236 108.116 117.236C102.492 117.236 97.9187 112.663 97.9187 107.041C97.9187 101.418 102.492 96.8454 108.116 96.8454Z" fill="#2B2A63"/>
</g>
<path fill-rule="evenodd" clip-rule="evenodd" d="M108.116 114.087C112.015 114.087 115.164 110.939 115.164 107.041C115.164 103.142 112.015 99.9936 108.116 99.9936C104.217 99.9936 101.068 103.142 101.068 107.041C101.068 110.939 104.217 114.087 108.116 114.087ZM108.116 102.917C110.365 102.917 112.24 104.716 112.24 107.041C112.24 109.29 110.365 111.164 108.116 111.164C105.792 111.164 103.992 109.29 103.992 107.041C103.992 104.716 105.792 102.917 108.116 102.917Z" fill="#2B2A63"/>
<mask id="mask2_169_584" style="mask-type:luminance" maskUnits="userSpaceOnUse" x="65" y="93" width="27" height="28">
<path d="M91.8418 93.9012H65.3134V120.164H91.8418V93.9012Z" fill="white"/>
</mask>
<g mask="url(#mask2_169_584)">
<path fill-rule="evenodd" clip-rule="evenodd" d="M78.5734 120.159C85.847 120.159 91.6953 114.237 91.6953 107.041C91.6953 99.7693 85.847 93.9216 78.5734 93.9216C71.3753 93.9216 65.4522 99.7693 65.4522 107.041C65.4522 114.237 71.3753 120.159 78.5734 120.159ZM78.5734 96.8454C84.1968 96.8454 88.7708 101.418 88.7708 107.041C88.7708 112.663 84.1968 117.236 78.5734 117.236C72.9501 117.236 68.3761 112.663 68.3761 107.041C68.3761 101.418 72.9501 96.8454 78.5734 96.8454Z" fill="#2B2A63"/>
</g>
<path fill-rule="evenodd" clip-rule="evenodd" d="M78.5735 114.087C82.4726 114.087 85.6221 110.939 85.6221 107.041C85.6221 103.142 82.4726 99.9936 78.5735 99.9936C74.6744 99.9936 71.5256 103.142 71.5256 107.041C71.5256 110.939 74.6744 114.087 78.5735 114.087ZM78.5735 102.917C80.8979 102.917 82.6976 104.716 82.6976 107.041C82.6976 109.29 80.8979 111.164 78.5735 111.164C76.3245 111.164 74.4494 109.29 74.4494 107.041C74.4494 104.716 76.3245 102.917 78.5735 102.917Z" fill="#2B2A63"/>
<path fill-rule="evenodd" clip-rule="evenodd" d="M104.816 90.7734H115.839C116.663 90.7734 117.338 90.0986 117.338 89.2741V82.6768C117.338 81.8524 116.663 81.2523 115.839 81.2523H104.816C103.992 81.2523 103.317 81.8524 103.317 82.6768V89.2741C103.317 90.0986 103.992 90.7734 104.816 90.7734ZM114.414 87.8496H106.241V84.1761H114.414V87.8496Z" fill="#2B2A63"/>
<path fill-rule="evenodd" clip-rule="evenodd" d="M97.5437 84.1761H122.812C123.637 84.1761 124.312 83.5012 124.312 82.6767V74.2056C124.312 73.3812 123.637 72.7063 122.812 72.7063H97.5437C96.7187 72.7063 96.0444 73.3812 96.0444 74.2056V82.6767C96.0444 83.5012 96.7187 84.1761 97.5437 84.1761ZM121.388 81.2522H98.9683V75.6301H121.388V81.2522Z" fill="#2B2A63"/>
<path fill-rule="evenodd" clip-rule="evenodd" d="M105.041 75.6301H117.638C118.462 75.6301 119.062 74.9553 119.062 74.2056V57.9382C119.062 57.1138 118.462 56.4389 117.638 56.4389H111.339C110.74 56.4389 110.215 56.8141 109.99 57.4135L103.692 73.6809C103.467 74.1308 103.541 74.5808 103.841 75.0307C104.141 75.4052 104.591 75.6301 105.041 75.6301ZM116.138 72.7063H107.14L112.314 59.3627H116.138V72.7063Z" fill="#2B2A63"/>
<path fill-rule="evenodd" clip-rule="evenodd" d="M106.767 71.2825C106.916 71.2825 107.066 71.2825 107.217 71.207C107.591 71.0575 107.966 70.7571 108.116 70.3078L112.69 58.4629C112.99 57.7887 112.69 56.9636 112.09 56.6639L65.6774 29.9014C65.377 29.6764 64.9271 29.6016 64.5526 29.7512C64.1774 29.8266 63.8777 30.0516 63.6528 30.4261L57.3545 41.3711C57.2043 41.6708 57.1295 42.046 57.2043 42.4205C57.3545 42.7957 57.5795 43.1702 57.8792 43.3203L106.017 71.0575C106.241 71.207 106.466 71.2825 106.767 71.2825ZM109.541 58.5384L106.017 67.6837L60.6535 41.5213L65.5272 33.1249L109.541 58.5384Z" fill="#2B2A63"/>
<path fill-rule="evenodd" clip-rule="evenodd" d="M59.6783 41.7456C59.7531 41.7456 59.9033 41.7456 60.0528 41.7456C60.428 41.596 60.7277 41.3711 60.9526 41.0714L65.2269 33.6496C65.6014 32.8999 65.3764 32.0001 64.7016 31.6256L33.285 13.4837C32.7603 13.2594 32.2356 13.2594 31.7857 13.5592C31.2604 13.7841 31.0354 14.3088 31.0354 14.8335C31.1108 15.1332 31.0354 15.3582 30.8859 15.5832L28.1116 20.3808C28.0361 20.6058 27.8112 20.756 27.5862 20.8307C27.1369 21.1305 26.8366 21.5804 26.7618 22.1051C26.7618 22.7045 27.0615 23.1545 27.5114 23.4542L58.9286 41.596C59.1536 41.7456 59.3786 41.7456 59.6783 41.7456ZM61.9273 33.4246L59.1536 38.2977L30.6609 21.8801V21.8053L33.4352 17.0825C33.4352 17.0077 33.4352 17.0077 33.4352 17.0077L61.9273 33.4246Z" fill="#2B2A63"/>
<mask id="mask3_169_584" style="mask-type:luminance" maskUnits="userSpaceOnUse" x="10" y="3" width="25" height="22">
<path d="M34.084 3.80847H10.7457V24.0543H34.084V3.80847Z" fill="white"/>
</mask>
<g mask="url(#mask3_169_584)">
<path fill-rule="evenodd" clip-rule="evenodd" d="M26.9868 23.9042C28.5615 23.9042 29.9113 23.1545 30.6609 21.8054L33.4352 17.0825C33.9599 16.1079 34.1101 14.9831 33.8851 13.8589C33.5848 12.7341 32.8351 11.8349 31.8605 11.3102L19.8634 4.33841C19.1885 3.96326 18.5136 3.81372 17.764 3.81372C16.2647 3.81372 14.8402 4.56337 14.0898 5.91249L11.3155 10.6354C10.7908 11.61 10.6407 12.7341 10.941 13.8589C11.2408 14.9083 11.9157 15.8829 12.8903 16.4076L24.8873 23.3795C25.5622 23.754 26.3119 23.9042 26.9868 23.9042ZM17.764 6.73691C17.989 6.73691 18.2139 6.73691 18.3641 6.8871L30.4359 13.8589C30.7357 14.0091 30.9606 14.3089 31.0354 14.6086C31.1108 14.9831 31.0354 15.2835 30.8859 15.5832L28.1116 20.3809C27.8866 20.756 27.5114 20.9803 26.9868 20.9803C26.7618 20.9803 26.6116 20.9055 26.3866 20.8308L14.3148 13.8589C14.0898 13.7087 13.8649 13.409 13.7153 13.1093C13.6399 12.7341 13.7153 12.4344 13.8649 12.1347L16.6392 7.33702C16.8641 6.96187 17.3141 6.73691 17.764 6.73691Z" fill="#2B2A63"/>
</g>
<path fill-rule="evenodd" clip-rule="evenodd" d="M13.6402 32.9C14.3905 32.9 15.0654 32.2251 15.0654 31.4007V15.1333C15.0654 14.3089 14.3905 13.7087 13.6402 13.7087C12.8158 13.7087 12.1409 14.3089 12.1409 15.1333V31.4007C12.1409 32.2251 12.8158 32.9 13.6402 32.9Z" fill="#2B2A63"/>
<path fill-rule="evenodd" clip-rule="evenodd" d="M9.96614 46.4685H17.239C18.8885 46.4685 20.2383 45.1194 20.2383 43.4699V32.9C20.2383 31.2505 18.8885 29.9014 17.239 29.9014H9.96614C8.31598 29.9014 6.96687 31.2505 6.96687 32.9V43.4699C6.96687 45.1194 8.31598 46.4685 9.96614 46.4685ZM17.239 32.9H17.3138V43.4699L17.239 43.5453H9.96614V43.4699V32.9H17.239Z" fill="#2B2A63"/>
<path fill-rule="evenodd" clip-rule="evenodd" d="M16.6389 57.7887C19.1882 57.7887 21.2129 55.7647 21.2129 53.2908C21.2129 52.4657 20.538 51.7915 19.7136 51.7915C18.8885 51.7915 18.2884 52.4657 18.2884 53.2908C18.2884 54.19 17.5387 54.8648 16.6389 54.8648C15.8145 54.8648 15.0648 54.19 15.0648 53.2908V44.9692C15.0648 44.2195 14.3899 43.5453 13.6396 43.5453C12.8152 43.5453 12.1403 44.2195 12.1403 44.9692V53.2908C12.1403 55.7647 14.165 57.7887 16.6389 57.7887Z" fill="#2B2A63"/>
<path fill-rule="evenodd" clip-rule="evenodd" d="M43.0328 90.7734H52.2556C53.08 90.7734 53.7549 90.0985 53.7549 89.2741V71.657C53.7549 70.8325 53.08 70.1577 52.2556 70.1577H43.0328C42.2084 70.1577 41.5335 70.8325 41.5335 71.657V89.2741C41.5335 90.0985 42.2084 90.7734 43.0328 90.7734ZM50.7556 87.8496H44.4574V73.1563H50.7556V87.8496Z" fill="#2B2A63"/>
<mask id="mask4_169_584" style="mask-type:luminance" maskUnits="userSpaceOnUse" x="3" y="59" width="42" height="50">
<path d="M44.4941 59.9852H3.96829V108.844H44.4941V59.9852Z" fill="white"/>
</mask>
<g mask="url(#mask4_169_584)">
<path fill-rule="evenodd" clip-rule="evenodd" d="M5.46722 108.764H10.8656C11.3156 108.764 11.6907 108.615 11.9157 108.315C12.2154 108.015 12.3656 107.64 12.3656 107.265C12.3656 107.19 12.3656 107.116 12.3656 107.041C12.3656 101.418 16.9396 96.8454 22.563 96.8454C28.1116 96.8454 32.6849 101.418 32.6849 107.041C32.6849 107.116 32.6849 107.19 32.6849 107.265C32.6849 107.64 32.8351 108.015 33.1348 108.315C33.4352 108.615 33.8097 108.764 34.1849 108.764H43.0325C43.7821 108.764 44.457 108.09 44.457 107.265V61.537C44.457 60.7119 43.7821 60.1124 43.0325 60.1124H16.3395C15.8148 60.1124 15.3649 60.3374 15.1399 60.7873L4.19287 78.9285C4.04268 79.1535 3.96791 79.4532 3.96791 79.7529V107.265C3.96791 108.09 4.6428 108.764 5.46722 108.764ZM9.4411 105.841H6.89175V80.1281L17.1646 63.0363H41.5332V105.841H35.6094C35.0093 99.1691 29.3859 93.9216 22.563 93.9216C15.7394 93.9216 10.116 99.1691 9.4411 105.841Z" fill="#2B2A63"/>
</g>
<path fill-rule="evenodd" clip-rule="evenodd" d="M13.1154 89.9483H35.3098C36.1343 89.9483 36.7344 89.2741 36.7344 88.5245V69.2578C36.7344 68.4334 36.1343 67.7585 35.3098 67.7585H20.6887C20.2387 67.7585 19.714 68.0589 19.4891 68.5081L11.9158 81.1027C11.7656 81.3277 11.6909 81.5526 11.6909 81.8523V88.5245C11.6909 89.2741 12.3657 89.9483 13.1154 89.9483ZM33.8099 87.0252H14.6154V82.2268L21.5131 70.6823H33.8099V87.0252Z" fill="#2B2A63"/>
<path fill-rule="evenodd" clip-rule="evenodd" d="M34.0344 95.0464H37.1839C38.0083 95.0464 38.6084 94.4463 38.6084 93.6219C38.6084 92.7974 38.0083 92.1226 37.1839 92.1226H34.0344C33.21 92.1226 32.5351 92.7974 32.5351 93.6219C32.5351 94.4463 33.21 95.0464 34.0344 95.0464Z" fill="#2B2A63"/>
<mask id="mask5_169_584" style="mask-type:luminance" maskUnits="userSpaceOnUse" x="7" y="117" width="122" height="4">
<path d="M128.108 117.072H7.72321V120.164H128.108V117.072Z" fill="white"/>
</mask>
<g mask="url(#mask5_169_584)">
<path fill-rule="evenodd" clip-rule="evenodd" d="M9.36641 120.159H126.561C127.386 120.159 127.985 119.484 127.985 118.66C127.985 117.836 127.386 117.236 126.561 117.236H9.36641C8.54134 117.236 7.86645 117.836 7.86645 118.66C7.86645 119.484 8.54134 120.159 9.36641 120.159Z" fill="#2B2A63"/>
</g>
</svg>
