<svg width="172" height="68" viewBox="0 0 172 68" fill="none" xmlns="http://www.w3.org/2000/svg">
<mask id="mask0_169_683" style="mask-type:luminance" maskUnits="userSpaceOnUse" x="-1" y="0" width="173" height="68">
<path d="M-0.311523 0.168396H171.327V67.7251H-0.311523V0.168396Z" fill="white"/>
</mask>
<g mask="url(#mask0_169_683)">
<path fill-rule="evenodd" clip-rule="evenodd" d="M0.777342 43.8688L-0.184405 41.6755C-0.284721 41.4458 -0.326136 41.1945 -0.303128 40.9432L1.12615 25.3725C1.14547 25.1624 1.2099 24.9578 1.3139 24.7747L12.53 5.0818C13.6215 3.165 15.5892 1.93385 17.7667 1.80587L42.8006 0.334652C46.6605 0.107663 50.005 3.02676 50.3667 6.93787L51.067 14.5275V4.65117C51.067 2.30749 52.9372 0.408446 55.2435 0.408446C57.5499 0.408446 59.42 2.30749 59.42 4.65117V34.2185H169.779C170.576 34.2185 171.221 34.8752 171.221 35.6842V36.8032C171.221 40.7975 168.036 44.0332 164.106 44.0332H161.047V45.5129H162.164C164.159 45.5129 165.776 47.156 165.776 49.182C165.776 51.2091 164.159 52.8522 162.164 52.8522H149.705C149.921 53.7592 150.034 54.7064 150.034 55.6806C150.034 62.3287 144.722 67.726 138.178 67.726C131.635 67.726 126.323 62.3287 126.323 55.6806C126.323 54.8913 126.397 54.1197 126.541 53.3734H113.998C114.298 54.0329 114.458 54.7568 114.458 55.4976C114.458 56.8371 113.933 58.1233 113.001 59.0705C112.068 60.0187 110.803 60.5502 109.483 60.5502H94.0686C92.7498 60.5502 91.4853 60.0187 90.552 59.0705C89.6188 58.1233 89.0952 56.8371 89.0952 55.4976C89.0952 54.7568 89.2553 54.0329 89.5553 53.3734H63.6995V56.2794C63.6995 56.4298 63.6774 56.5746 63.636 56.711C63.6774 56.8474 63.6995 56.9931 63.6995 57.1435C63.6995 57.9515 63.0534 58.6081 62.2574 58.6081H51.4324C50.7505 58.6081 50.1614 58.1233 50.0215 57.4442L47.1455 43.5643L43.9593 41.9511C43.3721 41.6541 42.7252 41.499 42.069 41.499H34.0731C31.8763 41.499 29.8359 42.6564 28.6836 44.5563L23.8933 52.4552H25.9383C27.328 47.3717 31.9195 43.6353 37.3633 43.6353C43.9069 43.6353 49.219 49.0335 49.219 55.6806C49.219 62.3287 43.9069 67.726 37.3633 67.726C30.8197 67.726 25.5076 62.3287 25.5076 55.6806C25.5076 55.5826 25.5085 55.4826 25.5113 55.3845H3.21622C2.28116 55.3845 1.38476 55.0072 0.723042 54.3355C0.0622439 53.6639 -0.30957 52.7531 -0.30957 51.8032V46.4554C-0.30957 45.5045 0.0622439 44.5937 0.723042 43.9221C0.741449 43.9043 0.758935 43.8866 0.777342 43.8688ZM50.6253 41.1039L47.4943 7.21157C47.279 4.87069 45.2772 3.1239 42.9672 3.25935L39.4212 3.46766V38.5687H42.069C43.1715 38.5687 44.2584 38.8293 45.245 39.3291L48.7524 41.1039H50.6253ZM37.6909 3.56947L17.9333 4.73057C16.7249 4.80156 15.6324 5.48533 15.0259 6.54928L8.33327 18.3013L6.51285 24.6776V42.8731H26.3193C28.0118 40.195 30.932 38.5687 34.0731 38.5687H37.6909V35.0499H34.7155C33.3028 35.0499 32.157 33.8851 32.157 32.4493C32.157 31.0136 33.3028 29.8488 34.7155 29.8488H37.6909V3.56947ZM4.78263 24.5346L3.96813 25.9648L2.6042 40.8339L3.49784 42.8731H4.78263V24.5533C4.78263 24.5468 4.78263 24.5412 4.78263 24.5346ZM56.5357 41.1039V4.65117C56.5357 3.9263 55.9577 3.33875 55.2435 3.33875C54.5303 3.33875 53.9514 3.9263 53.9514 4.65117V41.1039H56.5357ZM59.6123 41.1039H164.106C166.329 41.1039 168.151 39.3627 168.324 37.1488H59.6123V41.1039ZM158.163 45.5129V44.0332H141.208C142.4 44.3527 143.519 44.8571 144.533 45.5129H158.163ZM148.592 49.9219H162.164C162.566 49.9219 162.892 49.5912 162.892 49.182C162.892 48.7738 162.566 48.4422 162.164 48.4422H147.653C148 48.9112 148.315 49.4044 148.592 49.9219ZM127.501 50.4431C127.843 49.7248 128.253 49.0466 128.723 48.417H62.2574C61.7806 48.417 61.3922 48.0228 61.3922 47.538V44.0332H52.223C52.2129 44.0332 52.2018 44.0332 52.1917 44.0332H50.19C50.9446 47.6753 52.6022 55.6778 52.6022 55.6778H60.8161V51.9087C60.8161 51.0998 61.4622 50.4431 62.2574 50.4431H127.501ZM130.327 46.659C131.692 45.4325 133.336 44.5199 135.15 44.0332H63.1234V46.659H130.327ZM146.38 51.9825C144.982 48.7916 141.834 46.5665 138.178 46.5665C133.226 46.5665 129.207 50.6505 129.207 55.6806C129.207 60.7118 133.226 64.7957 138.178 64.7957C143.131 64.7957 147.151 60.7118 147.151 55.6806C147.151 54.3645 146.875 53.1128 146.38 51.9825ZM94.0686 53.3734C93.5146 53.3734 92.9826 53.5966 92.5915 53.9955C92.1994 54.3944 91.9786 54.9334 91.9786 55.4976C91.9786 56.0599 92.1994 56.6007 92.5915 56.9987C92.9826 57.3966 93.5146 57.6208 94.0686 57.6208H109.483C110.038 57.6208 110.569 57.3966 110.961 56.9987C111.353 56.6007 111.573 56.0599 111.573 55.4976C111.573 54.9334 111.353 54.3944 110.961 53.9955C110.569 53.5966 110.038 53.3734 109.483 53.3734H94.0686ZM20.5056 52.4552L24.5403 45.8034H3.21622C3.04596 45.8034 2.88306 45.8716 2.7625 45.9949C2.64285 46.1163 2.57475 46.2816 2.57475 46.4554V51.8032C2.57475 51.976 2.64285 52.1413 2.7625 52.2637C2.88306 52.386 3.04596 52.4552 3.21622 52.4552H20.5056ZM37.6909 33.291V31.6077H34.7155C34.2581 31.6077 33.8872 31.9851 33.8872 32.4493C33.8872 32.9145 34.2581 33.291 34.7155 33.291H37.6909ZM18.2397 7.58428H33.8182C34.5535 7.58428 35.2585 7.88132 35.7785 8.41003C36.2985 8.9378 36.5902 9.65426 36.5902 10.4016V20.2956C36.5902 21.0429 36.2985 21.7585 35.7785 22.2872C35.2585 22.8149 34.5535 23.112 33.8182 23.112H27.3575C27.1633 23.112 26.9728 23.1671 26.8071 23.2717L22.5487 25.9629C22.1088 26.2403 21.6017 26.3879 21.0845 26.3879H15.1897C14.343 26.3879 13.5423 25.9946 13.0168 25.3202C12.4913 24.6458 12.2971 23.764 12.4913 22.9261L15.5413 9.75608C15.8358 8.48382 16.9531 7.58428 18.2397 7.58428ZM18.2397 9.34227C17.7565 9.34227 17.3369 9.68042 17.2255 10.1587L14.1755 23.3287C14.1028 23.6435 14.1755 23.9751 14.3734 24.2282C14.5713 24.4814 14.8713 24.6299 15.1897 24.6299H21.0845C21.2787 24.6299 21.4692 24.5748 21.6348 24.4702L25.8932 21.779C26.3331 21.5016 26.8402 21.354 27.3575 21.354H33.8182C34.0943 21.354 34.3593 21.2428 34.5544 21.0439C34.7505 20.8458 34.86 20.5759 34.86 20.2956V10.4016C34.86 10.1204 34.7505 9.85136 34.5544 9.6524C34.3593 9.45436 34.0943 9.34227 33.8182 9.34227H18.2397ZM138.166 49.6762C141.43 49.6762 144.078 52.3664 144.078 55.6806C144.078 58.9958 141.43 61.686 138.166 61.686C134.905 61.686 132.256 58.9958 132.256 55.6806C132.256 52.3664 134.905 49.6762 138.166 49.6762ZM138.166 51.4333C135.86 51.4333 133.987 53.337 133.987 55.6806C133.987 58.0253 135.86 59.928 138.166 59.928C140.475 59.928 142.347 58.0253 142.347 55.6806C142.347 53.337 140.475 51.4333 138.166 51.4333ZM37.3633 46.5665C32.4119 46.5665 28.391 50.6505 28.391 55.6806C28.391 60.7118 32.4119 64.7957 37.3633 64.7957C42.3147 64.7957 46.3356 60.7118 46.3356 55.6806C46.3356 50.6505 42.3147 46.5665 37.3633 46.5665ZM37.3513 49.6762C40.6139 49.6762 43.2626 52.3664 43.2626 55.6806C43.2626 58.9958 40.6139 61.686 37.3513 61.686C34.0897 61.686 31.441 58.9958 31.441 55.6806C31.441 52.3664 34.0897 49.6762 37.3513 49.6762ZM37.3513 51.4333C35.045 51.4333 33.1712 53.337 33.1712 55.6806C33.1712 58.0253 35.045 59.928 37.3513 59.928C39.6586 59.928 41.5324 58.0253 41.5324 55.6806C41.5324 53.337 39.6586 51.4333 37.3513 51.4333Z" fill="#2B2A63"/>
</g>
</svg>
