<svg width="132" height="121" viewBox="0 0 132 121" fill="none" xmlns="http://www.w3.org/2000/svg">
<mask id="mask0_169_915" style="mask-type:luminance" maskUnits="userSpaceOnUse" x="8" y="13" width="116" height="101">
<path d="M8.5918 13.2H123.358V113.544H8.5918V13.2Z" fill="white"/>
</mask>
<g mask="url(#mask0_169_915)">
<path fill-rule="evenodd" clip-rule="evenodd" d="M34.6935 26.1009V100.657C34.6935 101.615 33.9169 102.401 32.9556 102.401C31.9951 102.401 31.2159 101.615 31.2159 100.657V26.1009C31.2159 25.1295 31.9951 24.3573 32.9556 24.3573C33.9169 24.3573 34.6935 25.1295 34.6935 26.1009ZM56.0639 92.938V83.1825C61.4818 89.0384 69.1404 92.4854 77.3981 92.4854C93.4346 92.4854 106.482 79.4293 106.482 63.3787C106.482 47.3288 93.4353 34.2726 77.3981 34.2726C69.1824 34.2726 61.5194 37.6796 56.0639 43.5882V33.82C56.0639 31.5175 55.6858 29.308 54.9907 27.2455C61.175 23.3859 68.2543 21.2031 75.6583 20.8969V23.745C75.6583 24.717 76.4381 25.4885 77.3981 25.4885C78.3593 25.4885 79.1359 24.717 79.1359 23.745V20.8969C89.542 21.3228 98.9926 25.5019 106.168 32.1299L104.168 34.1262C103.076 35.2179 103.856 37.0939 105.4 37.0939C105.843 37.0939 106.289 36.9208 106.627 36.5885L108.628 34.5922C115.243 41.7657 119.422 51.2284 119.843 61.6358H116.996C116.037 61.6358 115.257 62.4207 115.257 63.3787C115.257 64.3367 116.037 65.1223 116.996 65.1223H119.843C119.422 75.5303 115.243 84.9796 108.628 92.1658L106.627 90.1695C105.949 89.491 104.848 89.491 104.17 90.1695C103.491 90.8488 103.491 91.9532 104.17 92.6185L106.168 94.6281C98.9932 101.243 89.542 105.435 79.1366 105.848V103C79.1366 102.041 78.3593 101.256 77.3981 101.256C76.4381 101.256 75.6583 102.041 75.6583 103V105.848C68.3065 105.555 61.2202 103.385 54.9932 99.4992C55.689 97.436 56.0639 95.2271 56.0639 92.938ZM35.4701 110.066C44.4248 110.066 51.7906 103.146 52.5208 94.3754L46.4969 98.2483C46.2047 98.4342 45.8813 98.5271 45.5579 98.5271C43.8264 98.5271 43.1631 96.2533 44.6151 95.3201L52.5857 90.1963V78.5642C52.5348 78.4846 52.4845 78.4044 52.4329 78.3114L46.4969 82.1309C46.204 82.3168 45.8813 82.4103 45.5579 82.4103C43.8264 82.4103 43.1625 80.1371 44.6151 79.2027L48.8337 76.4883C50.0464 75.5296 51.3055 74.718 52.5857 74.0521V62.1011L46.4969 66.0141C46.204 66.2134 45.8806 66.2936 45.5579 66.2936C43.836 66.2936 43.1574 64.0375 44.6145 63.0992L52.585 57.9621V45.9843L46.4962 49.9101C46.204 50.0966 45.8806 50.1895 45.5573 50.1895C43.8665 50.1895 43.1383 47.931 44.6145 46.9818L52.585 41.858V33.8194C52.585 32.5551 52.4437 31.3176 52.1846 30.133L46.4962 33.7926C46.204 33.9792 45.8806 34.0727 45.5573 34.0727C43.8277 34.0727 43.1606 31.8014 44.6145 30.865L45.3975 30.3596C47.0577 28.7491 48.8197 27.2849 50.667 25.9539C47.8158 20.4577 42.0752 16.6911 35.4695 16.6911H29.1846C22.2701 16.6911 16.3067 20.8167 13.6063 26.726L20.037 30.865C20.8474 31.3838 21.081 32.4622 20.5628 33.2738C20.0396 34.088 18.9676 34.3121 18.1578 33.7933L12.4694 30.133C12.2078 31.3176 12.0665 32.5551 12.0665 33.82V41.8587L20.037 46.9825C20.8474 47.5013 21.081 48.5796 20.5628 49.3779C20.0287 50.2022 18.972 50.4327 18.1578 49.9101L12.0665 45.9843V57.9621L20.037 63.0992C20.8467 63.6187 21.081 64.6964 20.5622 65.4947C20.037 66.3063 18.951 66.5406 18.1578 66.0141L12.0665 62.1011V74.0789L20.0364 79.2027C20.8467 79.7221 21.081 80.7998 20.5622 81.6121C20.0396 82.4256 18.9676 82.6503 18.1572 82.1309L12.0658 78.2185V90.1963L20.0364 95.3201C20.8461 95.8395 21.0804 96.9172 20.5616 97.7295C20.0389 98.543 18.9669 98.7678 18.1572 98.2483L12.1308 94.3754C12.8641 103.146 20.2293 110.067 29.1839 110.067H35.4701V110.066ZM58.085 46.5432C57.3632 47.3816 56.6865 48.2734 56.0639 49.2047V63.9249C58.6427 62.527 60.4525 60.4906 61.2558 58.0289C62.4475 54.3553 61.2654 50.15 58.085 46.5432ZM56.0639 76.275V77.5527C59.7026 83.0495 65.2497 86.8689 71.5823 88.333C72.0897 83.4753 70.5899 79.323 67.4204 77.0205C64.4107 74.8243 60.2303 74.6384 56.0639 76.275ZM102.918 65.4686C103.491 58.3599 101.13 51.6492 96.6996 46.5566C93.5276 50.1634 92.3467 54.3559 93.5384 58.0289C94.739 61.7287 98.1905 64.4303 102.918 65.4686ZM83.2125 88.333C90.0512 86.7359 95.846 82.397 99.3637 76.5278C89.9519 72.3856 82.1418 78.0944 83.2125 88.333ZM67.4777 39.7421C72.6543 48.4701 82.1501 48.4619 87.3114 39.7561C81.0202 37.0933 73.8059 37.0958 67.4777 39.7421ZM64.3617 41.2998C63.0102 42.1114 61.7307 43.03 60.5403 44.081C64.6634 48.6458 66.1664 54.156 64.5609 59.1066C63.3069 62.9662 60.3092 66.0141 56.0639 67.7838V72.5886C60.9235 71.045 65.7997 71.537 69.4664 74.1992C73.7117 77.2866 75.7239 82.6898 75.0211 88.8919C76.6902 89.0333 78.1059 89.0339 79.7731 88.8919C78.2867 75.8129 88.9684 68.0149 100.952 73.427C101.568 71.9896 102.054 70.4727 102.4 68.9156C96.3317 67.6514 91.847 64.0713 90.2327 59.1066C88.6311 54.1694 90.1257 48.6598 94.2367 44.0943C93.0572 43.0567 91.7789 42.1248 90.4224 41.3265C83.9204 52.5786 70.87 52.5856 64.3617 41.2998ZM110.079 95.6797C118.285 87.375 123.361 75.9561 123.361 63.3793C123.361 50.8025 118.285 39.3837 110.079 31.0656L109.681 30.6658C101.373 22.468 89.9685 17.3837 77.3981 17.3837C68.8807 17.3837 60.7014 19.6995 53.587 24.025C50.0999 17.5836 43.2866 13.2052 35.4708 13.2052H29.1846C17.8281 13.2052 8.58887 22.4546 8.58887 33.8207V92.9386C8.58887 104.304 17.8281 113.541 29.1846 113.541H35.4701C43.2892 113.541 50.1024 109.162 53.5896 102.721C60.7567 107.073 68.9456 109.375 77.3974 109.375C89.9685 109.375 101.376 104.291 109.68 96.0795L110.079 95.6797ZM77.3981 58.9074C74.932 58.9074 72.9255 60.9037 72.9255 63.3787C72.9255 65.841 74.932 67.8506 77.3981 67.8506C79.8635 67.8506 81.8706 65.841 81.8706 63.3787C81.8706 60.9037 79.8635 58.9074 77.3981 58.9074ZM77.3981 71.3378C81.7815 71.3378 85.3476 67.7577 85.3476 63.3787C85.3476 58.987 81.7815 55.4202 77.3981 55.4202C73.0159 55.4202 69.446 58.987 69.446 63.3787C69.446 67.7577 73.0159 71.3378 77.3981 71.3378Z" fill="#2E2D70"/>
</g>
</svg>
