<svg width="146" height="130" viewBox="0 0 146 130" fill="none" xmlns="http://www.w3.org/2000/svg">
<mask id="mask0_173_550" style="mask-type:luminance" maskUnits="userSpaceOnUse" x="7" y="27" width="131" height="98">
<path d="M7.22852 27.9382H137.953V124.456H7.22852V27.9382Z" fill="white"/>
</mask>
<g mask="url(#mask0_173_550)">
<path d="M122.69 56.0469C122.69 57.1734 121.777 58.0838 120.652 58.0838C119.528 58.0838 118.608 57.1713 118.608 56.0469C118.608 54.9231 119.512 54.0106 120.64 54.0106H120.655C121.78 54.0078 122.69 54.9203 122.69 56.0469ZM128.226 58.0838C128.061 58.6957 127.823 59.2737 127.525 59.8166H135.897C137.025 59.8166 137.935 60.7291 137.935 61.8535V69.6069C137.935 70.7335 137.022 71.6432 135.897 71.6432H90.9461L83.9721 84.4428L90.6609 93.3179V77.8772C90.6609 76.7506 91.5734 75.8409 92.6986 75.8409H115.634C116.093 75.8409 116.539 75.9965 116.902 76.2817L137.165 92.342C137.652 92.7292 137.937 93.3157 137.937 93.9375V114.368C137.937 115.495 137.025 116.405 135.899 116.405H122.833C121.887 120.998 117.806 124.461 112.933 124.461C108.063 124.461 103.988 120.998 103.042 116.405H59.0445C58.0982 120.998 54.0236 124.461 49.1527 124.461C44.2797 124.461 40.1995 120.998 39.2532 116.405H37.3205C36.3742 120.998 32.2968 124.461 27.421 124.461C22.5501 124.461 18.4749 120.998 17.5286 116.405H9.41182C8.28457 116.405 7.37418 115.492 7.37418 114.368V99.4047C7.37418 98.2782 8.28739 97.3678 9.41182 97.3678H24.1716V94.3782H9.41182C8.63661 94.3782 7.9276 93.9375 7.5833 93.2418C7.239 92.5455 7.32067 91.7146 7.79523 91.1007L13.7497 83.3444C14.1349 82.8424 14.734 82.5467 15.3663 82.5467H17.7912C17.4934 82.0038 17.2533 81.423 17.0899 80.8139H12.2296C9.55193 80.8139 7.37207 78.4841 7.37207 75.6192V67.6876C7.37207 64.9628 9.33789 62.7252 11.8318 62.5083C12.1099 55.9455 17.5363 50.6873 24.1716 50.6873H41.1374C42.8842 50.6873 44.4248 51.1711 45.8477 52.168L60.8758 62.6259C66.6923 63.4004 71.0457 67.351 72.3483 72.8894C72.3919 73.0246 72.425 73.1675 72.4405 73.3154C72.644 74.3145 72.7538 75.3622 72.7538 76.4479V78.7749C72.7538 79.9014 71.8413 80.8111 70.7162 80.8111H63.0381C62.8747 81.423 62.6354 82.0017 62.3368 82.5446H72.0019L84.3108 61.5881C83.3525 60.6298 82.6329 59.4293 82.271 58.081H77.4107C74.7351 58.081 72.5602 55.7462 72.5602 52.8792V44.9469C72.5602 42.2228 74.5239 39.9845 77.0129 39.7655C77.2931 33.1999 82.7195 27.9467 89.3527 27.9467H106.326C108.053 27.9467 109.59 28.429 111.023 29.4224L126.046 39.8852C131.871 40.6576 136.229 44.611 137.534 50.1621C137.578 50.2973 137.608 50.4346 137.624 50.5803C137.828 51.5815 137.937 52.6292 137.937 53.7177V56.0448C137.937 57.1713 137.025 58.081 135.899 58.081H128.226V58.0838ZM118.962 114.374C118.962 111.05 116.256 108.348 112.933 108.348C109.613 108.348 106.913 111.05 106.913 114.374C106.913 117.692 109.613 120.391 112.933 120.391C116.256 120.391 118.962 117.692 118.962 114.374ZM133.86 102.988H128.111V105.328H133.86V102.988ZM101.815 91.9033H130.047L114.925 79.9162H101.815V91.9033ZM94.7383 112.337H103.042C103.988 107.742 108.063 104.275 112.933 104.275C117.806 104.275 121.887 107.742 122.833 112.337H133.862V109.403H126.077C124.949 109.403 124.039 108.491 124.039 107.367V100.952C124.039 99.8251 124.952 98.9154 126.077 98.9154H133.862V95.9814H99.7775C98.6502 95.9814 97.7398 95.0689 97.7398 93.9452V79.9218H94.7383V112.337ZM99.8768 39.7479H118.712L108.695 32.7718C107.951 32.2571 107.218 32.0247 106.326 32.0247H99.8768V39.7479ZM81.098 39.7479H95.8015V32.0247H89.3527C84.9768 32.0247 81.3839 35.4403 81.098 39.7479ZM89.8526 48.1998C93.4759 48.1998 96.5337 50.6669 97.4336 54.0078H113.069C113.969 50.6669 117.026 48.1998 120.65 48.1998C124.273 48.1998 127.331 50.6669 128.232 54.0078H133.865V53.7199C133.865 53.4192 133.852 53.1235 133.829 52.8306H131.465C130.338 52.8306 129.427 51.9181 129.427 50.7944C129.427 49.6699 130.341 48.7574 131.465 48.7574H132.692C131.236 46.0101 128.52 44.2055 125.08 43.8795C125.051 43.8767 125.021 43.8739 124.993 43.8689C124.646 43.8387 124.294 43.8232 123.932 43.8232H77.4107C77.046 43.8232 76.6376 44.3048 76.6376 44.9497V46.8789H79.5222C80.6488 46.8789 81.5592 47.7914 81.5592 48.9159C81.5592 50.0396 80.6467 50.9521 79.5222 50.9521H76.6376V52.8813C76.6376 53.5262 77.046 54.0078 77.4107 54.0078H82.271C83.1708 50.6669 86.2287 48.1998 89.8526 48.1998ZM89.8526 59.8194C91.9332 59.8194 93.6266 58.1268 93.6266 56.0469C93.6266 53.9677 91.9332 52.2751 89.8526 52.2751C87.7713 52.2751 86.078 53.9677 86.078 56.0469C86.078 58.1268 87.7713 59.8194 89.8526 59.8194ZM113.066 58.0838H97.4315C97.2653 58.6957 97.0287 59.2737 96.7302 59.8166H113.767C113.469 59.2765 113.229 58.6957 113.066 58.0838ZM55.4565 82.5467C57.5377 82.5467 59.2311 80.8548 59.2311 78.7749C59.2311 76.695 57.5377 75.0024 55.4565 75.0024C53.3759 75.0024 51.6825 76.695 51.6825 78.7749C51.6825 80.8548 53.3759 82.5467 55.4565 82.5467ZM34.6964 62.4851H53.5392L43.5144 55.5097C42.7751 54.9921 42.0428 54.7626 41.1374 54.7626H34.6964V62.4851ZM15.9148 62.4851H30.6183V54.7626H24.1716C19.7936 54.7598 16.1999 58.1782 15.9148 62.4851ZM17.0899 76.738C17.9904 73.397 21.0483 70.9292 24.6716 70.9292C28.2955 70.9292 31.3527 73.397 32.2532 76.738H47.8805C48.7803 73.397 51.8381 70.9292 55.4614 70.9292C59.0853 70.9292 62.1432 73.397 63.043 76.738H68.6842V76.45C68.6842 76.1493 68.6715 75.8536 68.6483 75.5607H66.2769C65.1497 75.5607 64.2393 74.6482 64.2393 73.5245C64.2393 72.4001 65.1518 71.4876 66.2769 71.4876H67.5084C65.8939 68.4473 62.7318 66.561 58.7516 66.561H12.2296C11.8599 66.561 11.4495 67.0426 11.4495 67.6876V69.6168H14.3411C15.4684 69.6168 16.3788 70.5293 16.3788 71.653C16.3788 72.7774 15.4656 73.6899 14.3411 73.6899H11.4495V75.6192C11.4495 76.2796 11.8599 76.738 12.2296 76.738H17.0899ZM47.8776 80.8139H32.2504C32.0877 81.4251 31.8476 82.0038 31.5491 82.5467H48.5789C48.2804 82.0067 48.041 81.4251 47.8776 80.8139ZM24.6716 82.5467C26.7528 82.5467 28.4462 80.8548 28.4462 78.7749C28.4462 76.695 26.7528 75.0024 24.6716 75.0024C22.591 75.0024 20.8976 76.695 20.8976 78.7749C20.8976 80.8548 22.591 82.5467 24.6716 82.5467ZM33.4544 114.374C33.4544 111.05 30.7514 108.348 27.4259 108.348C24.1055 108.348 21.4053 111.05 21.4053 114.374C21.4053 117.692 24.1055 120.391 27.4259 120.391C30.7485 120.391 33.4544 117.692 33.4544 114.374ZM55.1762 114.374C55.1762 111.05 52.4753 108.348 49.1556 108.348C45.8301 108.348 43.1271 111.05 43.1271 114.374C43.1271 117.692 45.8323 120.391 49.1556 120.391C52.4753 120.391 55.1762 117.692 55.1762 114.374ZM90.6609 101.449H11.4495V112.337H17.5342C18.4798 107.742 22.5551 104.275 27.4259 104.275C32.299 104.275 36.3792 107.742 37.3254 112.337H39.2561C40.2017 107.742 44.2797 104.275 49.1556 104.275C54.0257 104.275 58.101 107.742 59.0473 112.337H90.663V101.449H90.6609ZM56.8034 97.3734V94.3831H28.2497V97.3734H56.8034ZM81.8295 88.3758L79.1371 93.3207C78.7801 93.9755 78.0936 94.3831 77.3466 94.3831H60.8808V97.3734H88.6127L81.8295 88.3758ZM133.86 63.8925H87.6876L74.9266 85.6158C74.5591 86.2403 73.8916 86.6227 73.1699 86.6227H16.3739L13.5427 90.3079H76.1328L79.7616 83.6507C79.7743 83.6303 79.7849 83.607 79.7975 83.5866L87.9453 68.6353C88.3022 67.9805 88.988 67.5728 89.7351 67.5728H133.86V63.8925ZM120.645 59.8194C122.726 59.8194 124.419 58.1268 124.419 56.0469C124.419 53.9677 122.726 52.2751 120.645 52.2751C118.564 52.2751 116.871 53.9677 116.871 56.0469C116.871 58.1268 118.564 59.8194 120.645 59.8194ZM24.6765 76.738H24.6617C23.5344 76.738 22.629 77.6505 22.629 78.7749C22.629 79.8986 23.5499 80.8111 24.6744 80.8111C25.7988 80.8111 26.712 79.8986 26.712 78.7749C26.712 77.6505 25.8037 76.738 24.6765 76.738ZM55.4642 76.738H55.4565C54.3292 76.738 53.4216 77.6505 53.4216 78.7749C53.4216 79.8986 54.337 80.8111 55.4642 80.8111C56.5914 80.8111 57.5018 79.8986 57.5018 78.7749C57.5018 77.6505 56.5914 76.738 55.4642 76.738ZM89.8576 54.0078H89.8421C88.7148 54.0078 87.8101 54.9203 87.8101 56.0448C87.8101 57.1685 88.7303 58.081 89.8548 58.081C90.9799 58.081 91.8924 57.1685 91.8924 56.0448C91.8924 54.9203 90.9848 54.0078 89.8576 54.0078ZM112.946 112.337H112.926C111.798 112.337 110.899 113.249 110.899 114.374C110.899 115.497 111.822 116.41 112.949 116.41C114.076 116.41 114.987 115.497 114.987 114.374C114.987 113.249 114.073 112.337 112.946 112.337ZM27.4386 112.337H27.4182C26.291 112.337 25.3911 113.249 25.3911 114.374C25.3911 115.497 26.3142 116.41 27.4414 116.41C28.568 116.41 29.4784 115.497 29.4784 114.374C29.4784 113.249 28.5659 112.337 27.4386 112.337ZM106.551 100.733C106.551 99.6061 105.638 98.6957 104.513 98.6957H99.7775C98.6502 98.6957 97.7398 99.6082 97.7398 100.733C97.7398 101.856 98.6531 102.769 99.7775 102.769H104.513C105.638 102.772 106.551 101.859 106.551 100.733ZM49.1605 112.337H49.1401C48.0128 112.337 47.1123 113.249 47.1123 114.374C47.1123 115.497 48.0361 116.41 49.1626 116.41C50.2898 116.41 51.2002 115.497 51.2002 114.374C51.2002 113.249 50.2877 112.337 49.1605 112.337Z" fill="#2B2A63"/>
</g>
</svg>
