<svg width="128" height="127" viewBox="0 0 128 127" fill="none" xmlns="http://www.w3.org/2000/svg">
<mask id="mask0_171_447" style="mask-type:luminance" maskUnits="userSpaceOnUse" x="14" y="15" width="107" height="97">
<path d="M14.6963 15.9938H120.881V111.994H14.6963V15.9938Z" fill="white"/>
</mask>
<g mask="url(#mask0_171_447)">
<path d="M110.473 111.989H55.5696C49.8307 111.989 45.1622 107.32 45.1622 101.581V55.124C45.1622 54.6037 45.3689 54.1049 45.7368 53.737L49.1535 50.3197L38.9424 40.1086C38.1763 39.3419 38.1763 38.1006 38.9424 37.3345L39.7029 36.574L29.1646 27.4327H16.7615C15.6782 27.4327 14.7998 26.5549 14.7998 25.4716V17.9654C14.7998 16.8821 15.6782 16.0037 16.7615 16.0037H33.4615C33.9202 16.0037 34.3652 16.1648 34.7177 16.4586L48.4084 27.8685L49.3949 26.8821C50.1609 26.116 51.4023 26.116 52.1683 26.8821L62.3801 37.0938L64.5696 34.9037C64.551 34.6154 64.5257 34.329 64.5257 34.0364V32.3074C64.5257 25.0487 70.4307 19.1438 77.6893 19.1438H98.0677C98.2807 19.1438 98.4881 19.1654 98.6986 19.1753C98.7801 19.1654 98.8597 19.1438 98.9436 19.1438H110.473C116.115 19.1438 120.881 24.016 120.881 29.7839V101.581C120.881 107.32 116.213 111.989 110.473 111.989ZM32.751 19.9271H18.7233V23.5092H29.8967C30.3689 23.5092 30.8245 23.6802 31.1819 23.9895L42.4844 33.7926L45.6226 30.6543L32.751 19.9271ZM50.7813 31.0432L43.1035 38.7216L51.9276 47.5456L59.606 39.8679L50.7813 31.0432ZM77.6899 23.0666C72.5949 23.0666 68.4492 27.2129 68.4492 32.3074V34.0364C68.4492 34.0777 68.4609 34.116 68.4615 34.1574H90.1813C91.1208 32.0216 93.2189 27.3993 95.5757 23.0666H77.6899ZM116.958 29.7839C116.958 26.1426 113.989 23.0666 110.473 23.0666H100.064C96.6152 29.0345 93.3091 36.803 93.2739 36.8851C92.9665 37.6092 92.256 38.0808 91.4683 38.0808H66.9405L49.0856 55.9364V101.581C49.0856 105.157 51.9943 108.066 55.5696 108.066H110.473C114.049 108.066 116.958 105.157 116.958 101.581V29.7839Z" fill="#2B2A63"/>
</g>
<path d="M111.272 104.611C110.896 104.956 110.42 105.127 109.946 105.127C109.416 105.127 108.887 104.913 108.5 104.491L94.8024 89.5686C93.6289 90.2679 92.2758 90.6957 90.8141 90.6957H75.2882C73.8265 90.6957 72.4734 90.2679 71.3005 89.5686L57.6024 104.491C57.2154 104.913 56.687 105.127 56.1561 105.127C55.6833 105.127 55.2067 104.956 54.8308 104.611C54.0326 103.878 53.9789 102.636 54.7116 101.838L68.5363 86.7772C67.8586 85.6173 67.4419 84.2864 67.4419 82.8488V64.8821C67.4419 63.4445 67.8586 62.1136 68.5363 60.9531L61.1228 52.8766C60.39 52.079 60.4437 50.8377 61.2413 50.105C62.0407 49.371 63.2808 49.426 64.0135 50.2235L71.2999 58.1618C72.4728 57.463 73.8265 57.0352 75.2882 57.0352H90.8141C92.2758 57.0352 93.6296 57.463 94.8024 58.1618L108.5 43.2389C109.233 42.442 110.474 42.3871 111.272 43.1198C112.07 43.8525 112.124 45.0945 111.391 45.892L97.5666 60.9531C98.2444 62.113 98.661 63.4445 98.661 64.8821V82.8488C98.661 84.2864 98.2444 85.6173 97.5666 86.7778L111.391 101.838C112.124 102.636 112.07 103.878 111.272 104.611ZM94.7376 64.8821C94.7376 62.7179 92.9783 60.9587 90.8141 60.9587H75.2882C73.1246 60.9587 71.3654 62.7179 71.3654 64.8821V82.8488C71.3654 85.0124 73.1246 86.7723 75.2882 86.7723H90.8141C92.9783 86.7723 94.7376 85.0124 94.7376 82.8488V64.8821Z" fill="#2B2A63"/>
<mask id="mask1_171_447" style="mask-type:luminance" maskUnits="userSpaceOnUse" x="7" y="32" width="17" height="24">
<path d="M7.10352 32.2371H23.2294V55.7827H7.10352V32.2371Z" fill="white"/>
</mask>
<g mask="url(#mask1_171_447)">
<path d="M16.6436 32.976C17.3171 33.7501 23.2245 40.7075 23.2245 46.6414C23.2245 52.3815 20.2862 55.6741 15.164 55.6741C10.0412 55.6741 7.10352 52.3815 7.10352 46.6414C7.10352 40.7075 13.0103 33.7501 13.6838 32.976C14.4294 32.1198 15.8986 32.1198 16.6436 32.976ZM15.164 51.7507C17.2097 51.7507 19.301 51.1433 19.301 46.6414C19.301 43.7698 16.9727 39.9143 15.164 37.4334C13.3554 39.9143 11.027 43.7698 11.027 46.6414C11.027 51.1433 13.1177 51.7507 15.164 51.7507Z" fill="#2B2A63"/>
</g>
<path d="M29.3136 51.8809C29.987 52.6549 35.8938 59.6123 35.8938 65.5457C35.8938 71.2858 32.9562 74.5784 27.8333 74.5784C22.7111 74.5784 19.7734 71.2864 19.7734 65.5457C19.7734 59.6123 25.6802 52.6549 26.3537 51.8809C27.0987 51.0265 28.5685 51.0265 29.3136 51.8809ZM27.8333 70.6549C29.8796 70.6549 31.9704 70.0475 31.9704 65.5457C31.9704 62.6728 29.6401 58.8179 27.8327 56.3358C26.0241 58.813 23.6963 62.6642 23.6963 65.5457C23.6963 70.0475 25.7876 70.6549 27.8333 70.6549Z" fill="#2B2A63"/>
</svg>
