<svg width="24" height="24" viewBox="0 0 24 24" fill="none" xmlns="http://www.w3.org/2000/svg">
<path d="M12 1.5C9.81276 1.50258 7.71584 2.3726 6.16922 3.91922C4.62261 5.46584 3.75259 7.56276 3.75001 9.75C3.74799 11.5373 4.33179 13.276 5.41201 14.7C5.41201 14.7 5.63701 14.9963 5.67376 15.039L12 22.5L18.3293 15.0353C18.3623 14.9955 18.588 14.7 18.588 14.7L18.5888 14.6978C19.6682 13.2743 20.2517 11.5365 20.25 9.75C20.2474 7.56276 19.3774 5.46584 17.8308 3.91922C16.2842 2.3726 14.1872 1.50258 12 1.5ZM15.1575 10.2765L12.0023 13.5L8.8425 10.2765C8.46311 9.88478 8.25097 9.36083 8.25097 8.8155C8.25097 8.27017 8.46311 7.74622 8.8425 7.3545C9.02844 7.16308 9.2509 7.01092 9.4967 6.90701C9.7425 6.8031 10.0066 6.74956 10.2735 6.74956C10.5404 6.74956 10.8045 6.8031 11.0503 6.90701C11.2961 7.01092 11.5186 7.16308 11.7045 7.3545L12.0023 7.65825L12.297 7.3545C12.4829 7.16308 12.7054 7.01092 12.9512 6.90701C13.197 6.8031 13.4611 6.74956 13.728 6.74956C13.9949 6.74956 14.259 6.8031 14.5048 6.90701C14.7506 7.01092 14.9731 7.16308 15.159 7.3545C15.5384 7.74622 15.7505 8.27017 15.7505 8.8155C15.7505 9.36083 15.5384 9.88478 15.159 10.2765" fill="url(#paint0_linear_211_1504)"/>
<defs>
<linearGradient id="paint0_linear_211_1504" x1="12" y1="1.5" x2="12" y2="22.5" gradientUnits="userSpaceOnUse">
<stop stop-color="#5856D6"/>
<stop offset="1" stop-color="#2E2D70"/>
</linearGradient>
</defs>
</svg>
