<svg width="225" height="225" viewBox="0 0 225 225" fill="none" xmlns="http://www.w3.org/2000/svg">
<path d="M100.383 162.829C101.466 162.829 102.343 161.95 102.343 160.867C102.343 159.783 101.466 158.904 100.383 158.904H69.5808C68.4979 158.904 67.6201 159.783 67.6201 160.867C67.6201 161.95 68.4979 162.829 69.5808 162.829H100.383Z" fill="url(#paint0_linear_314_191)"/>
<path d="M152.946 162.829C154.029 162.829 154.908 161.95 154.908 160.867C154.908 159.783 154.029 158.904 152.946 158.904H136.679C135.597 158.904 134.719 159.783 134.719 160.867C134.719 161.95 135.597 162.829 136.679 162.829H152.946Z" fill="url(#paint1_linear_314_191)"/>
<mask id="mask0_314_191" style="mask-type:luminance" maskUnits="userSpaceOnUse" x="158" y="148" width="26" height="26">
<path d="M158.333 148.056H183.889V173.553H158.333V148.056Z" fill="white"/>
</mask>
<g mask="url(#mask0_314_191)">
<path d="M171.087 148.32C164.173 148.32 158.548 153.949 158.548 160.867C158.548 167.784 164.173 173.415 171.087 173.415C178.001 173.415 183.628 167.784 183.628 160.867C183.628 153.949 178.001 148.32 171.087 148.32ZM171.087 169.491C166.335 169.491 162.469 165.623 162.469 160.867C162.469 156.112 166.335 152.245 171.087 152.245C175.841 152.245 179.707 156.112 179.707 160.867C179.707 165.623 175.841 169.491 171.087 169.491Z" fill="url(#paint2_linear_314_191)"/>
</g>
<mask id="mask1_314_191" style="mask-type:luminance" maskUnits="userSpaceOnUse" x="105" y="148" width="27" height="26">
<path d="M105.833 148.056H131.111V173.553H105.833V148.056Z" fill="white"/>
</mask>
<g mask="url(#mask1_314_191)">
<path d="M131.07 160.867C131.07 153.949 125.443 148.32 118.529 148.32C111.614 148.32 105.987 153.949 105.987 160.867C105.987 167.784 111.614 173.415 118.529 173.415C125.443 173.415 131.07 167.784 131.07 160.867ZM109.909 160.867C109.909 156.112 113.775 152.245 118.529 152.245C123.283 152.245 127.148 156.112 127.148 160.867C127.148 165.623 123.283 169.491 118.529 169.491C113.775 169.491 109.909 165.623 109.909 160.867Z" fill="url(#paint3_linear_314_191)"/>
</g>
<path d="M122.382 160.867C122.382 158.741 120.653 157.014 118.529 157.014C116.404 157.014 114.676 158.741 114.676 160.867C114.676 162.992 116.404 164.721 118.529 164.721C120.653 164.721 122.382 162.992 122.382 160.867Z" fill="url(#paint4_linear_314_191)"/>
<path d="M51.1392 164.721C53.2627 164.721 54.9912 162.992 54.9912 160.867C54.9912 158.741 53.2627 157.014 51.1392 157.014C49.0146 157.014 47.2861 158.741 47.2861 160.867C47.2861 162.992 49.0146 164.721 51.1392 164.721Z" fill="url(#paint5_linear_314_191)"/>
<path d="M171.087 157.014C168.963 157.014 167.236 158.741 167.236 160.867C167.236 162.992 168.963 164.721 171.087 164.721C173.212 164.721 174.94 162.992 174.94 160.867C174.94 158.741 173.212 157.014 171.087 157.014Z" fill="url(#paint6_linear_314_191)"/>
<mask id="mask2_314_191" style="mask-type:luminance" maskUnits="userSpaceOnUse" x="38" y="148" width="26" height="26">
<path d="M38.333 148.056H63.8886V173.553H38.333V148.056Z" fill="white"/>
</mask>
<g mask="url(#mask2_314_191)">
<path d="M51.1389 173.415C58.053 173.415 63.6801 167.784 63.6801 160.867C63.6801 153.949 58.053 148.32 51.1389 148.32C44.2248 148.32 38.5977 153.949 38.5977 160.867C38.5977 167.784 44.2248 173.415 51.1389 173.415ZM51.1389 152.245C55.8926 152.245 59.7587 156.112 59.7587 160.867C59.7587 165.623 55.8926 169.491 51.1389 169.491C46.3841 169.491 42.5191 165.623 42.5191 160.867C42.5191 156.112 46.3841 152.245 51.1389 152.245Z" fill="url(#paint7_linear_314_191)"/>
</g>
<path d="M169.77 110.558C169.336 108.94 167.862 107.808 166.185 107.808H158.803C156.755 107.808 155.091 109.474 155.091 111.523V128.243C155.091 130.292 156.755 131.957 158.803 131.957H170.693C173.139 131.957 174.918 129.631 174.276 127.275L169.77 110.558Z" fill="url(#paint8_linear_314_191)"/>
<path d="M25.6007 113.567C22.5473 119.555 24.9659 126.1 25.1667 126.596C26.4568 129.043 28.793 130.318 32.1166 130.39C32.1296 130.39 32.1448 130.39 32.1578 130.39C33.2222 130.39 34.0957 129.539 34.1185 128.468C34.1413 127.385 33.2808 126.489 32.199 126.465C29.8216 126.414 29.0664 125.578 28.7387 124.991C28.7225 124.941 27.0048 120.117 28.9416 115.749L31.7693 116.807C31.9863 116.886 32.2305 116.85 32.416 116.696L36.6239 113.217C36.9505 112.949 36.9397 112.436 36.5925 112.187L34.4234 110.596C35.9393 109.938 37.722 109.444 39.813 109.102C41.1964 108.902 42.4291 108.508 43.5912 107.895C47.8425 105.624 63.0269 98.1445 79.9497 97.2678C80.0517 97.271 92.5799 96.7546 106.138 106.485C107.959 107.772 109.901 108.517 111.903 108.695C117.186 109.183 127.061 110.345 133.892 112.663C133.984 112.692 134.084 112.748 134.178 112.788L132.356 114.142C131.967 114.435 132.022 115.043 132.467 115.258C132.538 115.291 134.198 116.119 134.726 118.333C134.806 118.671 135.143 118.907 135.525 118.816L138.253 118.107C138.677 119.634 138.536 121.247 137.795 122.697C136.947 124.355 135.454 125.607 133.698 126.128C132.658 126.434 132.066 127.528 132.375 128.566C132.684 129.603 133.766 130.208 134.811 129.888C137.591 129.066 139.953 127.094 141.288 124.486C142.717 121.692 142.713 118.534 141.84 116.349C140.478 112.263 137.857 109.814 135.119 108.938C127.942 106.501 117.719 105.292 112.258 104.786C110.946 104.669 109.651 104.163 108.415 103.289C93.6878 92.7235 80.3045 93.3236 79.7446 93.3496C62.0124 94.2687 46.1747 102.068 41.7531 104.431C41.0022 104.824 40.1851 105.082 39.2151 105.224C33.64 106.136 27.9683 108.439 25.6007 113.567Z" fill="url(#paint9_linear_314_191)"/>
<path d="M64.3699 130.363H102.227C103.31 130.363 104.188 129.485 104.188 128.402C104.188 127.319 103.31 126.44 102.227 126.44H64.3699C63.2881 126.44 62.4092 127.319 62.4092 128.402C62.4092 129.485 63.2881 130.363 64.3699 130.363Z" fill="url(#paint10_linear_314_191)"/>
<path d="M103.12 109.166C93.4362 103.118 85.883 101.294 78.8051 101.294C70.6834 101.461 62.7385 104.035 54.5137 109.166C53.9538 109.512 54.2077 110.373 54.8587 110.373H102.775C103.428 110.373 103.68 109.512 103.12 109.166Z" fill="url(#paint11_linear_314_191)"/>
<path d="M37.9814 127.134C37.9814 132.806 42.5952 137.422 48.2636 137.422C53.932 137.422 58.5457 132.806 58.5457 127.134C58.5457 121.464 53.932 116.847 48.2636 116.847C42.5952 116.847 37.9814 121.464 37.9814 127.134ZM54.6242 127.134C54.6242 130.645 51.7716 133.498 48.2636 133.498C44.7555 133.498 41.904 130.645 41.904 127.134C41.904 123.624 44.7555 120.771 48.2636 120.771C51.7716 120.771 54.6242 123.624 54.6242 127.134Z" fill="url(#paint12_linear_314_191)"/>
<path d="M51.2692 127.133C51.2692 127.332 51.2508 127.527 51.2117 127.72C51.1737 127.914 51.1162 128.102 51.0413 128.284C50.9654 128.468 50.8732 128.64 50.7625 128.805C50.6529 128.969 50.5281 129.121 50.3892 129.261C50.2492 129.401 50.0973 129.526 49.9335 129.635C49.7696 129.745 49.596 129.837 49.4137 129.913C49.2314 129.989 49.0437 130.046 48.8495 130.085C48.6564 130.123 48.46 130.142 48.2625 130.142C48.0661 130.142 47.8697 130.123 47.6765 130.085C47.4823 130.046 47.2946 129.989 47.1123 129.913C46.93 129.837 46.7564 129.745 46.5926 129.635C46.4287 129.526 46.2768 129.401 46.1368 129.261C45.9969 129.121 45.8732 128.969 45.7636 128.805C45.6529 128.64 45.5607 128.468 45.4847 128.284C45.4098 128.102 45.3523 127.914 45.3143 127.72C45.2753 127.527 45.2568 127.332 45.2568 127.133C45.2568 126.936 45.2753 126.74 45.3143 126.547C45.3523 126.353 45.4098 126.165 45.4847 125.982C45.5607 125.8 45.6529 125.627 45.7636 125.462C45.8732 125.298 45.9969 125.146 46.1368 125.007C46.2768 124.867 46.4287 124.742 46.5926 124.632C46.7564 124.523 46.93 124.43 47.1123 124.354C47.2946 124.278 47.4823 124.222 47.6765 124.183C47.8697 124.145 48.0661 124.125 48.2625 124.125C48.46 124.125 48.6564 124.145 48.8495 124.183C49.0437 124.222 49.2314 124.278 49.4137 124.354C49.596 124.43 49.7696 124.523 49.9335 124.632C50.0973 124.742 50.2492 124.867 50.3892 125.007C50.5281 125.146 50.6529 125.298 50.7625 125.462C50.8732 125.627 50.9654 125.8 51.0413 125.982C51.1162 126.165 51.1737 126.353 51.2117 126.547C51.2508 126.74 51.2692 126.936 51.2692 127.133Z" fill="url(#paint13_linear_314_191)"/>
<path d="M121.219 127.133C121.219 127.332 121.199 127.527 121.161 127.72C121.122 127.914 121.066 128.102 120.99 128.284C120.914 128.468 120.821 128.64 120.712 128.805C120.602 128.969 120.477 129.121 120.337 129.261C120.199 129.401 120.047 129.526 119.882 129.635C119.718 129.745 119.544 129.837 119.362 129.913C119.18 129.989 118.992 130.046 118.799 130.085C118.605 130.123 118.409 130.142 118.212 130.142C118.014 130.142 117.819 130.123 117.625 130.085C117.432 130.046 117.244 129.989 117.062 129.913C116.878 129.837 116.706 129.745 116.541 129.635C116.377 129.526 116.225 129.401 116.086 129.261C115.946 129.121 115.821 128.969 115.712 128.805C115.602 128.64 115.51 128.468 115.434 128.284C115.358 128.102 115.302 127.914 115.263 127.72C115.225 127.527 115.205 127.332 115.205 127.133C115.205 126.936 115.225 126.74 115.263 126.547C115.302 126.353 115.358 126.165 115.434 125.982C115.51 125.8 115.602 125.627 115.712 125.462C115.821 125.298 115.946 125.146 116.086 125.007C116.225 124.867 116.377 124.742 116.541 124.632C116.706 124.523 116.878 124.43 117.062 124.354C117.244 124.278 117.432 124.222 117.625 124.183C117.819 124.145 118.014 124.125 118.212 124.125C118.409 124.125 118.605 124.145 118.799 124.183C118.992 124.222 119.18 124.278 119.362 124.354C119.544 124.43 119.718 124.523 119.882 124.632C120.047 124.742 120.199 124.867 120.337 125.007C120.477 125.146 120.602 125.298 120.712 125.462C120.821 125.627 120.914 125.8 120.99 125.982C121.066 126.165 121.122 126.353 121.161 126.547C121.199 126.74 121.219 126.936 121.219 127.133Z" fill="url(#paint14_linear_314_191)"/>
<path d="M107.926 127.13C107.926 132.806 112.539 137.422 118.212 137.422C123.886 137.422 128.5 132.806 128.5 127.13C128.5 121.453 123.886 116.837 118.212 116.837C112.539 116.837 107.926 121.453 107.926 127.13ZM124.578 127.13C124.578 130.642 121.724 133.498 118.212 133.498C114.702 133.498 111.847 130.642 111.847 127.13C111.847 123.617 114.702 120.761 118.212 120.761C121.724 120.761 124.578 123.617 124.578 127.13Z" fill="url(#paint15_linear_314_191)"/>
<mask id="mask3_314_191" style="mask-type:luminance" maskUnits="userSpaceOnUse" x="97" y="51" width="75" height="43">
<path d="M97.7773 51.4692H171.111V93.3333H97.7773V51.4692Z" fill="white"/>
</mask>
<g mask="url(#mask3_314_191)">
<path d="M104.553 86.3878C103.128 86.3878 101.968 85.2279 101.968 83.8021C101.968 82.7192 101.09 81.8403 100.008 81.8403C98.9247 81.8403 98.0469 82.7192 98.0469 83.8021C98.0469 87.3915 100.966 90.3114 104.553 90.3114C108.137 90.3114 111.056 87.3915 111.056 83.8021C111.056 80.8973 109.143 78.4321 106.514 77.5966V72.8016H106.676C107.759 72.8016 108.637 71.9227 108.637 70.8398C108.637 69.7569 107.759 68.878 106.676 68.878H106.514V59.8253C106.887 59.6539 107.227 59.4238 107.533 59.1569L124.625 66.0156L123.78 68.1858C122.852 70.5848 124.041 73.2953 126.439 74.2296L153.582 84.8318V91.2489C153.582 92.3318 154.461 93.2107 155.543 93.2107C156.625 93.2107 157.504 92.3318 157.504 91.2489V63.7478C157.504 63.3366 157.839 63.0024 158.252 63.0024H166.396C166.81 63.0024 167.145 63.3366 167.145 63.7478V91.2489C167.145 92.3318 168.023 93.2107 169.106 93.2107C170.189 93.2107 171.067 92.3318 171.067 91.2489V63.7478C171.067 61.173 168.972 59.0777 166.396 59.0777H158.252C155.676 59.0777 153.582 61.173 153.582 63.7478V66.1382L132.783 57.9286C130.391 57.0009 127.675 58.189 126.737 60.5881L126.048 62.3578L108.991 55.5132C108.784 53.3279 106.961 51.6059 104.723 51.6059C102.349 51.6059 100.417 53.5395 100.417 55.9158C100.417 57.513 101.299 58.8943 102.591 59.6397V68.8878C101.533 68.9149 100.679 69.7743 100.679 70.8398C100.679 71.9054 101.533 72.7647 102.591 72.7919V79.2578C102.591 80.3407 103.47 81.2196 104.553 81.2196C105.974 81.2196 107.134 82.3795 107.134 83.8021C107.134 85.2279 105.974 86.3878 104.553 86.3878ZM131.354 61.582L153.582 70.3548V80.6228L127.864 70.5772C127.478 70.4264 127.286 69.9891 127.437 69.6083C128.12 67.8526 130.543 61.6243 130.391 62.0139C130.541 61.6298 130.975 61.4312 131.354 61.582Z" fill="url(#paint16_linear_314_191)"/>
</g>
<mask id="mask4_314_191" style="mask-type:luminance" maskUnits="userSpaceOnUse" x="22" y="96" width="172" height="68">
<path d="M22.5 96.9445H193.75V163.056H22.5V96.9445Z" fill="white"/>
</mask>
<g mask="url(#mask4_314_191)">
<path d="M189.828 128.149L184.274 124.994C183.394 124.495 182.755 123.617 182.559 122.62L178.295 102.083C177.711 99.2296 175.175 97.1604 172.265 97.1604H152.114C148.711 97.1604 145.943 99.9295 145.943 103.336V137.35C145.943 139.025 144.583 140.383 142.91 140.383H27.2562C24.563 140.383 22.3701 142.588 22.3701 145.298V157.942C22.3701 160.637 24.563 162.829 27.2562 162.829H32.4884C33.5702 162.829 34.4491 161.95 34.4491 160.867C34.4491 159.783 33.5702 158.904 32.4884 158.904H27.2562C26.7256 158.904 26.2916 158.473 26.2916 157.942V145.298C26.2916 144.752 26.7256 144.307 27.2562 144.307H142.91C146.745 144.307 149.865 141.185 149.865 137.35V103.336C149.865 102.094 150.874 101.085 152.114 101.085H172.265C173.337 101.085 174.238 101.821 174.455 102.875L178.713 123.397C179.13 125.515 180.455 127.342 182.344 128.409L187.895 131.565C189.006 132.193 189.698 133.385 189.698 134.676V136.196H187.446C184.568 136.196 182.23 138.538 182.23 141.418C182.23 144.297 184.568 146.64 187.446 146.64H189.698V158.904H189.239C188.156 158.904 187.278 159.783 187.278 160.867C187.278 161.95 188.156 162.829 189.239 162.829H191.658C192.741 162.829 193.62 161.95 193.62 160.867C193.62 149.452 193.62 139.009 193.62 134.676C193.62 131.974 192.167 129.473 189.828 128.149Z" fill="url(#paint17_linear_314_191)"/>
</g>
<path d="M65.878 219.432C66.3047 219.432 66.582 219.549 66.71 219.784C66.838 220.018 66.902 220.221 66.902 220.392V222.184C66.902 222.418 66.8273 222.632 66.678 222.824C66.5287 223.037 66.262 223.144 65.878 223.144H64.342C64.0007 223.144 63.734 223.048 63.542 222.856C63.3713 222.664 63.286 222.44 63.286 222.184V220.392C63.286 220.157 63.3713 219.933 63.542 219.72C63.7127 219.528 63.9793 219.432 64.342 219.432H65.878ZM60.886 219.432C61.3127 219.432 61.59 219.549 61.718 219.784C61.846 220.018 61.91 220.221 61.91 220.392V222.184C61.91 222.418 61.8353 222.632 61.686 222.824C61.5367 223.037 61.27 223.144 60.886 223.144H59.318C58.9553 223.144 58.6887 223.037 58.518 222.824C58.3687 222.632 58.294 222.418 58.294 222.184V220.392C58.294 220.221 58.358 220.018 58.486 219.784C58.6353 219.549 58.9127 219.432 59.318 219.432H60.886ZM58.678 214.312H67.83V203.432C67.83 202.728 67.958 202.045 68.214 201.384C68.4913 200.722 68.8753 200.125 69.366 199.592C69.878 199.058 70.4967 198.632 71.222 198.312C71.9473 197.992 72.758 197.832 73.654 197.832C74.55 197.832 75.35 197.992 76.054 198.312C76.7793 198.632 77.3873 199.058 77.878 199.592C78.39 200.125 78.774 200.733 79.03 201.416C79.3073 202.077 79.446 202.749 79.446 203.432V210.76H83.382V214.056H77.718C77.142 214.056 76.694 213.874 76.374 213.512C76.0753 213.128 75.926 212.754 75.926 212.392V203.432C75.926 202.813 75.702 202.28 75.254 201.832C74.8273 201.384 74.294 201.16 73.654 201.16C73.014 201.16 72.47 201.384 72.022 201.832C71.574 202.28 71.35 202.813 71.35 203.432V215.976C71.35 216.381 71.19 216.754 70.87 217.096C70.5713 217.437 70.1447 217.608 69.59 217.608H58.614C57.4833 217.608 56.47 217.394 55.574 216.968C54.678 216.562 53.91 216.018 53.27 215.336C52.6513 214.674 52.1713 213.928 51.83 213.096C51.4887 212.242 51.318 211.378 51.318 210.504C51.318 209.224 51.6593 207.997 52.342 206.824C53.046 205.629 54.0593 204.69 55.382 204.008C55.5313 203.901 55.67 203.826 55.798 203.784C55.862 203.741 55.958 203.698 56.086 203.656C56.214 203.592 56.3633 203.56 56.534 203.56C56.982 203.56 57.2913 203.741 57.462 204.104C57.5047 204.146 57.558 204.242 57.622 204.392C57.7073 204.541 57.7927 204.701 57.878 204.872C57.9207 204.957 57.9527 205.042 57.974 205.128C58.0167 205.192 58.0593 205.256 58.102 205.32C58.1233 205.384 58.1553 205.458 58.198 205.544C58.198 205.565 58.2087 205.608 58.23 205.672C58.2513 205.714 58.262 205.757 58.262 205.8C58.262 206.162 58.0807 206.429 57.718 206.6L57.078 206.952C56.374 207.314 55.8193 207.816 55.414 208.456C55.03 209.096 54.838 209.778 54.838 210.504C54.838 210.994 54.934 211.474 55.126 211.944C55.318 212.392 55.5847 212.797 55.926 213.16C56.2887 213.501 56.7047 213.778 57.174 213.992C57.6433 214.205 58.1447 214.312 58.678 214.312ZM89.6338 195.912C89.2498 195.912 88.9831 195.816 88.8338 195.624C88.6844 195.41 88.6098 195.197 88.6098 194.984V193.16C88.6098 192.989 88.6738 192.786 88.8018 192.552C88.9298 192.317 89.2071 192.2 89.6338 192.2H91.1698C91.5538 192.2 91.8204 192.306 91.9698 192.52C92.1404 192.733 92.2258 192.946 92.2258 193.16V194.984C92.2258 195.24 92.1298 195.464 91.9378 195.656C91.7671 195.826 91.5111 195.912 91.1698 195.912H89.6338ZM90.6578 213.128C90.2311 213.469 89.7298 213.714 89.1538 213.864C88.5991 213.992 88.0764 214.056 87.5858 214.056H82.2737V210.76H87.6498C88.0124 210.76 88.2684 210.674 88.4178 210.504C88.5671 210.333 88.6418 210.034 88.6418 209.608V199.4C88.6418 199.165 88.7271 198.941 88.8978 198.728C89.0684 198.514 89.3351 198.408 89.6978 198.408H91.1378C91.5218 198.408 91.7884 198.514 91.9378 198.728C92.1084 198.941 92.1938 199.165 92.1938 199.4V210.056C92.1938 210.418 92.4711 210.642 93.0258 210.728C93.1751 210.749 93.3138 210.76 93.4418 210.76C93.5911 210.76 93.7404 210.76 93.8898 210.76H95.7778V214.056H94.0818C93.4631 214.056 92.8551 213.992 92.2578 213.864C91.6818 213.736 91.1484 213.49 90.6578 213.128ZM103.729 215.656C104.113 215.656 104.379 215.752 104.529 215.944C104.699 216.157 104.785 216.381 104.785 216.616V218.408C104.785 218.664 104.699 218.888 104.529 219.08C104.358 219.272 104.091 219.368 103.729 219.368H102.193C101.83 219.368 101.563 219.261 101.393 219.048C101.243 218.856 101.169 218.642 101.169 218.408V216.616C101.169 216.445 101.233 216.242 101.361 216.008C101.51 215.773 101.787 215.656 102.193 215.656H103.729ZM100.177 210.76C100.859 210.76 101.201 210.386 101.201 209.64V199.4C101.201 199.208 101.265 198.994 101.393 198.76C101.521 198.525 101.798 198.408 102.225 198.408H103.697C104.123 198.408 104.401 198.525 104.529 198.76C104.657 198.994 104.72 199.208 104.72 199.4V210.056C104.72 210.418 104.998 210.642 105.553 210.728C105.702 210.749 105.841 210.76 105.969 210.76C106.118 210.76 106.267 210.76 106.417 210.76H108.305V214.056H106.609C105.99 214.056 105.382 213.992 104.785 213.864C104.187 213.714 103.643 213.458 103.153 213.096C102.321 213.736 101.318 214.056 100.145 214.056H94.9925V210.76H100.177ZM121.317 210.76C122.234 210.76 122.853 210.568 123.173 210.184C123.514 209.778 123.685 209.16 123.685 208.328V205.416C123.685 204.861 123.578 204.328 123.365 203.816C123.151 203.304 122.853 202.856 122.469 202.472C122.106 202.066 121.658 201.746 121.125 201.512C120.613 201.277 120.047 201.16 119.429 201.16C118.319 201.16 117.391 201.352 116.645 201.736C115.898 202.098 115.215 202.738 114.597 203.656C114.49 203.805 114.341 203.933 114.149 204.04C113.978 204.146 113.807 204.2 113.637 204.2C113.53 204.2 113.413 204.178 113.285 204.136C113.178 204.072 113.082 204.018 112.997 203.976C112.933 203.933 112.858 203.89 112.773 203.848C112.709 203.784 112.634 203.73 112.549 203.688C112.378 203.581 112.229 203.474 112.101 203.368C111.973 203.261 111.877 203.186 111.812 203.144C111.642 203.037 111.535 202.92 111.493 202.792C111.45 202.642 111.429 202.514 111.429 202.408C111.429 202.258 111.461 202.13 111.525 202.024C111.589 201.896 111.642 201.789 111.685 201.704C111.727 201.618 111.781 201.544 111.845 201.48C111.909 201.416 111.962 201.352 112.005 201.288C112.837 200.114 113.893 199.25 115.173 198.696C116.474 198.12 117.893 197.832 119.429 197.832C120.474 197.832 121.466 198.034 122.405 198.44C123.365 198.824 124.197 199.357 124.901 200.04C125.626 200.722 126.202 201.522 126.628 202.44C127.055 203.357 127.269 204.349 127.269 205.416V210.056C127.269 210.248 127.301 210.376 127.365 210.44C127.514 210.589 127.898 210.696 128.517 210.76H130.821V214.056H129.125C128.442 214.056 127.759 213.97 127.077 213.8C126.415 213.629 125.829 213.309 125.317 212.84C124.762 213.288 124.143 213.608 123.461 213.8C122.778 213.97 122.063 214.056 121.317 214.056H107.492V210.76H121.317ZM137.672 213.128C137.245 213.49 136.744 213.736 136.168 213.864C135.592 213.992 135.069 214.056 134.6 214.056H130.024V210.76H134.632C135.336 210.76 135.688 210.386 135.688 209.64V199.368C135.688 199.09 135.773 198.866 135.944 198.696C136.114 198.504 136.381 198.408 136.744 198.408H138.184C138.546 198.408 138.802 198.514 138.952 198.728C139.122 198.92 139.208 199.133 139.208 199.368V210.056C139.208 210.333 139.325 210.504 139.56 210.568C139.816 210.696 140.2 210.76 140.712 210.76H142.696C143.058 210.76 143.314 210.685 143.464 210.536C143.634 210.365 143.72 210.066 143.72 209.64V200.168C143.72 199.954 143.794 199.752 143.944 199.56C144.114 199.346 144.392 199.24 144.776 199.24H146.216C146.6 199.24 146.866 199.346 147.016 199.56C147.186 199.752 147.272 199.954 147.272 200.168V210.056C147.272 210.333 147.378 210.504 147.592 210.568C147.848 210.696 148.221 210.76 148.712 210.76H150.696C151.122 210.76 151.41 210.685 151.56 210.536C151.709 210.365 151.784 210.066 151.784 209.64V199.368C151.784 199.133 151.858 198.92 152.008 198.728C152.157 198.514 152.424 198.408 152.808 198.408H154.28C154.664 198.408 154.93 198.514 155.08 198.728C155.229 198.92 155.304 199.133 155.304 199.368V209.64C155.304 210.237 155.208 210.802 155.016 211.336C154.824 211.869 154.536 212.338 154.152 212.744C153.768 213.149 153.288 213.469 152.712 213.704C152.136 213.938 151.464 214.056 150.696 214.056H149.128C148.53 214.056 147.933 213.992 147.336 213.864C146.738 213.714 146.194 213.458 145.704 213.096C145.384 213.373 145.042 213.576 144.68 213.704C144.338 213.832 143.976 213.928 143.592 213.992C143.357 214.013 143.112 214.034 142.856 214.056C142.621 214.056 142.386 214.056 142.152 214.056H141.096C140.498 214.056 139.901 213.992 139.304 213.864C138.706 213.736 138.162 213.49 137.672 213.128ZM163.989 213.128C163.989 213.298 163.925 213.501 163.797 213.736C163.669 213.949 163.402 214.056 162.997 214.056H161.493C161.109 214.056 160.842 213.96 160.693 213.768C160.543 213.554 160.469 213.341 160.469 213.128V191.912C160.469 191.698 160.543 191.496 160.693 191.304C160.842 191.09 161.109 190.984 161.493 190.984H162.997C163.402 190.984 163.669 191.101 163.797 191.336C163.925 191.549 163.989 191.741 163.989 191.912V213.128Z" fill="#5856D6"/>
<defs>
<linearGradient id="paint0_linear_314_191" x1="84.9818" y1="158.904" x2="84.9818" y2="162.829" gradientUnits="userSpaceOnUse">
<stop stop-color="#5856D6"/>
<stop offset="1" stop-color="#2E2D70"/>
</linearGradient>
<linearGradient id="paint1_linear_314_191" x1="144.813" y1="158.904" x2="144.813" y2="162.829" gradientUnits="userSpaceOnUse">
<stop stop-color="#5856D6"/>
<stop offset="1" stop-color="#2E2D70"/>
</linearGradient>
<linearGradient id="paint2_linear_314_191" x1="171.088" y1="148.32" x2="171.088" y2="173.415" gradientUnits="userSpaceOnUse">
<stop stop-color="#5856D6"/>
<stop offset="1" stop-color="#2E2D70"/>
</linearGradient>
<linearGradient id="paint3_linear_314_191" x1="118.529" y1="148.32" x2="118.529" y2="173.415" gradientUnits="userSpaceOnUse">
<stop stop-color="#5856D6"/>
<stop offset="1" stop-color="#2E2D70"/>
</linearGradient>
<linearGradient id="paint4_linear_314_191" x1="118.529" y1="157.014" x2="118.529" y2="164.721" gradientUnits="userSpaceOnUse">
<stop stop-color="#5856D6"/>
<stop offset="1" stop-color="#2E2D70"/>
</linearGradient>
<linearGradient id="paint5_linear_314_191" x1="51.1387" y1="157.014" x2="51.1387" y2="164.721" gradientUnits="userSpaceOnUse">
<stop stop-color="#5856D6"/>
<stop offset="1" stop-color="#2E2D70"/>
</linearGradient>
<linearGradient id="paint6_linear_314_191" x1="171.088" y1="157.014" x2="171.088" y2="164.721" gradientUnits="userSpaceOnUse">
<stop stop-color="#5856D6"/>
<stop offset="1" stop-color="#2E2D70"/>
</linearGradient>
<linearGradient id="paint7_linear_314_191" x1="51.1389" y1="148.32" x2="51.1389" y2="173.415" gradientUnits="userSpaceOnUse">
<stop stop-color="#5856D6"/>
<stop offset="1" stop-color="#2E2D70"/>
</linearGradient>
<linearGradient id="paint8_linear_314_191" x1="164.749" y1="107.808" x2="164.749" y2="131.957" gradientUnits="userSpaceOnUse">
<stop stop-color="#5856D6"/>
<stop offset="1" stop-color="#2E2D70"/>
</linearGradient>
<linearGradient id="paint9_linear_314_191" x1="83.254" y1="93.3357" x2="83.254" y2="130.39" gradientUnits="userSpaceOnUse">
<stop stop-color="#5856D6"/>
<stop offset="1" stop-color="#2E2D70"/>
</linearGradient>
<linearGradient id="paint10_linear_314_191" x1="83.2984" y1="126.44" x2="83.2984" y2="130.363" gradientUnits="userSpaceOnUse">
<stop stop-color="#5856D6"/>
<stop offset="1" stop-color="#2E2D70"/>
</linearGradient>
<linearGradient id="paint11_linear_314_191" x1="78.8172" y1="101.294" x2="78.8172" y2="110.373" gradientUnits="userSpaceOnUse">
<stop stop-color="#5856D6"/>
<stop offset="1" stop-color="#2E2D70"/>
</linearGradient>
<linearGradient id="paint12_linear_314_191" x1="48.2636" y1="116.847" x2="48.2636" y2="137.422" gradientUnits="userSpaceOnUse">
<stop stop-color="#5856D6"/>
<stop offset="1" stop-color="#2E2D70"/>
</linearGradient>
<linearGradient id="paint13_linear_314_191" x1="48.263" y1="124.125" x2="48.263" y2="130.142" gradientUnits="userSpaceOnUse">
<stop stop-color="#5856D6"/>
<stop offset="1" stop-color="#2E2D70"/>
</linearGradient>
<linearGradient id="paint14_linear_314_191" x1="118.212" y1="124.125" x2="118.212" y2="130.142" gradientUnits="userSpaceOnUse">
<stop stop-color="#5856D6"/>
<stop offset="1" stop-color="#2E2D70"/>
</linearGradient>
<linearGradient id="paint15_linear_314_191" x1="118.213" y1="116.837" x2="118.213" y2="137.422" gradientUnits="userSpaceOnUse">
<stop stop-color="#5856D6"/>
<stop offset="1" stop-color="#2E2D70"/>
</linearGradient>
<linearGradient id="paint16_linear_314_191" x1="134.557" y1="51.6059" x2="134.557" y2="93.2107" gradientUnits="userSpaceOnUse">
<stop stop-color="#5856D6"/>
<stop offset="1" stop-color="#2E2D70"/>
</linearGradient>
<linearGradient id="paint17_linear_314_191" x1="107.995" y1="97.1604" x2="107.995" y2="162.829" gradientUnits="userSpaceOnUse">
<stop stop-color="#5856D6"/>
<stop offset="1" stop-color="#2E2D70"/>
</linearGradient>
</defs>
</svg>
