<svg width="22" height="23" viewBox="0 0 22 23" fill="none" xmlns="http://www.w3.org/2000/svg">
<path fill-rule="evenodd" clip-rule="evenodd" d="M20.9995 16.4738V19.4846C21.0017 20.0498 20.7761 20.5898 20.3783 20.9718C19.9804 21.3539 19.4471 21.5427 18.9094 21.4918C15.9591 21.1563 13.1252 20.101 10.6353 18.4108C8.31882 16.8699 6.35482 14.8141 4.88281 12.3892C3.26249 9.77099 2.25413 6.79008 1.93943 3.68795C1.89099 3.12681 2.07008 2.57019 2.43296 2.15407C2.79585 1.73794 3.3091 1.50063 3.84735 1.5001H6.72362C7.68608 1.49018 8.50642 2.22868 8.64113 3.22629C8.76253 4.18982 8.98767 5.13587 9.31225 6.04641C9.57566 6.77992 9.40718 7.60682 8.88081 8.16401L7.6632 9.43859C9.02804 11.9512 11.0154 14.0315 13.4157 15.4602L14.6333 14.1856C15.1656 13.6346 15.9556 13.4583 16.6563 13.734C17.5262 14.0738 18.4299 14.3094 19.3504 14.4365C20.3145 14.5789 21.0236 15.455 20.9995 16.4738Z" stroke="#6938D3" stroke-width="2" stroke-linecap="round" stroke-linejoin="round"/>
</svg>
