<svg width="103" height="104" viewBox="0 0 103 104" fill="none" xmlns="http://www.w3.org/2000/svg">
<g filter="url(#filter0_d_87_332)">
<g clip-path="url(#clip0_87_332)">
<rect x="8" y="8.5" width="79" height="79" rx="39.5" fill="#5856D6"/>
<mask id="mask0_87_332" style="mask-type:luminance" maskUnits="userSpaceOnUse" x="20" y="39" width="59" height="23">
<path d="M20.6001 39.2457H78.4445V61.5765H20.6001V39.2457Z" fill="white"/>
</mask>
<g mask="url(#mask0_87_332)">
<path d="M77.1196 49.7858L75.2438 48.72C74.9466 48.5518 74.7307 48.2549 74.6644 47.9185L73.224 40.9815C73.0268 40.0176 72.1703 39.3186 71.1873 39.3186H64.3808C63.2314 39.3186 62.2964 40.254 62.2964 41.4044V52.8939C62.2964 53.4594 61.8368 53.9183 61.272 53.9183H22.2066C21.2969 53.9183 20.5562 54.663 20.5562 55.5786V59.8492C20.5562 60.7596 21.2969 61.4999 22.2066 61.4999H23.9739C24.3393 61.4999 24.6362 61.2031 24.6362 60.8373C24.6362 60.4711 24.3393 60.1743 23.9739 60.1743H22.2066C22.0273 60.1743 21.8807 60.0288 21.8807 59.8492V55.5786C21.8807 55.3939 22.0273 55.2436 22.2066 55.2436H61.272C62.5673 55.2436 63.621 54.1891 63.621 52.8939V41.4044C63.621 40.9852 63.9618 40.6443 64.3808 40.6443H71.1873C71.5494 40.6443 71.8536 40.8928 71.9269 41.249L73.3654 48.1809C73.5062 48.8963 73.9537 49.5132 74.5918 49.8738L76.4669 50.9396C76.8422 51.1518 77.0757 51.5546 77.0757 51.9904V52.5039H76.3151C75.3432 52.5039 74.5533 53.2952 74.5533 54.2679C74.5533 55.2403 75.3432 56.0316 76.3151 56.0316H77.0757V60.1743H76.9206C76.5548 60.1743 76.2583 60.4711 76.2583 60.8373C76.2583 61.2031 76.5548 61.4999 76.9206 61.4999H77.7379C78.1037 61.4999 78.4006 61.2031 78.4006 60.8373C78.4006 56.9816 78.4006 53.4543 78.4006 51.9904C78.4006 51.0778 77.9098 50.233 77.1196 49.7858Z" fill="white"/>
</g>
<path d="M46.9073 61.4999C47.2731 61.4999 47.5696 61.2031 47.5696 60.8373C47.5696 60.4711 47.2731 60.1743 46.9073 60.1743H36.5031C36.1373 60.1743 35.8408 60.4711 35.8408 60.8373C35.8408 61.2031 36.1373 61.4999 36.5031 61.4999H46.9073Z" fill="white"/>
<path d="M64.6616 61.4999C65.0273 61.4999 65.3242 61.2031 65.3242 60.8373C65.3242 60.4711 65.0273 60.1743 64.6616 60.1743H59.1672C58.8014 60.1743 58.5049 60.4711 58.5049 60.8373C58.5049 61.2031 58.8014 61.4999 59.1672 61.4999H64.6616Z" fill="white"/>
<mask id="mask1_87_332" style="mask-type:luminance" maskUnits="userSpaceOnUse" x="66" y="56" width="10" height="10">
<path d="M66.4814 56.5099H75.1135V65.1222H66.4814V56.5099Z" fill="white"/>
</mask>
<g mask="url(#mask1_87_332)">
<path d="M70.7896 56.5993C68.4542 56.5993 66.5542 58.5004 66.5542 60.8373C66.5542 63.1738 68.4542 65.0757 70.7896 65.0757C73.125 65.0757 75.0258 63.1738 75.0258 60.8373C75.0258 58.5004 73.125 56.5993 70.7896 56.5993ZM70.7896 63.7503C69.1847 63.7503 67.8788 62.4437 67.8788 60.8373C67.8788 59.2312 69.1847 57.925 70.7896 57.925C72.3953 57.925 73.7012 59.2312 73.7012 60.8373C73.7012 62.4437 72.3953 63.7503 70.7896 63.7503Z" fill="white"/>
</g>
<mask id="mask2_87_332" style="mask-type:luminance" maskUnits="userSpaceOnUse" x="48" y="56" width="10" height="10">
<path d="M48.748 56.5099H57.2863V65.1222H48.748V56.5099Z" fill="white"/>
</mask>
<g mask="url(#mask2_87_332)">
<path d="M57.2726 60.8373C57.2726 58.5004 55.3719 56.5993 53.0364 56.5993C50.701 56.5993 48.8003 58.5004 48.8003 60.8373C48.8003 63.1738 50.701 65.0757 53.0364 65.0757C55.3719 65.0757 57.2726 63.1738 57.2726 60.8373ZM50.1249 60.8373C50.1249 59.2312 51.4308 57.925 53.0364 57.925C54.6425 57.925 55.948 59.2312 55.948 60.8373C55.948 62.4437 54.6425 63.7503 53.0364 63.7503C51.4308 63.7503 50.1249 62.4437 50.1249 60.8373Z" fill="white"/>
</g>
<path d="M54.3378 60.8373C54.3378 60.1193 53.754 59.5358 53.0363 59.5358C52.3187 59.5358 51.7349 60.1193 51.7349 60.8373C51.7349 61.5549 52.3187 62.1391 53.0363 62.1391C53.754 62.1391 54.3378 61.5549 54.3378 60.8373Z" fill="white"/>
<path d="M30.2737 62.1391C30.9909 62.1391 31.5748 61.5549 31.5748 60.8373C31.5748 60.1193 30.9909 59.5358 30.2737 59.5358C29.556 59.5358 28.9722 60.1193 28.9722 60.8373C28.9722 61.5549 29.556 62.1391 30.2737 62.1391Z" fill="white"/>
<path d="M70.7895 59.5358C70.0719 59.5358 69.4888 60.1193 69.4888 60.8373C69.4888 61.5549 70.0719 62.1391 70.7895 62.1391C71.5072 62.1391 72.091 61.5549 72.091 60.8373C72.091 60.1193 71.5072 59.5358 70.7895 59.5358Z" fill="white"/>
<mask id="mask3_87_332" style="mask-type:luminance" maskUnits="userSpaceOnUse" x="25" y="56" width="10" height="10">
<path d="M25.9482 56.5099H34.5803V65.1222H25.9482V56.5099Z" fill="white"/>
</mask>
<g mask="url(#mask3_87_332)">
<path d="M30.2737 65.0757C32.6092 65.0757 34.5099 63.1738 34.5099 60.8373C34.5099 58.5004 32.6092 56.5993 30.2737 56.5993C27.9383 56.5993 26.0376 58.5004 26.0376 60.8373C26.0376 63.1738 27.9383 65.0757 30.2737 65.0757ZM30.2737 57.925C31.8794 57.925 33.1853 59.2312 33.1853 60.8373C33.1853 62.4437 31.8794 63.7503 30.2737 63.7503C28.6677 63.7503 27.3622 62.4437 27.3622 60.8373C27.3622 59.2312 28.6677 57.925 30.2737 57.925Z" fill="white"/>
</g>
<path d="M70.3444 43.8439C70.1978 43.2975 69.7001 42.9152 69.1335 42.9152H66.6401C65.9485 42.9152 65.3862 43.4778 65.3862 44.1701V49.8177C65.3862 50.5097 65.9485 51.0723 66.6401 51.0723H70.6563C71.4824 51.0723 72.0835 50.2865 71.8665 49.4908L70.3444 43.8439Z" fill="white"/>
<path d="M21.6475 44.8603C20.6161 46.8831 21.4331 49.0939 21.5009 49.2614C21.9367 50.0879 22.7258 50.5185 23.8484 50.5427C23.8528 50.5427 23.8579 50.5427 23.8623 50.5427C24.2219 50.5427 24.5169 50.2554 24.5246 49.8936C24.5323 49.5278 24.2417 49.2251 23.8762 49.217C23.0732 49.1998 22.8181 48.9176 22.7074 48.7193C22.7019 48.7024 22.1217 47.0729 22.776 45.5973L23.7311 45.9547C23.8044 45.9815 23.8869 45.9694 23.9495 45.9173L25.3709 44.7423C25.4812 44.6517 25.4775 44.4784 25.3602 44.3945L24.6276 43.8568C25.1396 43.6347 25.7418 43.4679 26.4481 43.3521C26.9154 43.2847 27.3317 43.1516 27.7243 42.9445C29.1602 42.1774 34.2892 39.6511 40.0054 39.3549C40.0398 39.356 44.2716 39.1815 48.8511 42.4684C49.4661 42.9031 50.1222 43.1545 50.7984 43.2147C52.583 43.3796 55.9186 43.7721 58.2258 44.555C58.2569 44.5649 58.2907 44.5839 58.3225 44.5971L57.7072 45.0545C57.5756 45.1535 57.5943 45.3591 57.7445 45.4317C57.7684 45.4427 58.3291 45.7223 58.5076 46.4704C58.5347 46.5844 58.6484 46.6643 58.7774 46.6335L59.6988 46.3938C59.8421 46.9098 59.7945 47.4545 59.5441 47.9445C59.2579 48.5045 58.7536 48.9271 58.1602 49.1034C57.8091 49.2068 57.6089 49.5762 57.7134 49.9266C57.8179 50.277 58.1833 50.4815 58.5362 50.3734C59.4752 50.0956 60.2731 49.4296 60.7239 48.5485C61.2066 47.6047 61.2055 46.5382 60.9105 45.8C60.4505 44.4201 59.565 43.5929 58.6403 43.2967C56.2162 42.4736 52.7629 42.0653 50.9183 41.8945C50.4751 41.8549 50.0379 41.6841 49.6204 41.3887C44.6458 37.82 40.1252 38.0226 39.9361 38.0314C33.9465 38.3419 28.5969 40.9764 27.1034 41.7746C26.8498 41.9073 26.5738 41.9945 26.2461 42.0422C24.363 42.3504 22.4472 43.1282 21.6475 44.8603Z" fill="white"/>
<path d="M34.7429 50.5339H47.5301C47.8959 50.5339 48.1924 50.237 48.1924 49.8712C48.1924 49.5055 47.8959 49.2086 47.5301 49.2086H34.7429C34.3774 49.2086 34.0806 49.5055 34.0806 49.8712C34.0806 50.237 34.3774 50.5339 34.7429 50.5339Z" fill="white"/>
<path d="M47.8321 43.3737C44.561 41.3311 42.0097 40.715 39.6189 40.715C36.8756 40.7711 34.192 41.6408 31.4138 43.3737C31.2247 43.4906 31.3105 43.7816 31.5304 43.7816H47.7155C47.9358 43.7816 48.0212 43.4906 47.8321 43.3737Z" fill="white"/>
<path d="M25.8296 49.4432C25.8296 51.3589 27.388 52.9181 29.3027 52.9181C31.2173 52.9181 32.7757 51.3589 32.7757 49.4432C32.7757 47.5278 31.2173 45.9682 29.3027 45.9682C27.388 45.9682 25.8296 47.5278 25.8296 49.4432ZM31.4512 49.4432C31.4512 50.6288 30.4876 51.5927 29.3027 51.5927C28.1177 51.5927 27.1545 50.6288 27.1545 49.4432C27.1545 48.2575 28.1177 47.2939 29.3027 47.2939C30.4876 47.2939 31.4512 48.2575 31.4512 49.4432Z" fill="white"/>
<path d="M30.3175 49.4428C30.3175 49.5099 30.3112 49.5758 30.298 49.6411C30.2852 49.7067 30.2658 49.7701 30.2405 49.8317C30.2148 49.8936 30.1837 49.9519 30.1463 50.0076C30.1093 50.0629 30.0671 50.1142 30.0202 50.1615C29.9729 50.2088 29.9216 50.251 29.8663 50.288C29.8109 50.325 29.7523 50.3561 29.6907 50.3818C29.6292 50.4075 29.5657 50.4265 29.5001 50.4397C29.4349 50.4525 29.3686 50.4591 29.3019 50.4591C29.2355 50.4591 29.1692 50.4525 29.1039 50.4397C29.0383 50.4265 28.9749 50.4075 28.9134 50.3818C28.8518 50.3561 28.7931 50.325 28.7378 50.288C28.6825 50.251 28.6311 50.2088 28.5839 50.1615C28.5366 50.1142 28.4948 50.0629 28.4578 50.0076C28.4204 49.9519 28.3892 49.8936 28.3636 49.8317C28.3383 49.7701 28.3189 49.7067 28.306 49.6411C28.2929 49.5758 28.2866 49.5099 28.2866 49.4428C28.2866 49.3761 28.2929 49.3101 28.306 49.2449C28.3189 49.1793 28.3383 49.1159 28.3636 49.0539C28.3892 48.9923 28.4204 48.9341 28.4578 48.8784C28.4948 48.823 28.5366 48.7717 28.5839 48.7244C28.6311 48.6771 28.6825 48.635 28.7378 48.598C28.7931 48.561 28.8518 48.5298 28.9134 48.5042C28.9749 48.4785 29.0383 48.4594 29.1039 48.4462C29.1692 48.4334 29.2355 48.4268 29.3019 48.4268C29.3686 48.4268 29.4349 48.4334 29.5001 48.4462C29.5657 48.4594 29.6292 48.4785 29.6907 48.5042C29.7523 48.5298 29.8109 48.561 29.8663 48.598C29.9216 48.635 29.9729 48.6771 30.0202 48.7244C30.0671 48.7717 30.1093 48.823 30.1463 48.8784C30.1837 48.9341 30.2148 48.9923 30.2405 49.0539C30.2658 49.1159 30.2852 49.1793 30.298 49.2449C30.3112 49.3101 30.3175 49.3761 30.3175 49.4428Z" fill="white"/>
<path d="M53.9448 49.4428C53.9448 49.5099 53.9382 49.5758 53.9254 49.6411C53.9122 49.7067 53.8931 49.7701 53.8675 49.8317C53.8418 49.8936 53.8106 49.9519 53.7736 50.0076C53.7366 50.0629 53.6945 50.1142 53.6472 50.1615C53.6003 50.2088 53.549 50.251 53.4932 50.288C53.4379 50.325 53.3793 50.3561 53.3177 50.3818C53.2561 50.4075 53.1927 50.4265 53.1275 50.4397C53.0619 50.4525 52.9959 50.4591 52.9292 50.4591C52.8625 50.4591 52.7965 50.4525 52.7309 50.4397C52.6657 50.4265 52.6023 50.4075 52.5407 50.3818C52.4787 50.3561 52.4205 50.325 52.3648 50.288C52.3094 50.251 52.2581 50.2088 52.2112 50.1615C52.1639 50.1142 52.1218 50.0629 52.0847 50.0076C52.0477 49.9519 52.0166 49.8936 51.9909 49.8317C51.9653 49.7701 51.9462 49.7067 51.933 49.6411C51.9202 49.5758 51.9136 49.5099 51.9136 49.4428C51.9136 49.3761 51.9202 49.3101 51.933 49.2449C51.9462 49.1793 51.9653 49.1159 51.9909 49.0539C52.0166 48.9923 52.0477 48.9341 52.0847 48.8784C52.1218 48.823 52.1639 48.7717 52.2112 48.7244C52.2581 48.6771 52.3094 48.635 52.3648 48.598C52.4205 48.561 52.4787 48.5298 52.5407 48.5042C52.6023 48.4785 52.6657 48.4594 52.7309 48.4462C52.7965 48.4334 52.8625 48.4268 52.9292 48.4268C52.9959 48.4268 53.0619 48.4334 53.1275 48.4462C53.1927 48.4594 53.2561 48.4785 53.3177 48.5042C53.3793 48.5298 53.4379 48.561 53.4932 48.598C53.549 48.635 53.6003 48.6771 53.6472 48.7244C53.6945 48.7717 53.7366 48.823 53.7736 48.8784C53.8106 48.9341 53.8418 48.9923 53.8675 49.0539C53.8931 49.1159 53.9122 49.1793 53.9254 49.2449C53.9382 49.3101 53.9448 49.3761 53.9448 49.4428Z" fill="white"/>
<path d="M49.4546 49.4417C49.4546 51.3589 51.013 52.9181 52.9291 52.9181C54.8456 52.9181 56.404 51.3589 56.404 49.4417C56.404 47.5241 54.8456 45.965 52.9291 45.965C51.013 45.965 49.4546 47.5241 49.4546 49.4417ZM55.0795 49.4417C55.0795 50.6281 54.1152 51.5927 52.9291 51.5927C51.7435 51.5927 50.7792 50.6281 50.7792 49.4417C50.7792 48.2549 51.7435 47.2903 52.9291 47.2903C54.1152 47.2903 55.0795 48.2549 55.0795 49.4417Z" fill="white"/>
<mask id="mask4_87_332" style="mask-type:luminance" maskUnits="userSpaceOnUse" x="46" y="23" width="25" height="16">
<path d="M46.0273 23.8851H70.7977V38.0259H46.0273V23.8851Z" fill="white"/>
</mask>
<g mask="url(#mask4_87_332)">
<path d="M48.3158 35.6799C47.8345 35.6799 47.4427 35.2881 47.4427 34.8065C47.4427 34.4407 47.1462 34.1438 46.7805 34.1438C46.4147 34.1438 46.1182 34.4407 46.1182 34.8065C46.1182 36.0189 47.1041 37.0052 48.3158 37.0052C49.5264 37.0052 50.5123 36.0189 50.5123 34.8065C50.5123 33.8253 49.8661 32.9926 48.9781 32.7104V31.0908H49.033C49.3988 31.0908 49.6953 30.7939 49.6953 30.4281C49.6953 30.0623 49.3988 29.7655 49.033 29.7655H48.9781V26.7077C49.1041 26.6497 49.2189 26.572 49.3222 26.4819L55.0955 28.7986L54.8104 29.5316C54.4966 30.342 54.8983 31.2575 55.7083 31.5731L64.8766 35.1543V37.3218C64.8766 37.6876 65.1735 37.9845 65.5389 37.9845C65.9047 37.9845 66.2016 37.6876 66.2016 37.3218V28.0326C66.2016 27.8937 66.3145 27.7808 66.4541 27.7808H69.2051C69.3448 27.7808 69.458 27.8937 69.458 28.0326V37.3218C69.458 37.6876 69.7545 37.9845 70.1203 37.9845C70.4861 37.9845 70.7826 37.6876 70.7826 37.3218V28.0326C70.7826 27.1629 70.0752 26.4551 69.2051 26.4551H66.4541C65.584 26.4551 64.8766 27.1629 64.8766 28.0326V28.84L57.8513 26.067C57.0432 25.7536 56.1258 26.155 55.8091 26.9653L55.5764 27.5631L49.8148 25.2511C49.7448 24.513 49.1291 23.9313 48.3733 23.9313C47.5714 23.9313 46.9186 24.5844 46.9186 25.3871C46.9186 25.9266 47.2166 26.3932 47.6531 26.645V29.7688C47.2958 29.7779 47.0073 30.0682 47.0073 30.4281C47.0073 30.788 47.2958 31.0783 47.6531 31.0875V33.2715C47.6531 33.6373 47.95 33.9342 48.3158 33.9342C48.7959 33.9342 49.1877 34.326 49.1877 34.8065C49.1877 35.2881 48.7959 35.6799 48.3158 35.6799ZM57.3686 27.301L64.8766 30.2643V33.7326L56.1896 30.3394C56.0594 30.2885 55.9946 30.1408 56.0455 30.0121C56.2761 29.4191 57.0945 27.3153 57.0432 27.4469C57.0941 27.3172 57.2407 27.2501 57.3686 27.301Z" fill="white"/>
</g>
</g>
<rect x="8.5" y="9" width="78" height="78" rx="39" stroke="white"/>
</g>
<defs>
<filter id="filter0_d_87_332" x="0" y="0.5" width="103" height="103" filterUnits="userSpaceOnUse" color-interpolation-filters="sRGB">
<feFlood flood-opacity="0" result="BackgroundImageFix"/>
<feColorMatrix in="SourceAlpha" type="matrix" values="0 0 0 0 0 0 0 0 0 0 0 0 0 0 0 0 0 0 127 0" result="hardAlpha"/>
<feOffset dx="4" dy="4"/>
<feGaussianBlur stdDeviation="6"/>
<feComposite in2="hardAlpha" operator="out"/>
<feColorMatrix type="matrix" values="0 0 0 0 0 0 0 0 0 0 0 0 0 0 0 0 0 0 0.24 0"/>
<feBlend mode="normal" in2="BackgroundImageFix" result="effect1_dropShadow_87_332"/>
<feBlend mode="normal" in="SourceGraphic" in2="effect1_dropShadow_87_332" result="shape"/>
</filter>
<clipPath id="clip0_87_332">
<rect x="8" y="8.5" width="79" height="79" rx="39.5" fill="white"/>
</clipPath>
</defs>
</svg>
